<svg xmlns="http://www.w3.org/2000/svg" xmlns:xlink="http://www.w3.org/1999/xlink" width="1000" zoomAndPan="magnify" viewBox="0 0 750 749.999995" height="1000" preserveAspectRatio="xMidYMid meet" version="1.0"><defs><clipPath id="601aa5af25"><path d="M 136.015625 146.878906 L 613.558594 146.878906 L 613.558594 602.714844 L 136.015625 602.714844 Z M 136.015625 146.878906 " clip-rule="nonzero"/></clipPath><clipPath id="64e4ad2ca2"><path d="M 208.328125 109.292969 L 541 109.292969 L 541 640.113281 L 208.328125 640.113281 Z M 208.328125 109.292969 " clip-rule="nonzero"/></clipPath></defs><path fill="#ffffff" d="M 375.476562 150.3125 L 296.105469 398.347656 L 312.183594 411.308594 L 373.457031 218.066406 L 404.9375 312.5 L 428.335938 311.828125 L 375.480469 150.3125 Z M 394.585938 182.546875 L 401.234375 204.597656 C 465.089844 212.8125 518.867188 253.21875 545.839844 308.964844 L 569.65625 309.972656 C 540.304688 239.785156 473.738281 189.105469 394.585938 182.546875 Z M 357.382812 182.714844 C 276.71875 190.253906 209.394531 243.65625 181.804688 316.625 L 204.78125 316.625 C 230.144531 257.578125 284.9375 214.179688 350.734375 204.933594 Z M 612.75 315.867188 L 349.304688 320.242188 L 343.496094 339.6875 L 551.644531 337.328125 L 464.363281 401.632812 L 469.75 422.167969 L 612.753906 315.867188 Z M 312.433594 320.917969 L 140.058594 323.777344 L 353.59375 475.785156 L 371.691406 461.726562 L 205.878906 341.285156 L 306.628906 340.109375 Z M 439.027344 344.566406 L 415.878906 345.242188 L 481.109375 541.179688 L 399.800781 482.09375 L 380.527344 494.96875 L 521.003906 595.042969 L 439.023438 344.566406 Z M 581.1875 346.757812 L 561.914062 359.71875 C 563.5625 369.722656 564.4375 379.964844 564.4375 390.4375 C 564.4375 444.082031 541.894531 492.445312 505.773438 526.617188 L 512.085938 549.597656 C 557.140625 511.300781 585.734375 454.191406 585.734375 390.4375 C 585.734375 375.453125 584.1875 360.84375 581.1875 346.753906 Z M 171.625 353.996094 C 169.542969 365.828125 168.429688 378.003906 168.429688 390.4375 C 168.429688 452.863281 195.859375 508.898438 239.296875 547.15625 L 246.113281 524.515625 C 211.257812 490.472656 189.636719 442.988281 189.636719 390.441406 C 189.636719 382.261719 190.136719 374.183594 191.152344 366.285156 Z M 434.992188 423.347656 L 269.765625 545.21875 L 300.90625 446.914062 L 284.15625 435.464844 L 231.804688 599 L 440.796875 443.628906 L 434.988281 423.347656 Z M 458.054688 559.527344 C 433.554688 571.28125 406.070312 577.875 377.085938 577.875 C 348.167969 577.875 320.742188 571.3125 296.28125 559.609375 L 276.332031 573.246094 C 306.203125 589.753906 340.542969 599.167969 377.082031 599.167969 C 413.613281 599.167969 447.972656 589.746094 477.832031 573.246094 Z M 458.054688 559.527344 " fill-opacity="1" fill-rule="nonzero"/><g clip-path="url(#601aa5af25)"><path stroke-linecap="butt" transform="matrix(2.693413, 0, 0, 2.693305, 138.710885, 148.964499)" fill="none" stroke-linejoin="miter" d="M 87.905452 0.500501 L 58.436857 92.59372 L 64.406282 97.405999 L 87.155648 25.656916 L 98.843596 60.719258 L 107.530878 60.469797 L 87.906903 0.500501 Z M 95.000308 12.468834 L 97.468714 20.65609 C 121.176728 23.706188 141.142973 38.708664 151.157278 59.406687 L 159.999742 59.780878 C 149.102206 33.720892 124.387686 14.90398 95.000308 12.468834 Z M 81.187674 12.531199 C 51.23903 15.330385 26.243153 35.158194 15.999701 62.250834 L 24.530351 62.250834 C 33.947133 40.327261 54.290456 24.213812 78.719268 20.780821 Z M 175.999424 61.969465 L 78.188459 63.593863 L 76.031866 70.813732 L 153.31242 69.937718 L 120.906972 93.813469 L 122.906932 101.437987 L 176.000874 61.969465 Z M 64.499101 63.844774 L 0.500372 64.906434 L 79.780886 121.345566 L 86.500114 116.125737 L 24.937885 71.406928 L 62.343959 70.970371 Z M 111.500343 72.625226 L 102.905879 72.876138 L 127.124398 145.625966 L 96.936455 123.68789 L 89.780687 128.468262 L 141.936286 165.624918 L 111.498892 72.625226 Z M 164.28102 73.438876 L 157.125252 78.251155 C 157.737278 81.965515 158.062144 85.768347 158.062144 89.65675 C 158.062144 109.574481 149.692477 127.531332 136.281576 140.219041 L 138.625257 148.751482 C 155.352988 134.532198 165.969166 113.328001 165.969166 89.65675 C 165.969166 84.093187 165.394848 78.668857 164.28102 73.437425 Z M 12.220226 76.126384 C 11.447218 80.519511 11.033883 85.040269 11.033883 89.65675 C 11.033883 112.83488 21.217872 133.640229 37.34518 147.84501 L 39.875949 139.43875 C 26.934945 126.798902 18.907548 109.168382 18.907548 89.6582 C 18.907548 86.621156 19.093186 83.621821 19.470263 80.689202 Z M 110.002185 101.875995 L 48.657501 147.125634 L 60.219273 110.625989 L 54.000397 106.374997 L 34.56351 167.094128 L 112.157327 109.40624 L 110.000735 101.875995 Z M 118.564742 152.438286 C 109.468476 156.802405 99.264182 159.250605 88.502975 159.250605 C 77.766422 159.250605 67.583883 156.814008 58.50212 152.468743 L 51.095451 157.531934 C 62.185876 163.661136 74.935442 167.156493 88.501525 167.156493 C 102.064707 167.156493 114.821524 163.658236 125.907598 157.531934 Z M 118.564742 152.438286 " stroke="#000000" stroke-width="1" stroke-opacity="1" stroke-miterlimit="4"/></g><g clip-path="url(#64e4ad2ca2)"><path fill="#ffffff" d="M 490.132812 334.703125 C 490.890625 334.726562 491.644531 334.742188 492.402344 334.742188 C 492.402344 334.742188 492.40625 334.742188 492.40625 334.742188 C 494.296875 334.742188 496.214844 334.65625 498.109375 334.488281 C 506.757812 333.714844 522.65625 330.9375 531.945312 321.019531 C 538.914062 313.578125 541.742188 302.832031 539.9375 290.710938 C 535.996094 247.808594 489.65625 221.296875 469.910156 211.886719 C 456.144531 205.335938 441.480469 200.433594 426.230469 197.277344 C 424.082031 183.8125 427.5625 181.226562 431.988281 179.519531 C 434.21875 178.65625 437.203125 178.304688 440.363281 177.933594 C 442.285156 177.707031 444.265625 177.472656 446.339844 177.101562 C 454.589844 175.605469 462.191406 172.1875 468.316406 167.230469 C 477.472656 159.832031 481.996094 145.988281 479.570312 132.777344 C 477.488281 121.445312 470.683594 113.101562 460.882812 109.882812 C 459.578125 109.457031 458.234375 109.242188 456.886719 109.242188 C 453.140625 109.242188 449.59375 110.917969 447.160156 113.835938 C 444.644531 116.851562 443.566406 120.953125 444.273438 124.785156 C 444.367188 125.304688 444.480469 125.859375 444.59375 126.441406 C 444.789062 127.4375 445.097656 128.988281 445.238281 130.234375 C 444.292969 130.382812 442.828125 130.519531 440.625 130.519531 C 439.242188 130.519531 437.851562 130.472656 436.503906 130.425781 C 435.207031 130.382812 434.011719 130.34375 432.996094 130.34375 C 429.441406 130.335938 425.894531 130.292969 422.351562 130.246094 C 418.503906 130.199219 414.667969 130.152344 410.835938 130.152344 C 395.683594 130.152344 379.390625 130.851562 362.941406 135.914062 C 332.320312 145.332031 309.296875 172.082031 297.734375 211.484375 C 276.46875 220.820312 255.992188 233.632812 236.789062 249.625 C 219.273438 264.214844 208.734375 285.039062 208.597656 305.324219 C 208.449219 327.386719 222.316406 346.65625 245.699219 356.878906 C 257.515625 362.035156 270.402344 364.910156 284.058594 365.441406 C 280.613281 369.269531 275.746094 377.867188 278.148438 386.355469 C 278.480469 387.539062 278.941406 388.652344 279.515625 389.683594 C 273.816406 399.257812 271.027344 407.378906 271.027344 414.355469 C 271.027344 420.265625 272.207031 425.980469 274.371094 431.171875 C 271.488281 431.96875 269.34375 433.363281 268.046875 434.40625 C 266.28125 433.949219 264.71875 433.816406 263.507812 433.816406 C 260.25 433.816406 257.730469 434.707031 256.191406 435.453125 L 246.285156 440.53125 L 248.109375 447.402344 C 248.015625 447.4375 247.9375 447.46875 247.871094 447.496094 L 235.800781 452.175781 L 244.074219 476.605469 C 242.492188 477.910156 241.160156 479.5 240.167969 481.324219 L 235.828125 489.222656 L 255.957031 514.277344 L 260.03125 514.792969 C 270.078125 516.054688 299.15625 521.761719 312.855469 532.871094 C 318.8125 537.710938 329.75 549.742188 340.328125 561.371094 C 342.226562 563.464844 344.09375 565.503906 345.929688 567.511719 C 348.761719 576.355469 362.824219 616.15625 391.339844 633.007812 C 396.800781 636.226562 405.617188 640.0625 416.585938 640.0625 C 430.757812 640.0625 443.777344 633.660156 454.242188 621.542969 C 471.152344 601.960938 488.503906 568.632812 498.441406 536.640625 C 507.457031 507.609375 515.074219 465.574219 500.140625 430.199219 L 500.03125 429.949219 C 497.554688 424.496094 493.863281 419.03125 489.339844 414.113281 C 488.007812 412.40625 486.625 410.832031 485.234375 409.441406 C 480.191406 404.394531 474.164062 400.546875 467.773438 398.289062 C 467.582031 398.203125 467.390625 398.113281 467.199219 398.03125 L 486.449219 398.03125 C 492.742188 398.03125 498.734375 393.863281 502.480469 386.882812 C 507.3125 377.875 507.1875 367.183594 502.164062 359.644531 C 497.726562 352.980469 491.890625 350.832031 488.402344 349.546875 C 487.894531 349.359375 487.253906 349.125 486.808594 348.9375 C 486.796875 348.890625 486.785156 348.84375 486.773438 348.792969 C 486.03125 345.519531 486.378906 344.765625 487.539062 342.265625 C 488.589844 339.996094 489.585938 337.585938 490.132812 334.703125 Z M 490.132812 334.703125 " fill-opacity="1" fill-rule="nonzero"/></g><path fill="#1c945f" d="M 429.585938 407.296875 C 422.40625 406.519531 418.074219 406.058594 416.488281 399.269531 C 415.59375 395.488281 414.90625 391.683594 414.390625 387.898438 C 412.890625 377.25 412.652344 366.914062 412.632812 358.699219 C 416.960938 357.503906 417.761719 356.75 418.109375 356.421875 C 418.863281 355.726562 419.8125 354.453125 420.90625 352.980469 C 422.304688 351.109375 423.882812 348.984375 425.179688 347.855469 C 425.417969 347.644531 425.710938 347.339844 426.035156 346.957031 C 420.074219 349.128906 414.074219 349.195312 411.390625 345.976562 C 404.75 337.984375 414.527344 338.164062 413.25 333.863281 C 411.570312 328.15625 403.511719 325.542969 399.023438 322.257812 C 393.023438 317.855469 388.808594 313.160156 385.886719 308.648438 C 373.914062 318.992188 352.242188 338.074219 323.324219 347.304688 C 323.34375 347.878906 323.367188 348.476562 323.402344 349.117188 C 323.558594 352.03125 324.292969 355.351562 325.578125 358.988281 L 325.65625 359.214844 C 325.847656 359.753906 326.050781 360.308594 326.265625 360.847656 C 329.894531 370.179688 336.3125 380.03125 343.878906 387.875 C 343.890625 387.886719 343.890625 387.886719 343.898438 387.898438 C 348.152344 392.289062 353.382812 394.503906 359.472656 394.503906 C 364.21875 394.503906 369.394531 393.144531 374.761719 390.53125 C 376.160156 396.632812 376.621094 405.097656 371.90625 412.71875 C 368.457031 418.28125 361.589844 418.945312 353.609375 419.644531 C 353.96875 420.183594 354.304688 420.722656 354.632812 421.253906 C 346.742188 433.882812 337.925781 437.8125 330.640625 460.136719 C 330.765625 461.9375 331.8125 464.210938 333.628906 466.664062 C 332.433594 468.734375 331.351562 471.191406 330.449219 474.128906 C 328.859375 479.285156 322.195312 484.167969 316.738281 484.167969 C 315.207031 484.167969 313.90625 483.761719 312.894531 482.964844 C 307.582031 478.742188 293.660156 466.5625 291.007812 464.242188 C 288.246094 449.734375 284.121094 442.382812 278.742188 442.382812 C 276.597656 442.382812 275.191406 443.621094 275.042969 443.765625 L 274.390625 444.375 L 278.066406 469.015625 L 290.839844 482.074219 L 290.535156 482.445312 L 277.308594 469.972656 C 273.488281 449.878906 267.566406 445.632812 263.261719 445.632812 C 262.078125 445.632812 261.289062 446.007812 261.144531 446.074219 L 259.925781 446.691406 L 264.164062 462.554688 C 262.621094 459.460938 259.8125 457.757812 256.214844 457.757812 C 253.882812 457.757812 251.988281 458.480469 251.90625 458.511719 L 250.398438 459.097656 L 258.59375 483.289062 L 271.730469 495.066406 L 270.5 494.863281 C 264.433594 487.9375 259.28125 484.425781 255.199219 484.425781 C 252.449219 484.425781 250.824219 486.046875 250.304688 487.003906 L 249.765625 487.992188 L 261.941406 503.136719 L 262.617188 503.226562 C 263 503.269531 300.738281 508.011719 320.085938 523.703125 C 326.683594 529.050781 337.449219 540.890625 348.859375 553.421875 C 352.707031 557.65625 356.640625 561.976562 360.597656 566.246094 L 380.375 584.445312 L 375.039062 517.882812 L 348.882812 506.46875 C 344.148438 502.988281 342.34375 496.570312 343.503906 487.375 C 343.921875 484.042969 344.710938 480.644531 345.648438 477.414062 C 358.625 485.699219 378.390625 490.976562 398.378906 480.40625 C 405.007812 459.546875 415.144531 430.546875 425.96875 417.941406 C 429.710938 413.765625 433.457031 410.53125 437.4375 408.40625 C 434.617188 407.835938 431.976562 407.542969 429.585938 407.296875 Z M 283.441406 489.753906 L 281.242188 487.886719 L 283.496094 489.6875 Z M 368.601562 335.429688 C 368.601562 335.429688 370.382812 323.40625 379.539062 320.738281 C 393.460938 316.695312 396.371094 331.375 396.371094 331.375 Z M 368.601562 335.429688 " fill-opacity="1" fill-rule="nonzero"/><path fill="#762f82" d="M 391.746094 303.324219 C 395.75 300.019531 399.765625 296.886719 403.777344 293.9375 C 404.578125 293.347656 405.378906 292.765625 406.183594 292.191406 C 440.683594 267.476562 474.972656 256.746094 503.214844 271.261719 C 511.753906 275.648438 519.738281 282.34375 527.011719 291.65625 C 524.382812 259.355469 479.800781 219.984375 418.289062 208.917969 C 419.304688 213.226562 420.40625 217.511719 421.363281 221.832031 C 422.203125 225.609375 423.117188 229.347656 422.160156 233.195312 C 419.769531 242.785156 412.25 250.996094 405.011719 257.347656 C 399.230469 262.421875 392.453125 267.476562 385.085938 271.875 C 368.835938 281.578125 349.707031 288.074219 332.085938 284.449219 C 316.628906 281.269531 299.957031 267.648438 300.882812 250.394531 C 300.882812 250.382812 300.882812 250.378906 300.882812 250.367188 C 301.523438 242.402344 302.71875 234.128906 304.53125 225.867188 C 292.253906 231.160156 280.410156 237.601562 269.195312 245.105469 C 250.011719 257.9375 229.078125 273.425781 225.019531 297.78125 C 221.441406 319.242188 235.039062 336.316406 254.707031 343.5625 C 262.839844 346.558594 271.242188 348.414062 279.71875 349.214844 C 275.347656 349.773438 270.945312 350.046875 266.566406 350 C 325.378906 363.128906 368.953125 322.820312 386.945312 307.363281 C 388.542969 305.992188 390.144531 304.644531 391.746094 303.324219 Z M 293.71875 336.359375 C 292.835938 336.582031 291.535156 336.828125 289.863281 337.070312 C 288.191406 337.304688 286.144531 337.519531 283.785156 337.574219 C 281.425781 337.6875 278.761719 337.554688 275.851562 337.304688 C 270.050781 336.746094 263.304688 335.183594 256.601562 332.199219 C 255.761719 331.847656 254.917969 331.4375 254.074219 331.003906 C 253.207031 330.582031 252.421875 330.160156 251.628906 329.707031 C 249.953125 328.777344 248.242188 327.855469 246.609375 326.730469 C 243.347656 324.515625 240.296875 321.675781 238.046875 318.195312 C 235.773438 314.730469 234.5 310.621094 234.289062 306.613281 C 234.101562 302.589844 234.851562 298.734375 236.015625 295.246094 C 237.179688 291.746094 238.75 288.578125 240.460938 285.742188 C 242.167969 282.902344 243.988281 280.367188 245.769531 278.125 C 249.375 273.660156 252.78125 270.332031 255.265625 268.132812 C 256.511719 267.03125 257.503906 266.191406 258.199219 265.640625 C 258.898438 265.089844 259.269531 264.796875 259.269531 264.796875 C 259.269531 264.796875 257.898438 266.109375 255.675781 268.542969 C 253.472656 270.988281 250.382812 274.558594 247.261719 279.214844 C 245.6875 281.53125 244.109375 284.121094 242.683594 286.960938 C 241.273438 289.804688 239.957031 292.882812 239.078125 296.164062 C 238.195312 299.4375 237.753906 302.917969 238.121094 306.320312 C 238.457031 309.71875 239.640625 313.003906 241.636719 315.785156 C 243.609375 318.582031 246.296875 320.886719 249.246094 322.738281 C 250.722656 323.65625 252.246094 324.523438 253.835938 325.203125 C 255.558594 325.949219 257.066406 326.546875 258.6875 327.164062 C 265.085938 329.589844 271.238281 331.328125 276.628906 332.542969 C 277.972656 332.871094 279.269531 333.144531 280.507812 333.414062 C 281.753906 333.628906 282.933594 333.894531 284.050781 334.097656 C 285.167969 334.316406 286.21875 334.503906 287.195312 334.65625 C 288.167969 334.839844 289.070312 335.015625 289.886719 335.125 C 291.53125 335.40625 292.824219 335.625 293.703125 335.773438 C 294.59375 335.941406 295.070312 336.03125 295.070312 336.03125 C 295.070312 336.03125 294.601562 336.164062 293.71875 336.359375 Z M 369.671875 274.191406 C 373.089844 269.964844 375.566406 264.617188 374.824219 259.355469 C 374.222656 255.085938 371.117188 252.578125 367.417969 251.195312 C 366.585938 250.882812 365.722656 250.628906 364.851562 250.425781 C 371.394531 247.785156 377.65625 244.476562 383.386719 241.128906 C 395.070312 234.300781 416.710938 216.34375 417.070312 216.015625 C 418.097656 220.199219 419.0625 224.121094 419.648438 227.5 C 422.023438 241.183594 396.601562 265.914062 367.007812 277.089844 C 367.933594 276.207031 368.828125 275.230469 369.671875 274.191406 Z M 331.222656 460.136719 C 331.359375 462.050781 332.542969 464.515625 334.59375 467.164062 C 333.511719 469.121094 332.53125 471.429688 331.699219 474.132812 C 330.109375 479.289062 323.445312 484.171875 317.988281 484.171875 C 316.453125 484.171875 315.15625 483.765625 314.140625 482.96875 C 308.832031 478.746094 294.90625 466.566406 292.257812 464.246094 C 292.167969 463.75 292.066406 463.253906 291.964844 462.769531 C 295.367188 454.925781 298.636719 448.082031 301.773438 442.148438 C 304.488281 443.195312 307.421875 443.757812 310.464844 443.757812 C 325.144531 443.757812 337.050781 430.597656 337.050781 414.351562 C 337.050781 412.058594 336.523438 409.523438 335.609375 406.867188 C 344.652344 406.394531 351.113281 414.601562 355.214844 421.253906 C 347.324219 433.886719 338.507812 437.8125 331.222656 460.136719 Z M 490.257812 434.832031 C 514.5 492.242188 474.472656 581.175781 446.285156 613.824219 C 430.140625 632.523438 410.769531 630.144531 398.367188 622.828125 C 370.742188 606.507812 357.777344 562.511719 357.777344 562.511719 L 361.847656 566.25 L 361.890625 566.292969 L 381.621094 584.453125 L 379.042969 552.199219 L 376.289062 517.886719 L 350.132812 506.472656 C 345.394531 502.996094 343.59375 496.578125 344.753906 487.378906 C 345.160156 484.171875 345.902344 480.894531 346.792969 477.753906 C 359.773438 485.851562 379.253906 490.835938 398.964844 480.410156 C 405.59375 459.550781 415.730469 430.554688 426.550781 417.945312 C 436.136719 407.25 445.71875 402.746094 459.25 407.25 C 460.929688 407.789062 462.632812 408.453125 464.3125 409.253906 C 470.390625 412.089844 476.332031 416.480469 481.238281 421.707031 C 481.269531 421.726562 481.292969 421.761719 481.316406 421.796875 C 485.046875 425.769531 488.160156 430.226562 490.257812 434.832031 Z M 396.097656 358.632812 C 403.570312 358.632812 409.828125 353.496094 411.566406 346.574219 C 411.359375 346.386719 411.15625 346.191406 410.976562 345.972656 C 406.753906 340.902344 409.15625 339.125 411.148438 337.398438 C 410.03125 334.230469 407.949219 331.523438 405.246094 329.632812 L 402.886719 330.003906 L 404.976562 330.890625 L 383.144531 333.382812 C 381.253906 336.003906 380.128906 339.210938 380.128906 342.6875 C 380.128906 351.492188 387.277344 358.632812 396.097656 358.632812 Z M 400.136719 332.597656 L 401.867188 336.082031 L 396.667969 332.996094 Z M 395.722656 332.980469 L 397.449219 336.464844 L 392.25 333.375 Z M 340.472656 350.039062 C 340.4375 350.226562 340.417969 350.546875 340.414062 350.828125 C 340.40625 350.9375 340.421875 351.183594 340.46875 351.433594 C 340.492188 351.550781 340.515625 351.667969 340.546875 351.785156 L 340.582031 351.914062 C 340.824219 352.488281 340.65625 352.082031 340.710938 352.214844 L 340.738281 352.261719 L 340.796875 352.359375 L 340.917969 352.554688 C 341.085938 352.796875 341.285156 353.027344 341.496094 353.222656 C 341.671875 353.359375 341.851562 353.480469 342.023438 353.582031 C 339.128906 357.65625 334.382812 360.320312 328.996094 360.320312 C 328.46875 360.320312 327.949219 360.296875 327.433594 360.238281 C 327.429688 360.238281 327.429688 360.238281 327.429688 360.238281 C 327.40625 360.191406 327.394531 360.140625 327.371094 360.09375 C 327.238281 359.753906 327.121094 359.425781 327 359.09375 C 326.921875 358.871094 326.832031 358.636719 326.75 358.417969 C 326.707031 358.292969 326.675781 358.175781 326.632812 358.054688 C 326.457031 357.542969 326.300781 357.039062 326.144531 356.539062 C 326.042969 356.199219 325.9375 355.863281 325.84375 355.535156 C 325.714844 355.078125 325.605469 354.628906 325.496094 354.183594 C 325.421875 353.867188 325.335938 353.550781 325.273438 353.242188 C 325.160156 352.722656 325.074219 352.21875 324.992188 351.722656 C 324.957031 351.507812 324.910156 351.289062 324.882812 351.082031 C 324.8125 350.585938 324.773438 350.113281 324.738281 349.640625 C 325.785156 349.300781 326.828125 348.953125 327.863281 348.589844 C 333.441406 346.621094 338.785156 344.246094 343.945312 341.570312 C 343.324219 342.703125 342.722656 343.878906 342.164062 345.089844 C 341.636719 346.285156 341.117188 347.484375 340.730469 348.867188 C 340.636719 349.238281 340.539062 349.582031 340.472656 350.039062 Z M 348.234375 368.867188 C 348.4375 368.882812 348.625 368.898438 348.835938 368.914062 C 349.921875 368.984375 351.105469 369.015625 352.359375 368.949219 C 353.613281 368.890625 354.941406 368.785156 356.300781 368.542969 C 359.019531 368.085938 361.871094 367.214844 364.550781 365.949219 C 365.867188 365.285156 367.183594 364.632812 368.445312 363.699219 C 369.347656 363.027344 370.128906 362.289062 370.832031 361.527344 C 366.394531 374.613281 351.855469 376.25 350.128906 375.328125 C 347.453125 373.90625 347.859375 370.492188 348.234375 368.867188 Z M 348.773438 366.984375 C 348.457031 367.019531 348.160156 367.054688 347.855469 367.09375 C 346.875 365.558594 345.324219 362.40625 347.867188 360.695312 C 348.96875 359.953125 350.1875 359.449219 351.460938 359.09375 C 357.269531 357.472656 364.351562 359.285156 368.601562 359.359375 C 367.941406 359.964844 367.261719 360.542969 366.546875 361.03125 C 365.535156 361.703125 364.308594 362.3125 363.097656 362.898438 C 360.667969 364.058594 358.125 364.964844 355.664062 365.621094 C 354.433594 365.945312 353.230469 366.234375 352.074219 366.453125 C 350.914062 366.652344 349.804688 366.839844 348.773438 366.984375 Z M 383.210938 325.644531 C 382.472656 326.203125 382.675781 327.671875 383.859375 327.671875 L 383.929688 327.671875 C 384.265625 327.671875 384.519531 327.542969 384.699219 327.355469 C 385.746094 328.191406 387.0625 328.695312 388.480469 328.695312 L 388.601562 328.695312 C 390.496094 328.695312 392.199219 327.785156 393.324219 326.394531 C 394 327.136719 394.625 327.992188 395.183594 328.980469 L 390.957031 330.28125 L 389.152344 330.542969 C 384.695312 329.96875 380.675781 327.960938 379.144531 323.746094 C 380.203125 323.324219 381.285156 323.011719 382.375 322.824219 C 382.414062 323.847656 382.714844 324.808594 383.210938 325.644531 Z M 334.316406 253.804688 C 336.183594 254.054688 338.121094 254.179688 340.074219 254.179688 C 346.851562 254.179688 353.660156 252.652344 360.070312 250.421875 C 368.609375 247.449219 376.441406 243.230469 382.53125 239.671875 C 393.519531 233.253906 414.429688 216.078125 415.945312 214.753906 C 416.15625 214.570312 416.40625 214.449219 416.671875 214.386719 C 412.992188 199.371094 408.96875 181.503906 418.167969 173.140625 C 430.800781 161.65625 440.542969 168.8125 456.65625 159.679688 C 458.75 158.492188 460.492188 157.03125 461.921875 155.386719 C 460.097656 156.050781 458.195312 156.578125 456.203125 156.972656 C 458.3125 155.523438 460.136719 153.648438 461.539062 151.15625 C 464.917969 145.148438 465.886719 133.46875 460.542969 127.710938 C 461.203125 136.378906 459.03125 143.714844 448.09375 145.277344 C 426.4375 148.363281 404.40625 143.859375 382.671875 147.472656 C 371.214844 149.378906 359.765625 152.683594 349.957031 159.074219 C 338.800781 166.347656 331.027344 176.347656 324.859375 188.03125 C 317.382812 202.195312 311.980469 217.324219 308.925781 232.972656 C 310.863281 237.667969 313.28125 241.5625 316.289062 244.804688 C 320.84375 249.71875 327.074219 252.832031 334.316406 253.804688 Z M 320.476562 227.265625 C 320.511719 226.003906 320.542969 224.464844 320.714844 222.710938 C 320.851562 220.953125 321.066406 218.976562 321.40625 216.832031 C 321.75 214.6875 322.140625 212.359375 322.726562 209.929688 C 323.289062 207.5 323.996094 204.957031 324.84375 202.355469 C 325.273438 201.058594 325.714844 199.738281 326.234375 198.429688 C 326.488281 197.769531 326.742188 197.109375 327 196.445312 C 327.28125 195.789062 327.566406 195.128906 327.851562 194.46875 C 328.410156 193.136719 329.058594 191.832031 329.699219 190.519531 C 330.367188 189.21875 331.066406 187.925781 331.78125 186.640625 C 333.292969 184.113281 334.851562 181.605469 336.632812 179.304688 C 337.074219 178.726562 337.511719 178.148438 337.945312 177.574219 C 338.414062 177.023438 338.878906 176.476562 339.34375 175.933594 C 340.246094 174.832031 341.230469 173.816406 342.203125 172.824219 C 344.140625 170.84375 346.171875 169.078125 348.191406 167.535156 C 349.171875 166.730469 350.222656 166.070312 351.207031 165.402344 C 352.183594 164.722656 353.191406 164.15625 354.15625 163.613281 C 356.027344 162.457031 357.921875 161.699219 359.527344 160.949219 C 361.1875 160.300781 362.648438 159.792969 363.855469 159.40625 C 366.320312 158.742188 367.71875 158.4375 367.71875 158.4375 C 367.71875 158.4375 366.476562 159.210938 364.3125 160.429688 C 363.269531 161.097656 362.003906 161.914062 360.554688 162.847656 C 359.179688 163.886719 357.578125 164.941406 355.972656 166.289062 C 355.15625 166.9375 354.308594 167.613281 353.5 168.394531 C 352.683594 169.164062 351.777344 169.875 350.964844 170.75 C 349.261719 172.402344 347.554688 174.222656 345.898438 176.195312 C 345.082031 177.195312 344.21875 178.175781 343.4375 179.253906 C 342.628906 180.300781 341.832031 181.382812 341.070312 182.503906 C 339.511719 184.714844 338.0625 187.0625 336.671875 189.441406 C 335.296875 191.835938 334.003906 194.285156 332.820312 196.746094 C 331.617188 199.195312 330.542969 201.671875 329.527344 204.078125 C 328.53125 206.5 327.605469 208.859375 326.789062 211.128906 C 325.957031 213.394531 325.21875 215.558594 324.550781 217.570312 C 323.257812 221.601562 322.257812 225.015625 321.585938 227.425781 C 320.933594 229.847656 320.5625 231.234375 320.5625 231.234375 C 320.5625 231.234375 320.425781 229.792969 320.476562 227.265625 Z M 456.015625 311.992188 C 453.660156 310.910156 450.667969 309.652344 449.324219 307.417969 C 447.953125 305.140625 448.546875 302.199219 447.007812 300.050781 C 443.890625 303.394531 446.285156 308.652344 448.488281 311.851562 C 451.714844 316.542969 449.5625 321.0625 443.828125 318.167969 C 440.1875 316.328125 438.15625 310.320312 434.019531 309.554688 C 427.289062 308.300781 427.953125 314.761719 426.753906 318.65625 C 425.304688 323.355469 420.015625 321.097656 417.429688 319.351562 C 414.996094 317.707031 404.714844 311.632812 404.714844 311.632812 C 407.476562 317.734375 412.113281 321.253906 417.613281 324.648438 C 420.988281 326.734375 426.542969 332.980469 423.699219 337.257812 C 429.113281 336.84375 431.074219 331.160156 431.761719 326.832031 C 432.578125 321.691406 438.40625 321.765625 441.289062 325.414062 C 444.234375 329.140625 446.921875 331.828125 452.078125 329.425781 C 456.742188 327.253906 455.261719 322.066406 459.1875 319.855469 C 461.558594 318.523438 464.523438 319.292969 466.6875 320.609375 C 467.894531 314.464844 459.714844 313.6875 456.015625 311.992188 Z M 451.785156 320.425781 C 451.109375 321.507812 449.890625 322.449219 448.429688 322.777344 C 446.960938 323.140625 445.386719 322.972656 443.929688 322.480469 C 443.574219 322.371094 443.183594 322.210938 442.835938 322.066406 C 442.523438 321.9375 442.132812 321.742188 441.785156 321.546875 C 441.066406 321.15625 440.421875 320.65625 439.832031 320.117188 C 439.238281 319.578125 438.707031 318.996094 438.195312 318.410156 L 436.773438 316.710938 C 435.9375 315.777344 434.734375 315.003906 433.640625 314.835938 C 433.097656 314.757812 432.628906 314.820312 432.238281 315.046875 C 431.832031 315.289062 431.511719 315.667969 431.253906 316.199219 C 430.78125 317.152344 430.828125 318.554688 430.464844 319.972656 C 430.28125 320.679688 429.988281 321.347656 429.554688 321.949219 L 429.273438 322.300781 C 429.121094 322.480469 429.035156 322.5625 428.910156 322.695312 C 428.671875 322.921875 428.4375 323.140625 428.179688 323.316406 C 427.171875 324.066406 426.082031 324.417969 425.132812 324.578125 C 424.175781 324.746094 423.335938 324.703125 422.667969 324.617188 C 421.996094 324.542969 421.484375 324.371094 421.148438 324.265625 C 420.8125 324.148438 420.636719 324.082031 420.636719 324.082031 C 420.636719 324.082031 420.824219 324.105469 421.175781 324.152344 C 421.527344 324.183594 422.039062 324.210938 422.683594 324.175781 C 423.328125 324.140625 424.101562 324.015625 424.925781 323.75 C 425.75 323.472656 426.625 323.015625 427.359375 322.328125 C 427.550781 322.160156 427.714844 321.964844 427.878906 321.765625 L 428.089844 321.480469 L 428.324219 321.09375 C 428.542969 320.671875 428.746094 320.160156 428.832031 319.605469 C 428.925781 319.046875 428.941406 318.429688 428.980469 317.730469 C 429.019531 317.03125 429.097656 316.222656 429.441406 315.410156 C 429.746094 314.664062 430.292969 313.820312 431.117188 313.28125 C 431.953125 312.714844 433.03125 312.546875 433.945312 312.6875 C 435.796875 312.976562 437.25 313.953125 438.445312 315.203125 C 439.023438 315.875 439.40625 316.410156 439.886719 316.976562 C 440.351562 317.527344 440.816406 318.058594 441.3125 318.523438 C 441.8125 318.984375 442.320312 319.402344 442.859375 319.742188 C 443.132812 319.914062 443.375 320.0625 443.71875 320.226562 C 444.023438 320.371094 444.289062 320.496094 444.597656 320.613281 C 445.785156 321.066406 447.011719 321.300781 448.089844 321.132812 C 449.175781 320.96875 450.105469 320.421875 450.730469 319.671875 C 451.34375 318.917969 451.6875 317.988281 451.808594 317.152344 C 451.921875 316.300781 451.875 315.523438 451.777344 314.886719 C 451.667969 314.25 451.542969 313.75 451.441406 313.414062 C 451.328125 313.078125 451.273438 312.898438 451.273438 312.898438 C 451.273438 312.898438 451.371094 313.0625 451.554688 313.367188 C 451.722656 313.675781 451.984375 314.136719 452.210938 314.773438 C 452.4375 315.410156 452.660156 316.222656 452.671875 317.203125 C 452.679688 318.183594 452.484375 319.328125 451.785156 320.425781 Z M 425.949219 379.832031 C 412.921875 374.503906 421.066406 362.851562 426.421875 354.972656 C 426.421875 354.972656 423.441406 371.914062 433.65625 361.070312 C 440.609375 353.691406 445.015625 366.191406 451.132812 364.679688 C 458.691406 362.816406 463.726562 344.503906 470.753906 354.050781 C 473.25 357.441406 476.042969 362.308594 479.882812 364.667969 C 482.75 366.429688 486.625 366.46875 489.84375 366.921875 C 473.304688 377.019531 470.964844 364.691406 467.183594 364.824219 C 457.675781 365.160156 454.035156 376.789062 443.332031 372.210938 C 439.910156 370.75 438.515625 368.066406 434.40625 369.179688 C 430.0625 370.359375 423.695312 374.203125 425.949219 379.832031 Z M 520.285156 314.023438 C 508.414062 321.238281 492.296875 323.835938 478.410156 320.335938 C 472.835938 306.222656 460.734375 313.972656 456.300781 303.472656 C 451.550781 292.214844 457.429688 282.503906 452.074219 275.046875 C 451.328125 274.007812 450.539062 273.019531 449.707031 272.078125 C 453.710938 270.765625 457.789062 269.667969 461.945312 268.832031 C 487.0625 263.785156 509.394531 274.03125 525.019531 293.648438 C 525.613281 294.390625 526.515625 294.597656 527.382812 294.441406 C 528.269531 304.339844 524.277344 311.585938 520.285156 314.023438 Z M 520.285156 314.023438 " fill-opacity="1" fill-rule="nonzero"/><path fill="#000000" d="M 497.558594 328.324219 C 503.8125 327.761719 519.242188 325.519531 527.417969 316.789062 C 533.097656 310.726562 535.347656 301.738281 533.777344 291.453125 L 533.765625 291.304688 C 530.132812 251.550781 486.035156 226.429688 467.242188 217.476562 C 452.707031 210.554688 437.128906 205.535156 420.902344 202.542969 C 420.882812 202.460938 420.867188 202.378906 420.847656 202.296875 C 417.414062 185.542969 419.90625 177.539062 429.75 173.746094 C 432.710938 172.601562 436.074219 172.203125 439.636719 171.785156 C 441.464844 171.570312 443.355469 171.347656 445.234375 171.007812 C 452.355469 169.71875 459.171875 166.667969 464.417969 162.417969 C 471.746094 156.5 475.46875 144.769531 473.472656 133.894531 C 471.8125 124.859375 466.523438 118.253906 458.957031 115.769531 C 456.414062 114.941406 453.636719 115.75 451.925781 117.800781 C 450.574219 119.417969 449.996094 121.617188 450.375 123.675781 C 450.464844 124.167969 450.570312 124.691406 450.679688 125.242188 C 451.265625 128.207031 452.25 133.167969 450.558594 134.71875 C 449.121094 136.042969 445.78125 136.710938 440.625 136.710938 C 439.136719 136.710938 437.691406 136.664062 436.296875 136.617188 C 435.078125 136.574219 433.953125 136.535156 432.988281 136.535156 C 429.410156 136.53125 425.839844 136.484375 422.273438 136.441406 C 418.453125 136.394531 414.640625 136.34375 410.839844 136.34375 C 396.167969 136.34375 380.433594 137.011719 364.769531 141.832031 C 335.507812 150.832031 313.585938 177.140625 302.898438 216.007812 C 281.214844 225.191406 260.316406 238.097656 240.761719 254.378906 C 224.628906 267.820312 214.925781 286.882812 214.800781 305.367188 C 214.667969 324.875 227.144531 342.015625 248.183594 351.207031 C 260.554688 356.605469 274.203125 359.34375 288.746094 359.34375 C 291.074219 359.34375 293.4375 359.273438 295.792969 359.128906 C 296.34375 360.035156 296.675781 360.855469 296.828125 361.628906 C 297.125 363.160156 296.933594 363.628906 296.929688 363.628906 C 296.773438 363.894531 295.679688 364.507812 294.957031 364.914062 C 293.402344 365.785156 291.28125 366.976562 289.167969 369.066406 C 286.605469 371.484375 282.410156 378.664062 284.113281 384.675781 C 284.464844 385.921875 285.269531 387.742188 287.097656 389.234375 C 280.542969 399.347656 277.226562 407.78125 277.226562 414.355469 C 277.226562 426.894531 283.371094 438.339844 293.164062 444.578125 C 292.777344 445.359375 292.386719 446.15625 291.992188 446.964844 C 289.511719 441.792969 285.484375 436.746094 278.988281 436.746094 C 274.898438 436.746094 272.1875 438.964844 271.449219 439.648438 L 269.410156 441.542969 C 267.226562 440.355469 265.160156 440.011719 263.507812 440.011719 C 261.425781 440.011719 259.851562 440.5625 258.816406 441.066406 L 253.558594 443.761719 L 255.789062 452.148438 C 252.707031 452.269531 250.355469 453.171875 250.117188 453.269531 L 243.574219 455.804688 L 251.574219 479.433594 C 248.628906 480.441406 246.589844 482.488281 245.601562 484.304688 L 243.253906 488.578125 L 257.363281 506.152344 L 259.234375 508.457031 L 262.183594 508.820312 C 262.546875 508.863281 298.753906 513.460938 316.769531 528.070312 C 323.082031 533.203125 334.183594 545.40625 344.921875 557.210938 C 347.136719 559.652344 349.308594 562.027344 351.4375 564.351562 C 352.683594 568.507812 365.9375 610.804688 394.488281 627.675781 C 399.289062 630.503906 407.015625 633.875 416.585938 633.875 C 428.894531 633.875 440.292969 628.210938 449.542969 617.5 C 479.179688 583.183594 519.519531 492.046875 494.382812 432.507812 C 492.140625 427.578125 488.761719 422.605469 484.59375 418.117188 C 483.375 416.53125 482.109375 415.082031 480.839844 413.8125 C 476.382812 409.351562 471.066406 405.972656 465.457031 404.039062 C 463.527344 403.152344 461.730469 402.453125 460.023438 401.914062 C 455.929688 400.550781 452.128906 399.890625 448.40625 399.890625 C 444.109375 399.890625 440.101562 400.757812 436.195312 402.539062 C 433.882812 402.152344 431.714844 401.917969 429.757812 401.703125 C 422.230469 400.894531 422.152344 400.5625 421.542969 397.976562 C 421.082031 396.023438 420.667969 393.992188 420.289062 391.84375 L 486.445312 391.84375 C 490.410156 391.84375 494.359375 388.894531 497.007812 383.957031 C 499.871094 378.628906 501.582031 369.957031 496.996094 363.070312 C 493.679688 358.089844 489.390625 356.511719 486.253906 355.359375 C 482.898438 354.121094 481.507812 353.609375 480.722656 350.164062 C 479.515625 344.835938 480.519531 342.667969 481.910156 339.667969 C 483.203125 336.871094 484.746094 333.542969 484.269531 328 C 488.777344 328.601562 493.164062 328.710938 497.558594 328.324219 Z M 324.859375 188.03125 C 331.027344 176.34375 338.800781 166.34375 349.957031 159.074219 C 359.765625 152.679688 371.214844 149.375 382.671875 147.472656 C 404.410156 143.855469 426.4375 148.363281 448.09375 145.273438 C 459.03125 143.714844 461.203125 136.378906 460.546875 127.707031 C 465.890625 133.464844 464.917969 145.148438 461.539062 151.15625 C 460.136719 153.648438 458.3125 155.519531 456.207031 156.96875 C 458.195312 156.574219 460.097656 156.046875 461.921875 155.382812 C 460.492188 157.027344 458.75 158.492188 456.65625 159.675781 C 440.546875 168.808594 430.804688 161.652344 418.167969 173.140625 C 408.96875 181.503906 412.996094 199.367188 416.671875 214.382812 C 416.410156 214.445312 416.15625 214.566406 415.945312 214.75 C 414.433594 216.074219 393.523438 233.25 382.53125 239.667969 C 376.445312 243.226562 368.609375 247.449219 360.070312 250.417969 C 353.660156 252.648438 346.851562 254.179688 340.078125 254.179688 C 338.121094 254.179688 336.183594 254.050781 334.316406 253.800781 C 327.074219 252.832031 320.84375 249.71875 316.289062 244.800781 C 313.285156 241.558594 310.863281 237.664062 308.925781 232.96875 C 311.984375 217.324219 317.386719 202.195312 324.859375 188.03125 Z M 305.382812 250.503906 C 305.742188 245.933594 306.285156 241.480469 307.023438 237.015625 C 308.890625 240.886719 311.136719 244.214844 313.804688 247.097656 C 318.824219 252.515625 325.953125 256.085938 333.867188 257.148438 C 335.882812 257.421875 337.972656 257.558594 340.074219 257.558594 C 349.554688 257.558594 362.203125 256.570312 386.605469 241.53125 C 398.125 234.433594 416.710938 216.34375 417.070312 216.015625 C 418.097656 220.199219 419.0625 224.125 419.648438 227.5 C 422.023438 241.183594 401.125 261.511719 369.835938 274.320312 C 361.296875 277.8125 358.671875 278.289062 353.085938 279.492188 C 349.015625 280.371094 345.050781 280.816406 341.296875 280.816406 C 341.292969 280.816406 341.292969 280.816406 341.292969 280.816406 C 327 280.816406 318.226562 274.585938 313.386719 269.355469 C 306.9375 262.394531 305.042969 254.847656 305.382812 250.503906 Z M 254.703125 343.566406 C 235.246094 335.777344 221.441406 319.242188 225.019531 297.78125 C 229.078125 273.425781 250.011719 257.9375 269.191406 245.105469 C 280.410156 237.601562 292.25 231.164062 304.527344 225.867188 C 302.71875 234.128906 301.523438 242.402344 300.878906 250.371094 C 300.878906 250.378906 300.882812 250.386719 300.878906 250.394531 C 299.957031 267.652344 316.628906 281.269531 332.085938 284.449219 C 349.707031 288.074219 368.832031 281.578125 385.085938 271.878906 C 392.453125 267.480469 399.230469 262.421875 405.007812 257.351562 C 412.246094 251 419.769531 242.785156 422.15625 233.195312 C 423.117188 229.347656 422.199219 225.609375 421.359375 221.832031 C 420.402344 217.511719 419.304688 213.226562 418.285156 208.921875 C 479.796875 219.988281 524.378906 259.355469 527.007812 291.660156 C 519.738281 282.347656 511.75 275.652344 503.210938 271.265625 C 474.96875 256.75 440.679688 267.480469 406.179688 292.191406 C 405.378906 292.765625 404.578125 293.351562 403.773438 293.941406 C 399.761719 296.890625 395.746094 300.023438 391.742188 303.324219 C 390.140625 304.644531 388.539062 305.992188 386.941406 307.367188 C 368.949219 322.820312 304.960938 363.671875 254.703125 343.566406 Z M 417.613281 324.648438 C 412.113281 321.253906 407.476562 317.734375 404.714844 311.632812 C 404.714844 311.632812 414.996094 317.707031 417.429688 319.347656 C 420.015625 321.09375 425.304688 323.351562 426.753906 318.65625 C 427.953125 314.761719 427.289062 308.300781 434.019531 309.550781 C 438.160156 310.320312 440.1875 316.328125 443.828125 318.167969 C 449.5625 321.0625 451.714844 316.542969 448.488281 311.851562 C 446.285156 308.652344 443.890625 303.394531 447.007812 300.050781 C 448.550781 302.199219 447.953125 305.136719 449.324219 307.414062 C 450.667969 309.652344 453.660156 310.910156 456.015625 311.992188 C 459.714844 313.6875 467.894531 314.464844 466.6875 320.609375 C 464.519531 319.292969 461.554688 318.523438 459.1875 319.855469 C 455.261719 322.0625 456.738281 327.25 452.078125 329.425781 C 446.917969 331.828125 444.230469 329.140625 441.289062 325.414062 C 438.40625 321.761719 432.578125 321.691406 431.761719 326.828125 C 431.070312 331.160156 429.113281 336.839844 423.699219 337.253906 C 426.542969 332.980469 420.988281 326.734375 417.613281 324.648438 Z M 377.308594 387.003906 C 377.105469 387.121094 376.90625 387.222656 376.707031 387.339844 C 376.402344 387.511719 376.097656 387.679688 375.792969 387.847656 C 375.289062 388.121094 374.789062 388.386719 374.289062 388.640625 C 373.976562 388.796875 373.667969 388.953125 373.359375 389.101562 C 372.855469 389.34375 372.355469 389.566406 371.855469 389.785156 C 371.554688 389.921875 371.25 390.054688 370.945312 390.183594 C 370.425781 390.398438 369.910156 390.589844 369.390625 390.78125 C 369.113281 390.882812 368.835938 390.992188 368.5625 391.085938 C 367.957031 391.292969 367.359375 391.472656 366.761719 391.644531 C 366.574219 391.699219 366.386719 391.761719 366.203125 391.8125 C 365.421875 392.023438 364.644531 392.199219 363.875 392.347656 C 363.695312 392.378906 363.515625 392.398438 363.335938 392.429688 C 362.75 392.527344 362.167969 392.617188 361.59375 392.675781 C 361.316406 392.707031 361.039062 392.714844 360.761719 392.734375 C 360.289062 392.769531 359.816406 392.800781 359.351562 392.804688 C 359.25 392.808594 359.152344 392.820312 359.050781 392.820312 C 358.789062 392.820312 358.53125 392.796875 358.269531 392.785156 C 357.964844 392.773438 357.65625 392.769531 357.355469 392.746094 C 356.980469 392.71875 356.613281 392.667969 356.242188 392.617188 C 355.953125 392.578125 355.660156 392.546875 355.371094 392.496094 C 354.996094 392.429688 354.628906 392.339844 354.257812 392.253906 C 353.984375 392.1875 353.707031 392.132812 353.441406 392.054688 C 353.0625 391.949219 352.691406 391.816406 352.320312 391.683594 C 352.066406 391.59375 351.808594 391.515625 351.558594 391.417969 C 351.175781 391.261719 350.800781 391.078125 350.425781 390.894531 C 350.199219 390.785156 349.964844 390.6875 349.742188 390.570312 C 349.34375 390.355469 348.953125 390.109375 348.566406 389.867188 C 348.375 389.742188 348.175781 389.636719 347.984375 389.507812 C 347.550781 389.210938 347.128906 388.878906 346.707031 388.539062 C 346.570312 388.429688 346.433594 388.339844 346.296875 388.226562 C 345.746094 387.757812 345.207031 387.253906 344.679688 386.710938 C 344.035156 386.039062 343.402344 385.351562 342.777344 384.65625 C 342.640625 384.503906 342.503906 384.351562 342.367188 384.195312 C 341.113281 382.785156 339.914062 381.332031 338.765625 379.851562 C 338.667969 379.71875 338.566406 379.589844 338.46875 379.460938 C 337.300781 377.933594 336.191406 376.378906 335.144531 374.8125 C 335.089844 374.726562 335.03125 374.644531 334.976562 374.5625 C 333.917969 372.957031 332.921875 371.34375 332.003906 369.730469 C 331.964844 369.664062 331.925781 369.59375 331.886719 369.527344 C 331.433594 368.726562 330.996094 367.929688 330.582031 367.136719 C 330.578125 367.132812 330.578125 367.128906 330.574219 367.121094 C 330.164062 366.339844 329.777344 365.558594 329.40625 364.785156 C 329.335938 364.644531 329.273438 364.503906 329.207031 364.367188 C 328.917969 363.753906 328.640625 363.140625 328.378906 362.535156 C 328.300781 362.359375 328.222656 362.183594 328.144531 362.003906 C 327.894531 361.414062 327.652344 360.824219 327.429688 360.246094 C 327.40625 360.195312 327.394531 360.148438 327.371094 360.097656 C 327.242188 359.761719 327.121094 359.429688 327 359.097656 C 326.921875 358.875 326.832031 358.640625 326.75 358.421875 C 326.707031 358.296875 326.675781 358.179688 326.632812 358.058594 C 326.457031 357.546875 326.296875 357.042969 326.144531 356.542969 C 326.042969 356.203125 325.9375 355.871094 325.84375 355.539062 C 325.714844 355.078125 325.605469 354.632812 325.496094 354.1875 C 325.421875 353.871094 325.335938 353.554688 325.273438 353.246094 C 325.160156 352.726562 325.074219 352.226562 324.992188 351.726562 C 324.957031 351.511719 324.910156 351.292969 324.882812 351.085938 C 324.8125 350.589844 324.769531 350.117188 324.734375 349.644531 C 325.785156 349.304688 326.828125 348.960938 327.863281 348.59375 C 333.441406 346.625 338.78125 344.25 343.945312 341.574219 C 343.324219 342.707031 342.722656 343.882812 342.164062 345.09375 C 341.636719 346.292969 341.117188 347.488281 340.730469 348.871094 C 340.636719 349.242188 340.539062 349.585938 340.472656 350.042969 C 340.433594 350.230469 340.417969 350.550781 340.414062 350.832031 C 340.40625 350.9375 340.421875 351.1875 340.46875 351.433594 C 340.488281 351.554688 340.515625 351.671875 340.546875 351.789062 L 340.582031 351.917969 C 340.824219 352.492188 340.652344 352.085938 340.707031 352.214844 L 340.738281 352.265625 L 340.792969 352.363281 L 340.917969 352.558594 C 341.082031 352.800781 341.28125 353.03125 341.496094 353.226562 C 341.671875 353.363281 341.851562 353.484375 342.023438 353.585938 C 342.117188 353.644531 342.214844 353.703125 342.296875 353.738281 C 342.796875 353.988281 343.195312 354.070312 343.585938 354.160156 C 345.09375 354.445312 346.292969 354.363281 347.449219 354.285156 C 348.59375 354.183594 349.644531 354.015625 350.601562 353.828125 C 351.527344 353.636719 352.363281 353.425781 353.109375 353.21875 C 353.898438 352.996094 354.582031 352.777344 355.136719 352.582031 C 356.210938 352.207031 356.808594 351.925781 356.808594 351.925781 C 356.808594 351.925781 356.15625 351.816406 355.035156 351.691406 C 353.917969 351.558594 352.328125 351.410156 350.464844 351.21875 C 349.53125 351.128906 348.53125 351.027344 347.507812 350.894531 C 346.597656 350.773438 345.613281 350.613281 344.84375 350.371094 C 344.867188 350.296875 344.890625 350.222656 344.914062 350.152344 C 345.28125 349.167969 345.761719 348.046875 346.273438 346.953125 C 347.277344 344.734375 348.339844 342.480469 349.289062 340.335938 C 349.628906 339.570312 349.949219 338.828125 350.261719 338.097656 C 357.105469 334.113281 363.644531 329.625 369.976562 324.828125 C 372.96875 322.5625 375.914062 320.234375 378.828125 317.855469 C 385.117188 316.558594 389.097656 317.535156 391.609375 319.207031 C 389.0625 318.039062 385.570312 317.578125 380.789062 318.695312 C 368.105469 321.664062 368.332031 335.40625 368.332031 335.433594 C 369.519531 331.351562 372.308594 327.867188 375.726562 325.5625 C 377.625 329.066406 381.082031 331.113281 385.0625 332.097656 L 379.523438 333.800781 L 379.539062 333.796875 L 383.144531 333.386719 L 404.976562 330.894531 L 402.886719 330.003906 L 398.261719 328.035156 C 398.261719 328.035156 397.898438 325.65625 396.269531 323.222656 C 394.917969 319.917969 391.109375 314.878906 380.59375 316.402344 C 382.539062 314.796875 384.46875 313.175781 386.386719 311.539062 C 386.714844 311.464844 387.039062 311.398438 387.351562 311.339844 C 390.121094 315.003906 393.785156 318.726562 398.597656 322.253906 C 401.570312 324.433594 406.101562 326.316406 409.316406 328.996094 C 410.960938 330.363281 412.269531 331.933594 412.835938 333.867188 C 413.296875 335.4375 412.292969 336.410156 411.148438 337.402344 C 409.15625 339.125 406.753906 340.902344 410.976562 345.976562 C 411.15625 346.195312 411.359375 346.390625 411.570312 346.578125 C 413.894531 348.652344 417.9375 348.941406 422.316406 347.9375 C 420.144531 350.378906 417.792969 354.019531 416.535156 355.203125 C 415.40625 356.261719 410.164062 357.519531 407.515625 358.105469 C 404.246094 362.699219 400.828125 366.378906 398.257812 369.261719 C 391.789062 376.515625 384.53125 382.769531 377.265625 387.011719 C 377.277344 387.007812 377.292969 387.007812 377.308594 387.003906 Z M 369.660156 398.421875 C 369.703125 402.703125 368.707031 406.503906 366.691406 409.757812 C 365.175781 412.199219 362.054688 413.074219 355.925781 413.734375 C 350.574219 406.523438 344.851562 402.488281 338.539062 401.484375 C 337.246094 398.488281 335.550781 395.265625 333.460938 391.839844 L 339.457031 391.839844 C 344.796875 397.34375 351.390625 400.136719 359.050781 400.136719 C 361.609375 400.136719 364.3125 399.800781 367.089844 399.132812 C 367.933594 398.929688 368.789062 398.691406 369.660156 398.421875 Z M 344.273438 350.117188 C 344.285156 350.125 344.289062 350.136719 344.296875 350.144531 C 344.273438 350.128906 344.234375 350.109375 344.226562 350.097656 C 344.175781 350.074219 344.246094 350.078125 344.273438 350.117188 Z M 388.480469 328.695312 L 388.597656 328.695312 C 390.496094 328.695312 392.199219 327.785156 393.324219 326.394531 C 394 327.136719 394.625 327.992188 395.183594 328.980469 L 390.953125 330.28125 L 389.152344 330.542969 C 384.695312 329.96875 380.671875 327.960938 379.144531 323.746094 C 380.203125 323.324219 381.285156 323.011719 382.371094 322.824219 C 382.414062 323.84375 382.710938 324.804688 383.210938 325.644531 C 383.378906 325.515625 383.582031 325.421875 383.855469 325.421875 L 383.925781 325.421875 C 385.042969 325.421875 385.292969 326.738281 384.699219 327.355469 C 385.746094 328.191406 387.0625 328.695312 388.480469 328.695312 Z M 284.558594 414.347656 C 284.558594 400.914062 304.28125 378.167969 309.460938 372.433594 C 314.640625 378.167969 334.363281 400.90625 334.363281 414.347656 C 334.363281 429.636719 323.191406 442.074219 309.460938 442.074219 C 295.730469 442.074219 284.558594 429.636719 284.558594 414.347656 Z M 301.621094 444.226562 C 304.113281 445.019531 306.742188 445.453125 309.460938 445.453125 C 325.058594 445.453125 337.746094 431.5 337.746094 414.351562 C 337.746094 412.5625 337.433594 410.640625 336.902344 408.648438 C 347.425781 409.546875 352.789062 418.941406 354.21875 421.253906 C 346.324219 433.890625 337.507812 437.816406 330.214844 460.136719 C 330.324219 461.683594 331.117188 463.582031 332.492188 465.648438 C 331.210938 467.855469 330.046875 470.484375 329.078125 473.628906 C 327.726562 478.015625 321.625 482.484375 316.988281 482.484375 C 316.988281 482.484375 316.984375 482.484375 316.984375 482.484375 C 318.496094 474.273438 322.753906 466.921875 324.207031 462.867188 C 319.710938 467.382812 315.496094 473.695312 312.734375 480.457031 C 307.03125 475.785156 296.042969 466.1875 292.832031 463.378906 C 292.824219 463.371094 292.8125 463.359375 292.804688 463.351562 C 292.777344 463.222656 292.75 463.101562 292.722656 462.96875 C 295.820312 455.875 298.785156 449.664062 301.621094 444.226562 Z M 321.394531 522.398438 C 320.785156 521.902344 320.160156 521.421875 319.519531 520.949219 C 319.304688 520.792969 319.082031 520.640625 318.863281 520.484375 C 318.4375 520.183594 318.011719 519.878906 317.578125 519.582031 C 317.234375 519.351562 316.882812 519.128906 316.53125 518.90625 C 316.214844 518.699219 315.898438 518.492188 315.570312 518.289062 C 315.132812 518.015625 314.683594 517.753906 314.234375 517.488281 C 313.996094 517.347656 313.757812 517.207031 313.519531 517.066406 C 312.992188 516.765625 312.460938 516.472656 311.925781 516.183594 C 311.757812 516.089844 311.589844 516 311.421875 515.910156 C 310.820312 515.589844 310.214844 515.277344 309.601562 514.96875 C 309.5 514.917969 309.398438 514.867188 309.296875 514.8125 C 308.625 514.480469 307.949219 514.15625 307.269531 513.835938 C 307.226562 513.816406 307.183594 513.796875 307.140625 513.777344 C 306.417969 513.441406 305.691406 513.113281 304.960938 512.792969 C 285.480469 504.277344 263.070312 501.550781 263.070312 501.550781 L 252.03125 487.820312 C 252.03125 487.820312 252.960938 486.125 255.449219 486.125 C 258.148438 486.125 262.683594 488.117188 269.863281 496.425781 L 274.015625 497.136719 L 277.457031 497.726562 L 260.296875 482.335938 L 252.765625 460.089844 C 252.765625 460.089844 254.414062 459.449219 256.460938 459.449219 C 258.726562 459.449219 261.46875 460.230469 262.992188 463.53125 C 265.894531 469.808594 267.5 477.972656 267.863281 478.523438 L 283.738281 492.015625 L 286.328125 489.589844 L 269.859375 476.421875 L 262.15625 447.585938 C 262.15625 447.585938 262.664062 447.328125 263.507812 447.328125 C 266.15625 447.328125 272.097656 449.867188 275.992188 470.832031 L 290.976562 484.953125 L 293.324219 481.949219 L 279.90625 468.234375 L 276.4375 445.007812 C 276.4375 445.007812 277.449219 444.070312 278.984375 444.070312 C 281.796875 444.070312 286.375 447.226562 289.699219 465.128906 C 289.699219 465.128906 306.136719 479.558594 312.089844 484.289062 C 313.46875 485.382812 315.164062 485.867188 316.988281 485.867188 C 323.039062 485.867188 330.488281 480.542969 332.308594 474.625 C 336.972656 459.488281 346.355469 457.871094 350.152344 457.871094 C 351.1875 457.871094 351.808594 457.988281 351.808594 457.988281 C 351.808594 457.988281 343.851562 473.046875 342.066406 487.175781 C 341.015625 495.523438 342.117188 503.542969 348.285156 507.945312 L 355.277344 510.996094 L 355.253906 511.027344 L 356.285156 511.4375 L 373.671875 519.023438 L 374.097656 524.308594 L 378.589844 580.285156 L 361.957031 564.984375 L 361.941406 564.96875 C 345.78125 547.46875 330.246094 529.574219 321.394531 522.398438 Z M 346.832031 480.371094 C 354.566406 484.785156 364.199219 488 374.652344 488 C 381.71875 488 388.597656 486.496094 395.179688 483.582031 C 394.257812 486.523438 393.410156 489.285156 392.640625 491.78125 C 391.382812 495.867188 390.324219 499.308594 389.625 501.316406 C 386.40625 500.164062 380.898438 498.679688 375.636719 498.679688 C 372.445312 498.679688 369.734375 499.226562 367.574219 500.304688 C 362.328125 502.921875 358.871094 506.476562 357.371094 508.222656 L 349.988281 505 C 345.894531 501.886719 344.359375 496.03125 345.425781 487.59375 C 345.726562 485.195312 346.222656 482.757812 346.832031 480.371094 Z M 448.402344 407.203125 C 451.332031 407.203125 454.488281 407.457031 457.734375 408.859375 C 477.746094 417.519531 485.636719 426.898438 489.253906 434.832031 C 513.492188 492.246094 473.46875 581.175781 445.28125 613.820312 C 429.132812 632.519531 409.761719 630.140625 397.359375 622.824219 C 392.820312 620.140625 376.601562 611.050781 360.539062 568.269531 L 382.652344 588.609375 L 376.820312 515.929688 L 360.722656 509.558594 C 362.308594 507.882812 365.152344 505.285156 369.085938 503.324219 C 370.769531 502.480469 372.972656 502.054688 375.636719 502.054688 C 381.402344 502.054688 387.507812 504.015625 389.929688 505.054688 L 391.449219 505.703125 L 392.136719 504.199219 C 392.816406 502.707031 394.03125 498.753906 395.875 492.773438 C 401.742188 473.710938 413.953125 434.046875 426.808594 419.070312 C 434.164062 410.867188 440.824219 407.203125 448.402344 407.203125 Z M 432.351562 409.367188 C 429.679688 411.3125 427.011719 413.785156 424.265625 416.847656 C 421.191406 420.425781 418.195312 425.242188 415.328125 430.773438 C 414.285156 430.894531 413.242188 431.019531 412.199219 431.140625 C 410.484375 431.332031 408.78125 431.609375 407.070312 431.835938 C 405.363281 432.066406 403.660156 432.328125 401.957031 432.605469 C 400.253906 432.886719 398.550781 433.164062 396.859375 433.488281 C 395.164062 433.816406 393.464844 434.101562 391.773438 434.464844 L 391.179688 434.589844 L 390.917969 434.953125 L 388.722656 437.992188 L 386.589844 441.082031 C 385.207031 443.164062 383.820312 445.242188 382.558594 447.425781 C 382.554688 447.429688 382.554688 447.433594 382.550781 447.441406 C 384.433594 445.753906 386.183594 443.964844 387.941406 442.175781 L 390.523438 439.453125 L 392.644531 437.117188 C 394.210938 436.964844 395.769531 436.761719 397.332031 436.585938 C 399.046875 436.394531 400.753906 436.148438 402.464844 435.910156 C 404.171875 435.667969 405.875 435.410156 407.574219 435.121094 C 409.273438 434.832031 410.980469 434.589844 412.675781 434.261719 C 413.007812 434.199219 413.335938 434.140625 413.664062 434.078125 C 412.339844 436.796875 411.046875 439.65625 409.789062 442.601562 C 404.679688 454.558594 400.148438 467.933594 396.539062 479.269531 C 389.613281 482.816406 382.304688 484.625 374.652344 484.625 C 368.441406 484.625 362.539062 483.371094 357.207031 481.410156 L 363.828125 469.578125 C 363.828125 469.578125 353.78125 474.066406 350.574219 478.476562 C 349.617188 477.980469 348.6875 477.464844 347.792969 476.933594 C 350.644531 467.507812 354.746094 459.667969 354.800781 459.5625 L 356.925781 455.535156 L 352.449219 454.671875 C 352.292969 454.640625 351.445312 454.488281 350.152344 454.488281 C 348.613281 454.488281 346.320312 454.703125 343.753906 455.648438 C 340.441406 456.863281 336.675781 459.304688 333.476562 464.074219 C 332.613281 462.671875 332.078125 461.390625 331.933594 460.320312 C 336.714844 445.839844 342.230469 439.253906 347.566406 432.878906 C 350.242188 429.683594 353.011719 426.378906 355.652344 422.148438 L 356.207031 421.261719 L 356.085938 421.0625 C 362.367188 420.4375 367.964844 419.429688 371.566406 415.394531 C 371.785156 415.148438 371.996094 414.890625 372.203125 414.625 C 372.347656 414.4375 372.484375 414.238281 372.617188 414.039062 C 372.71875 413.894531 372.828125 413.757812 372.925781 413.601562 C 373.019531 413.453125 373.097656 413.304688 373.183594 413.15625 C 373.359375 412.863281 373.535156 412.570312 373.695312 412.273438 C 373.867188 411.953125 374.023438 411.632812 374.179688 411.3125 C 374.1875 411.296875 374.195312 411.28125 374.203125 411.265625 C 374.25 411.167969 374.304688 411.066406 374.355469 410.964844 C 374.535156 410.574219 374.707031 410.179688 374.871094 409.789062 C 374.886719 409.746094 374.90625 409.707031 374.925781 409.664062 C 375.085938 409.265625 375.238281 408.863281 375.378906 408.464844 C 375.390625 408.421875 375.40625 408.382812 375.421875 408.34375 C 375.550781 407.96875 375.667969 407.597656 375.78125 407.222656 C 375.800781 407.164062 375.816406 407.105469 375.835938 407.046875 C 375.941406 406.675781 376.042969 406.304688 376.132812 405.9375 C 376.148438 405.882812 376.160156 405.828125 376.171875 405.773438 C 376.265625 405.394531 376.347656 405.011719 376.421875 404.632812 C 376.429688 404.605469 376.433594 404.578125 376.4375 404.554688 C 377.003906 401.660156 377.09375 398.8125 376.90625 396.160156 C 376.90625 396.148438 376.90625 396.140625 376.90625 396.128906 C 376.878906 395.753906 376.847656 395.382812 376.808594 395.019531 C 376.808594 395.011719 376.808594 395.003906 376.808594 394.996094 C 376.679688 393.753906 376.496094 392.566406 376.277344 391.4375 C 384.359375 387.273438 392.773438 380.496094 400.785156 371.507812 L 401.6875 370.5 C 403.359375 368.636719 405.304688 366.460938 407.308594 363.957031 C 408.039062 363.050781 408.769531 362.109375 409.503906 361.113281 C 409.703125 361.066406 409.882812 361.023438 410.074219 360.976562 C 410.226562 360.941406 410.378906 360.90625 410.523438 360.871094 C 410.625 371.84375 411.191406 385.945312 414.417969 399.65625 C 414.515625 400.074219 414.628906 400.453125 414.746094 400.835938 C 414.855469 401.164062 414.96875 401.480469 415.085938 401.789062 C 417.757812 408.671875 424.082031 408.300781 432.351562 409.367188 Z M 489.84375 366.921875 C 473.304688 377.019531 470.964844 364.691406 467.183594 364.824219 C 457.675781 365.160156 454.035156 376.789062 443.332031 372.210938 C 439.910156 370.746094 438.515625 368.066406 434.40625 369.179688 C 430.0625 370.355469 423.695312 374.203125 425.949219 379.832031 C 412.921875 374.5 421.066406 362.851562 426.421875 354.972656 C 426.421875 354.972656 423.441406 371.914062 433.65625 361.070312 C 440.609375 353.6875 445.015625 366.191406 451.132812 364.679688 C 458.691406 362.816406 463.726562 344.503906 470.753906 354.050781 C 473.25 357.4375 476.042969 362.308594 479.882812 364.667969 C 482.75 366.429688 486.625 366.46875 489.84375 366.921875 Z M 478.410156 320.335938 C 472.835938 306.222656 460.734375 313.972656 456.300781 303.472656 C 451.550781 292.214844 457.429688 282.503906 452.074219 275.046875 C 451.328125 274.007812 450.539062 273.019531 449.707031 272.078125 C 453.710938 270.765625 457.789062 269.667969 461.945312 268.832031 C 487.0625 263.785156 509.082031 274.28125 525.019531 293.648438 C 526.359375 295.277344 527.105469 296.125 527.496094 296.492188 C 527.703125 305.335938 524 311.761719 520.285156 314.023438 C 508.414062 321.238281 492.296875 323.832031 478.410156 320.335938 Z M 380.371094 349.632812 C 380.371094 349.632812 380.210938 349.703125 379.90625 349.835938 C 379.609375 349.980469 379.207031 350.242188 378.757812 350.625 C 377.855469 351.402344 376.871094 352.785156 375.757812 354.550781 C 375.199219 355.433594 374.613281 356.421875 373.925781 357.441406 C 373.25 358.464844 372.511719 359.5625 371.613281 360.628906 C 371.457031 360.820312 371.292969 361.007812 371.125 361.195312 C 371.027344 361.304688 370.929688 361.414062 370.828125 361.527344 C 370.125 362.289062 369.34375 363.027344 368.441406 363.699219 C 367.179688 364.632812 365.863281 365.285156 364.546875 365.949219 C 361.871094 367.214844 359.015625 368.085938 356.296875 368.542969 C 354.9375 368.785156 353.609375 368.890625 352.359375 368.949219 C 351.105469 369.019531 349.921875 368.984375 348.835938 368.914062 C 348.625 368.898438 348.4375 368.878906 348.234375 368.867188 C 347.910156 368.84375 347.582031 368.820312 347.28125 368.789062 C 346.792969 368.71875 346.328125 368.652344 345.894531 368.589844 C 345.023438 368.472656 344.269531 368.28125 343.65625 368.160156 C 342.441406 367.855469 341.753906 367.636719 341.753906 367.636719 C 341.753906 367.636719 342.472656 367.5625 343.71875 367.492188 C 344.332031 367.441406 345.078125 367.375 345.933594 367.300781 C 346.523438 367.246094 347.175781 367.171875 347.855469 367.089844 C 348.160156 367.054688 348.453125 367.019531 348.773438 366.980469 C 349.804688 366.839844 350.910156 366.652344 352.070312 366.453125 C 353.230469 366.230469 354.433594 365.945312 355.664062 365.621094 C 358.125 364.964844 360.667969 364.058594 363.09375 362.898438 C 364.308594 362.308594 365.53125 361.699219 366.542969 361.03125 C 367.261719 360.539062 367.941406 359.960938 368.597656 359.359375 C 368.867188 359.113281 369.140625 358.875 369.398438 358.621094 C 371.1875 356.851562 372.722656 354.917969 374.230469 353.359375 C 375.695312 351.777344 377.1875 350.574219 378.398438 350.058594 C 379 349.78125 379.511719 349.695312 379.851562 349.652344 C 380.195312 349.625 380.371094 349.632812 380.371094 349.632812 Z M 397.449219 336.464844 L 392.25 333.375 L 395.722656 332.980469 Z M 401.867188 336.082031 L 396.667969 332.996094 L 400.136719 332.597656 Z M 427.40625 527.464844 C 428.386719 528.871094 429.457031 530.261719 430.351562 531.789062 C 430.816406 532.542969 431.285156 533.296875 431.753906 534.0625 C 432.175781 534.847656 432.601562 535.640625 433.027344 536.4375 C 433.90625 538.015625 434.625 539.6875 435.382812 541.351562 C 436.078125 543.039062 436.734375 544.75 437.359375 546.472656 C 438.480469 549.957031 439.46875 553.484375 440.082031 557.015625 C 440.394531 558.78125 440.734375 560.527344 440.871094 562.273438 C 441.042969 564.015625 441.292969 565.730469 441.308594 567.425781 C 441.34375 569.121094 441.507812 570.78125 441.433594 572.410156 C 441.382812 574.03125 441.335938 575.617188 441.289062 577.164062 C 440.996094 580.238281 440.800781 583.136719 440.300781 585.773438 C 440.070312 587.089844 439.855469 588.351562 439.644531 589.554688 C 439.367188 590.738281 439.101562 591.859375 438.855469 592.917969 C 438.589844 593.964844 438.363281 594.949219 438.113281 595.851562 C 437.863281 596.753906 437.574219 597.570312 437.347656 598.308594 C 436.890625 599.792969 436.460938 600.9375 436.199219 601.722656 C 435.917969 602.5 435.765625 602.917969 435.765625 602.917969 C 435.765625 602.917969 435.761719 602.472656 435.753906 601.640625 C 435.765625 600.8125 435.742188 599.589844 435.796875 598.0625 C 435.8125 597.296875 435.859375 596.453125 435.847656 595.527344 C 435.820312 594.601562 435.835938 593.609375 435.828125 592.550781 C 435.832031 591.492188 435.839844 590.371094 435.84375 589.1875 C 435.808594 588.007812 435.773438 586.765625 435.734375 585.472656 C 435.707031 584.183594 435.707031 582.84375 435.585938 581.464844 C 435.507812 580.085938 435.429688 578.660156 435.347656 577.195312 C 435.210938 575.742188 435.066406 574.25 434.921875 572.726562 C 434.792969 571.203125 434.53125 569.664062 434.339844 568.097656 C 433.453125 561.84375 432.023438 555.300781 429.890625 549.011719 C 429.34375 547.445312 428.773438 545.886719 428.164062 544.351562 C 427.480469 542.851562 426.941406 541.289062 426.1875 539.839844 C 424.84375 536.863281 423.21875 534.089844 421.644531 531.394531 C 419.960938 528.769531 418.285156 526.238281 416.492188 523.976562 C 414.722656 521.703125 412.957031 519.59375 411.203125 517.746094 C 410.160156 516.621094 409.140625 515.585938 408.152344 514.621094 C 405.859375 512.386719 403.765625 510.585938 402.117188 509.238281 C 399.742188 507.328125 398.261719 506.335938 398.261719 506.335938 C 398.261719 506.335938 398.699219 506.421875 399.5 506.664062 C 400.289062 506.925781 401.480469 507.273438 402.910156 507.898438 C 404.351562 508.503906 406.101562 509.277344 408.007812 510.355469 C 409.933594 511.410156 412.035156 512.730469 414.21875 514.34375 C 414.382812 514.460938 414.550781 514.597656 414.714844 514.71875 C 416.757812 516.238281 418.832031 518.019531 420.910156 520.039062 C 423.160156 522.21875 425.3125 524.742188 427.40625 527.464844 Z M 357.445312 345.757812 C 357.066406 344.925781 356.808594 344.371094 356.808594 344.371094 C 356.808594 344.371094 356.976562 344.269531 357.269531 344.191406 C 357.5625 344.113281 357.984375 344.050781 358.46875 344.101562 C 358.957031 344.148438 359.5 344.324219 360.019531 344.628906 C 360.273438 344.789062 360.535156 344.96875 360.757812 345.195312 C 360.996094 345.40625 361.191406 345.671875 361.378906 345.9375 C 361.566406 346.203125 361.695312 346.503906 361.820312 346.796875 C 361.945312 347.089844 361.996094 347.40625 362.054688 347.699219 C 362.125 348.296875 362.082031 348.859375 361.925781 349.320312 C 361.796875 349.785156 361.558594 350.144531 361.382812 350.382812 C 361.207031 350.621094 361.0625 350.746094 361.0625 350.746094 C 361.0625 350.746094 360.910156 350.617188 360.710938 350.410156 C 360.613281 350.304688 360.484375 350.1875 360.378906 350.050781 C 360.273438 349.914062 360.113281 349.777344 359.988281 349.628906 C 359.851562 349.484375 359.75 349.320312 359.601562 349.171875 C 359.464844 349.023438 359.351562 348.863281 359.230469 348.710938 C 359.097656 348.5625 358.992188 348.40625 358.882812 348.253906 C 358.75 348.113281 358.683594 347.9375 358.558594 347.792969 C 358.160156 347.183594 357.789062 346.46875 357.445312 345.757812 Z M 366.597656 378.820312 C 366.597656 378.820312 366.351562 378.910156 365.964844 379.007812 C 365.773438 379.054688 365.542969 379.121094 365.296875 379.160156 C 365.042969 379.21875 364.761719 379.3125 364.46875 379.371094 C 364.179688 379.421875 363.871094 379.5 363.550781 379.585938 C 363.234375 379.65625 362.90625 379.71875 362.570312 379.8125 C 362.234375 379.882812 361.894531 379.960938 361.546875 380.046875 C 361.199219 380.121094 360.851562 380.195312 360.5 380.289062 C 360.144531 380.34375 359.796875 380.460938 359.4375 380.519531 C 359.085938 380.601562 358.734375 380.679688 358.386719 380.746094 C 357.695312 380.898438 357.015625 381.011719 356.410156 381.117188 C 356.1875 381.148438 355.988281 381.175781 355.789062 381.203125 C 355.4375 381.25 355.117188 381.292969 354.863281 381.320312 C 354.46875 381.359375 354.214844 381.375 354.214844 381.375 C 354.214844 381.375 354.285156 381.128906 354.480469 380.769531 C 354.671875 380.402344 354.996094 379.917969 355.457031 379.414062 C 356.375 378.40625 357.941406 377.394531 359.742188 376.996094 C 360.632812 376.792969 361.566406 376.722656 362.429688 376.820312 C 362.863281 376.84375 363.277344 376.9375 363.664062 377.046875 C 363.960938 377.121094 364.21875 377.230469 364.476562 377.34375 C 364.554688 377.375 364.644531 377.394531 364.71875 377.429688 C 365.351562 377.71875 365.828125 378.070312 366.132812 378.359375 C 366.445312 378.632812 366.597656 378.820312 366.597656 378.820312 Z M 366.597656 378.820312 " fill-opacity="1" fill-rule="nonzero"/><path fill="#000000" d="M 409.789062 442.601562 C 394.605469 442.804688 380.621094 449.816406 380.621094 449.816406 L 382.558594 447.425781 C 382.558594 447.433594 382.554688 447.4375 382.550781 447.441406 C 384.433594 445.753906 386.1875 443.964844 387.941406 442.175781 L 390.527344 439.453125 L 392.644531 437.121094 C 394.210938 436.964844 395.769531 436.761719 397.335938 436.585938 C 399.050781 436.394531 400.753906 436.148438 402.464844 435.914062 C 404.171875 435.667969 405.875 435.410156 407.578125 435.125 C 409.277344 434.832031 410.984375 434.589844 412.675781 434.261719 C 413.007812 434.199219 413.335938 434.140625 413.667969 434.078125 C 412.339844 436.796875 411.046875 439.65625 409.789062 442.601562 Z M 414.613281 402.222656 C 409.5625 406.882812 379.117188 434.09375 379.117188 434.09375 C 379.117188 434.09375 376.949219 428.867188 374.914062 423.878906 C 374.46875 424.394531 374.03125 424.921875 373.609375 425.457031 C 369.144531 431.140625 373.039062 450.09375 373.039062 450.09375 C 373.039062 450.09375 357.738281 443.808594 351.828125 446.925781 C 348.195312 448.84375 345.625 452.074219 343.757812 455.644531 C 340.441406 456.863281 336.675781 459.300781 333.476562 464.070312 C 332.613281 462.671875 332.078125 461.390625 331.933594 460.320312 C 336.714844 445.839844 342.230469 439.253906 347.566406 432.878906 C 350.242188 429.683594 353.011719 426.375 355.652344 422.148438 L 356.207031 421.257812 L 356.085938 421.0625 C 362.371094 420.4375 367.964844 419.429688 371.566406 415.394531 C 371.785156 415.148438 371.996094 414.890625 372.203125 414.625 C 372.207031 414.625 372.207031 414.621094 372.207031 414.621094 C 372.351562 414.433594 372.480469 414.230469 372.617188 414.039062 C 372.722656 413.890625 372.832031 413.753906 372.925781 413.601562 C 373.019531 413.453125 373.097656 413.300781 373.183594 413.152344 C 373.359375 412.859375 373.53125 412.566406 373.695312 412.273438 C 373.695312 412.273438 373.695312 412.273438 373.695312 412.269531 C 373.867188 411.953125 374.023438 411.632812 374.179688 411.308594 C 374.1875 411.296875 374.195312 411.28125 374.203125 411.265625 C 374.253906 411.167969 374.304688 411.070312 374.351562 410.972656 C 374.351562 410.972656 374.351562 410.964844 374.355469 410.964844 C 374.535156 410.570312 374.707031 410.179688 374.871094 409.785156 C 374.878906 409.765625 374.890625 409.742188 374.898438 409.722656 C 374.902344 409.710938 374.910156 409.695312 374.914062 409.683594 C 374.917969 409.675781 374.921875 409.667969 374.925781 409.660156 C 375.085938 409.261719 375.238281 408.859375 375.378906 408.460938 C 375.386719 408.429688 375.398438 408.402344 375.410156 408.371094 C 375.414062 408.363281 375.417969 408.351562 375.421875 408.339844 C 375.550781 407.964844 375.667969 407.59375 375.78125 407.222656 C 375.800781 407.160156 375.816406 407.101562 375.835938 407.042969 C 375.941406 406.671875 376.042969 406.300781 376.132812 405.933594 C 376.148438 405.878906 376.160156 405.824219 376.171875 405.769531 C 376.265625 405.390625 376.347656 405.007812 376.421875 404.628906 C 376.429688 404.601562 376.433594 404.578125 376.4375 404.550781 C 377.003906 401.65625 377.09375 398.8125 376.90625 396.15625 C 376.90625 396.144531 376.90625 396.136719 376.90625 396.125 C 376.878906 395.753906 376.847656 395.382812 376.808594 395.015625 C 376.808594 395.007812 376.808594 395 376.808594 394.992188 C 376.679688 393.75 376.496094 392.5625 376.273438 391.433594 C 384.359375 387.273438 392.773438 380.492188 400.785156 371.503906 L 401.6875 370.496094 C 403.359375 368.632812 405.304688 366.457031 407.308594 363.953125 C 408.039062 363.050781 408.769531 362.105469 409.503906 361.109375 C 409.703125 361.0625 409.882812 361.019531 410.074219 360.972656 C 410.226562 360.9375 410.378906 360.902344 410.523438 360.867188 C 410.625 371.839844 411.1875 385.945312 414.417969 399.652344 C 414.515625 400.070312 414.628906 400.457031 414.746094 400.832031 C 414.855469 401.160156 414.96875 401.480469 415.085938 401.785156 C 414.929688 401.933594 414.773438 402.078125 414.613281 402.222656 Z M 396.785156 387.898438 C 396.785156 387.898438 394.324219 393.152344 381.960938 396.625 L 380.621094 421.484375 Z M 347.867188 360.695312 C 348.972656 359.953125 350.1875 359.449219 351.460938 359.09375 C 352.1875 356.636719 352.820312 354.292969 353.109375 353.214844 C 352.363281 353.425781 351.527344 353.632812 350.601562 353.824219 C 349.644531 354.011719 348.59375 354.179688 347.449219 354.28125 C 346.292969 354.359375 345.09375 354.445312 343.585938 354.15625 C 343.195312 354.066406 342.796875 353.988281 342.296875 353.734375 C 342.214844 353.699219 342.117188 353.640625 342.023438 353.582031 C 339.128906 357.65625 334.378906 360.320312 328.992188 360.320312 C 328.464844 360.320312 327.949219 360.296875 327.429688 360.238281 C 327.660156 360.824219 327.890625 361.40625 328.144531 362 C 328.21875 362.175781 328.300781 362.355469 328.375 362.53125 C 328.640625 363.136719 328.914062 363.75 329.207031 364.363281 C 329.273438 364.5 329.335938 364.640625 329.402344 364.78125 C 329.773438 365.554688 330.160156 366.335938 330.574219 367.117188 C 330.574219 367.125 330.578125 367.128906 330.578125 367.132812 C 330.996094 367.925781 331.429688 368.722656 331.882812 369.523438 C 331.921875 369.589844 331.960938 369.65625 332 369.726562 C 332.921875 371.335938 333.914062 372.953125 334.976562 374.554688 C 335.03125 374.640625 335.085938 374.722656 335.140625 374.808594 C 336.1875 376.375 337.296875 377.929688 338.464844 379.457031 C 338.566406 379.585938 338.664062 379.714844 338.765625 379.84375 C 339.910156 381.328125 341.113281 382.78125 342.363281 384.191406 C 342.5 384.347656 342.636719 384.5 342.773438 384.652344 C 343.398438 385.347656 344.03125 386.035156 344.679688 386.707031 C 345.207031 387.25 345.746094 387.753906 346.296875 388.222656 C 346.429688 388.335938 346.570312 388.425781 346.703125 388.535156 C 347.125 388.875 347.546875 389.207031 347.984375 389.503906 C 348.171875 389.632812 348.371094 389.738281 348.566406 389.859375 C 348.953125 390.105469 349.339844 390.351562 349.738281 390.566406 C 349.960938 390.683594 350.195312 390.78125 350.421875 390.890625 C 350.800781 391.074219 351.175781 391.257812 351.558594 391.414062 C 351.808594 391.511719 352.0625 391.589844 352.316406 391.679688 C 352.6875 391.808594 353.058594 391.945312 353.4375 392.050781 C 353.707031 392.128906 353.984375 392.183594 354.253906 392.25 C 354.625 392.335938 354.996094 392.425781 355.371094 392.492188 C 355.660156 392.542969 355.953125 392.574219 356.242188 392.613281 C 356.609375 392.664062 356.980469 392.710938 357.351562 392.742188 C 357.65625 392.765625 357.960938 392.769531 358.265625 392.78125 C 358.625 392.792969 358.984375 392.804688 359.347656 392.800781 C 359.816406 392.796875 360.289062 392.765625 360.761719 392.730469 C 361.039062 392.710938 361.3125 392.703125 361.589844 392.671875 C 362.167969 392.613281 362.75 392.523438 363.332031 392.425781 C 363.511719 392.394531 363.691406 392.378906 363.875 392.34375 C 364.644531 392.195312 365.417969 392.019531 366.199219 391.808594 C 366.386719 391.757812 366.574219 391.695312 366.761719 391.640625 C 367.355469 391.46875 367.957031 391.289062 368.558594 391.082031 C 368.835938 390.988281 369.113281 390.878906 369.386719 390.777344 C 369.90625 390.585938 370.425781 390.394531 370.945312 390.175781 C 371.25 390.050781 371.550781 389.914062 371.855469 389.78125 C 372.355469 389.5625 372.855469 389.335938 373.355469 389.097656 C 373.664062 388.949219 373.976562 388.792969 374.285156 388.636719 C 374.789062 388.382812 375.289062 388.117188 375.789062 387.84375 C 376.09375 387.675781 376.402344 387.507812 376.707031 387.335938 C 376.90625 387.222656 377.105469 387.117188 377.304688 387 C 377.289062 387.003906 377.277344 387.003906 377.261719 387.003906 C 360.453125 388.882812 356.617188 383.261719 355.785156 381.199219 C 355.4375 381.246094 355.113281 381.289062 354.863281 381.316406 C 354.464844 381.355469 354.214844 381.371094 354.214844 381.371094 C 354.214844 381.371094 354.28125 381.125 354.480469 380.765625 C 354.671875 380.398438 354.996094 379.914062 355.457031 379.410156 C 356.375 378.402344 357.9375 377.390625 359.738281 376.992188 C 360.628906 376.789062 361.5625 376.71875 362.429688 376.816406 C 362.859375 376.839844 363.273438 376.933594 363.660156 377.039062 C 363.957031 377.113281 364.21875 377.226562 364.476562 377.339844 C 368.445312 374.714844 372.042969 369.917969 371.121094 361.1875 C 371.023438 361.300781 370.925781 361.410156 370.824219 361.519531 C 366.390625 374.609375 351.851562 376.246094 350.121094 375.324219 C 347.445312 373.898438 347.855469 370.484375 348.230469 368.859375 C 347.910156 368.835938 347.582031 368.816406 347.28125 368.78125 C 346.789062 368.710938 346.328125 368.648438 345.890625 368.582031 C 345.019531 368.464844 344.265625 368.277344 343.652344 368.15625 C 342.441406 367.847656 341.75 367.632812 341.75 367.632812 C 341.75 367.632812 342.46875 367.554688 343.71875 367.488281 C 344.332031 367.433594 345.074219 367.371094 345.933594 367.296875 C 346.523438 367.242188 347.175781 367.164062 347.855469 367.085938 C 346.875 365.558594 345.324219 362.40625 347.867188 360.695312 Z M 324.734375 349.644531 C 324.773438 350.117188 324.8125 350.585938 324.882812 351.082031 C 324.8125 350.585938 324.777344 350.117188 324.738281 349.644531 C 324.734375 349.644531 324.734375 349.644531 324.734375 349.644531 Z M 396.269531 323.222656 C 397.898438 325.65625 398.261719 328.035156 398.261719 328.035156 L 402.886719 330.003906 L 405.246094 329.632812 L 409.316406 328.992188 C 406.097656 326.316406 401.570312 324.429688 398.597656 322.253906 C 393.78125 318.726562 390.117188 315.003906 387.351562 311.339844 C 387.035156 311.398438 386.714844 311.464844 386.386719 311.539062 C 384.464844 313.171875 382.535156 314.792969 380.589844 316.398438 C 391.109375 314.878906 394.917969 319.914062 396.269531 323.222656 Z M 369.976562 324.824219 C 368.070312 331.117188 368.332031 335.429688 368.332031 335.433594 C 368.332031 335.402344 368.101562 321.664062 380.785156 318.695312 C 385.570312 317.574219 389.0625 318.035156 391.609375 319.207031 C 389.097656 317.535156 385.117188 316.554688 378.828125 317.855469 C 375.914062 320.230469 372.964844 322.558594 369.976562 324.824219 Z M 418.289062 208.917969 C 419.304688 213.226562 420.40625 217.511719 421.363281 221.832031 C 422.203125 225.609375 423.117188 229.347656 422.160156 233.195312 C 419.769531 242.785156 412.246094 250.996094 405.011719 257.347656 C 399.230469 262.421875 392.453125 267.476562 385.085938 271.875 C 383.113281 275.898438 380.855469 279.785156 378.40625 283.503906 C 370.640625 295.285156 361.105469 305.933594 350.507812 315.25 C 331.738281 331.753906 308.886719 344.289062 284.050781 348.566406 C 282.609375 348.816406 281.164062 349.03125 279.714844 349.21875 C 275.347656 349.777344 270.941406 350.046875 266.5625 350 C 325.375 363.128906 368.949219 322.820312 386.945312 307.363281 C 388.542969 305.988281 390.144531 304.640625 391.746094 303.320312 C 395.75 300.019531 399.765625 296.882812 403.777344 293.9375 C 404.578125 293.347656 405.382812 292.765625 406.183594 292.191406 C 440.683594 267.476562 474.972656 256.746094 503.214844 271.261719 C 511.753906 275.648438 519.738281 282.34375 527.011719 291.65625 C 524.382812 259.355469 479.800781 219.984375 418.289062 208.917969 Z M 415.945312 214.753906 C 416.15625 214.570312 416.40625 214.449219 416.671875 214.386719 C 412.992188 199.371094 408.96875 181.503906 418.167969 173.140625 C 430.800781 161.65625 440.542969 168.8125 456.65625 159.679688 C 458.75 158.492188 460.492188 157.03125 461.921875 155.386719 C 460.097656 156.050781 458.195312 156.578125 456.203125 156.972656 C 455.425781 157.125 454.632812 157.265625 453.828125 157.375 C 442.175781 158.96875 430.414062 156.480469 418.734375 157.425781 C 407.527344 158.335938 397.160156 162.730469 390.460938 172.046875 C 383.023438 182.386719 380.226562 195.335938 377.441406 207.535156 C 374.34375 221.089844 370.574219 235.042969 362.742188 246.734375 C 361.90625 247.980469 361.007812 249.210938 360.070312 250.421875 C 368.609375 247.449219 376.445312 243.230469 382.53125 239.671875 C 393.519531 233.253906 414.433594 216.078125 415.945312 214.753906 Z M 367.007812 277.09375 C 396.605469 265.914062 422.023438 241.183594 419.648438 227.5 C 419.0625 224.125 418.097656 220.199219 417.070312 216.015625 C 416.710938 216.34375 395.070312 234.304688 383.386719 241.128906 C 377.65625 244.476562 371.394531 247.785156 364.851562 250.425781 C 365.722656 250.628906 366.585938 250.882812 367.417969 251.195312 C 371.117188 252.578125 374.222656 255.085938 374.824219 259.355469 C 375.566406 264.621094 373.089844 269.964844 369.671875 274.191406 C 368.828125 275.230469 367.933594 276.207031 367.007812 277.09375 Z M 312.734375 480.457031 C 315.496094 473.695312 319.710938 467.382812 324.207031 462.863281 C 322.753906 466.921875 318.496094 474.273438 316.984375 482.484375 C 316.984375 482.484375 316.988281 482.484375 316.988281 482.484375 C 321.625 482.484375 327.726562 478.011719 329.078125 473.625 C 330.042969 470.480469 331.210938 467.851562 332.492188 465.648438 C 331.117188 463.582031 330.324219 461.679688 330.214844 460.132812 C 337.507812 437.8125 346.324219 433.886719 354.21875 421.253906 C 352.789062 418.9375 351.074219 416.4375 349.0625 414.179688 C 348.78125 414.707031 348.480469 415.230469 348.1875 415.757812 C 344.007812 423.296875 338.921875 430.351562 333.027344 436.648438 C 321.980469 448.453125 308.214844 458.179688 292.832031 463.378906 C 296.042969 466.1875 307.03125 475.78125 312.734375 480.457031 Z M 365.355469 528.132812 C 353.785156 532.03125 342.914062 527.148438 332.539062 522.171875 C 323.511719 517.847656 314.816406 513.871094 304.957031 512.789062 C 304.957031 512.789062 304.957031 512.789062 304.960938 512.789062 C 305.691406 513.109375 306.421875 513.441406 307.140625 513.777344 C 307.183594 513.796875 307.226562 513.816406 307.269531 513.835938 C 307.949219 514.152344 308.625 514.480469 309.296875 514.8125 C 309.398438 514.863281 309.5 514.914062 309.601562 514.964844 C 310.214844 515.273438 310.820312 515.585938 311.421875 515.90625 C 311.589844 515.996094 311.757812 516.089844 311.925781 516.179688 C 312.460938 516.46875 312.992188 516.765625 313.519531 517.066406 C 313.757812 517.203125 313.996094 517.34375 314.234375 517.484375 C 314.683594 517.75 315.132812 518.015625 315.570312 518.289062 C 315.898438 518.488281 316.210938 518.699219 316.53125 518.902344 C 316.882812 519.128906 317.234375 519.351562 317.578125 519.582031 C 318.011719 519.875 318.4375 520.179688 318.863281 520.484375 C 319.082031 520.636719 319.304688 520.789062 319.519531 520.949219 C 320.160156 521.417969 320.789062 521.902344 321.398438 522.394531 C 330.25 529.574219 345.789062 547.476562 361.960938 564.980469 L 378.589844 580.28125 L 374.097656 524.304688 C 371.238281 525.691406 368.324219 527.132812 365.355469 528.132812 Z M 471.457031 414.054688 C 472.371094 415.382812 473.21875 416.75 474.027344 418.140625 C 481.726562 431.316406 484.648438 446.96875 481.054688 462.507812 C 478.34375 474.238281 472.34375 486.621094 463.546875 495.039062 C 454.679688 503.527344 463.980469 565.851562 450.273438 541.441406 C 438.605469 520.648438 423.433594 515.71875 414.714844 514.71875 C 416.757812 516.238281 418.832031 518.023438 420.90625 520.039062 C 423.160156 522.21875 425.3125 524.742188 427.40625 527.464844 C 428.382812 528.871094 429.457031 530.261719 430.347656 531.789062 C 430.816406 532.539062 431.28125 533.296875 431.753906 534.058594 C 432.175781 534.847656 432.601562 535.640625 433.027344 536.4375 C 433.90625 538.015625 434.625 539.6875 435.382812 541.351562 C 436.078125 543.035156 436.734375 544.75 437.355469 546.472656 C 438.480469 549.953125 439.46875 553.480469 440.082031 557.015625 C 440.394531 558.78125 440.730469 560.527344 440.871094 562.273438 C 441.042969 564.015625 441.292969 565.730469 441.308594 567.425781 C 441.34375 569.121094 441.503906 570.78125 441.433594 572.410156 C 441.382812 574.03125 441.335938 575.617188 441.289062 577.164062 C 440.996094 580.238281 440.796875 583.136719 440.296875 585.773438 C 440.070312 587.089844 439.851562 588.351562 439.644531 589.550781 C 439.367188 590.734375 439.101562 591.859375 438.855469 592.914062 C 438.589844 593.964844 438.359375 594.949219 438.109375 595.851562 C 437.859375 596.75 437.574219 597.566406 437.347656 598.308594 C 436.890625 599.792969 436.460938 600.9375 436.199219 601.71875 C 435.917969 602.5 435.765625 602.914062 435.765625 602.914062 C 435.765625 602.914062 435.761719 602.472656 435.753906 601.636719 C 435.765625 600.808594 435.738281 599.589844 435.796875 598.0625 C 435.808594 597.292969 435.855469 596.453125 435.847656 595.527344 C 435.820312 594.601562 435.832031 593.609375 435.824219 592.546875 C 435.832031 591.492188 435.835938 590.371094 435.84375 589.1875 C 435.808594 588.007812 435.773438 586.765625 435.734375 585.472656 C 435.707031 584.183594 435.707031 582.84375 435.582031 581.460938 C 435.507812 580.085938 435.429688 578.660156 435.34375 577.195312 C 435.207031 575.742188 435.066406 574.25 434.921875 572.722656 C 434.789062 571.199219 434.53125 569.664062 434.339844 568.097656 C 433.453125 561.839844 432.023438 555.300781 429.886719 549.007812 C 429.34375 547.445312 428.773438 545.886719 428.164062 544.351562 C 427.480469 542.851562 426.941406 541.289062 426.1875 539.839844 C 424.84375 536.859375 423.21875 534.085938 421.640625 531.390625 C 419.957031 528.769531 418.285156 526.238281 416.492188 523.976562 C 414.71875 521.699219 412.957031 519.589844 411.203125 517.746094 C 410.160156 516.617188 409.136719 515.582031 408.148438 514.621094 C 407.878906 514.652344 407.71875 514.675781 407.71875 514.675781 C 407.71875 514.675781 438.445312 585.523438 413.875 612.480469 C 408.714844 618.144531 396.171875 616.304688 388.640625 614.105469 C 387.195312 613.683594 385.910156 613.25 384.921875 612.847656 C 388.679688 616.710938 392.820312 620.140625 397.359375 622.824219 C 409.761719 630.140625 429.132812 632.519531 445.28125 613.820312 C 473.46875 581.175781 513.492188 492.242188 489.253906 434.832031 C 485.636719 426.898438 479.011719 419.433594 471.457031 414.054688 Z M 471.457031 414.054688 " fill-opacity="0.6" fill-rule="nonzero"/><path fill="#eaaa2e" d="M 374.824219 259.355469 C 374.222656 255.085938 371.117188 252.578125 367.417969 251.195312 C 359.003906 254.777344 349.554688 257.558594 340.074219 257.558594 C 337.972656 257.558594 335.882812 257.421875 333.867188 257.152344 C 325.953125 256.089844 318.824219 252.515625 313.804688 247.097656 C 311.136719 244.214844 308.894531 240.886719 307.023438 237.015625 C 306.285156 241.480469 305.742188 245.933594 305.382812 250.503906 C 305.042969 254.847656 306.9375 262.394531 313.386719 269.355469 C 318.226562 274.582031 327 280.816406 341.292969 280.816406 C 341.292969 280.816406 341.292969 280.816406 341.296875 280.816406 C 345.050781 280.816406 349.015625 280.371094 353.085938 279.492188 C 358.671875 278.289062 364.25 276.457031 369.671875 274.1875 C 373.089844 269.964844 375.566406 264.617188 374.824219 259.355469 Z M 357.453125 267.433594 C 356.816406 267.757812 356.039062 268.164062 355.132812 268.585938 C 354.675781 268.792969 354.1875 269.015625 353.675781 269.25 C 353.15625 269.46875 352.59375 269.625 352.007812 269.828125 C 350.835938 270.203125 349.554688 270.59375 348.179688 270.976562 C 346.800781 271.304688 345.300781 271.5 343.753906 271.734375 C 342.980469 271.859375 342.191406 271.960938 341.378906 271.953125 C 340.570312 271.984375 339.75 271.996094 338.917969 271.996094 C 337.261719 272.09375 335.574219 271.78125 333.886719 271.609375 C 333.042969 271.523438 332.210938 271.324219 331.382812 271.113281 C 330.554688 270.917969 329.742188 270.683594 328.929688 270.472656 C 328.125 270.214844 327.355469 269.882812 326.585938 269.578125 C 325.816406 269.273438 325.058594 268.980469 324.367188 268.558594 C 323.660156 268.171875 322.964844 267.800781 322.304688 267.410156 C 321.660156 266.984375 321.046875 266.539062 320.457031 266.105469 C 320.164062 265.886719 319.875 265.671875 319.59375 265.457031 C 319.328125 265.21875 319.070312 264.984375 318.8125 264.753906 C 318.3125 264.277344 317.808594 263.855469 317.378906 263.386719 C 316.523438 262.4375 315.785156 261.554688 315.21875 260.695312 C 314.605469 259.886719 314.214844 259.0625 313.863281 258.4375 C 313.21875 257.125 313.027344 256.316406 313.027344 256.316406 C 313.027344 256.316406 313.183594 256.453125 313.476562 256.707031 C 313.746094 256.96875 314.210938 257.292969 314.734375 257.742188 C 315.300781 258.152344 315.953125 258.667969 316.75 259.191406 C 317.511719 259.746094 318.449219 260.257812 319.414062 260.855469 C 319.902344 261.140625 320.441406 261.398438 320.976562 261.6875 C 321.242188 261.832031 321.511719 261.976562 321.785156 262.125 C 322.074219 262.25 322.363281 262.375 322.660156 262.503906 C 323.253906 262.75 323.832031 263.054688 324.449219 263.304688 C 325.085938 263.515625 325.71875 263.765625 326.367188 264.003906 C 327.648438 264.507812 329.0625 264.792969 330.429688 265.230469 C 331.140625 265.375 331.863281 265.5 332.578125 265.664062 C 333.289062 265.835938 334.003906 265.996094 334.75 266.046875 C 336.21875 266.214844 337.671875 266.519531 339.152344 266.539062 C 340.625 266.582031 342.070312 266.824219 343.496094 266.746094 C 344.917969 266.71875 346.308594 266.804688 347.632812 266.769531 C 348.953125 266.695312 350.214844 266.644531 351.394531 266.621094 C 351.980469 266.609375 352.554688 266.621094 353.089844 266.585938 C 353.628906 266.546875 354.140625 266.507812 354.621094 266.46875 C 355.585938 266.398438 356.445312 266.378906 357.152344 266.351562 C 358.574219 266.304688 359.417969 266.339844 359.417969 266.339844 C 359.417969 266.339844 358.722656 266.773438 357.453125 267.433594 Z M 284.558594 414.347656 C 284.558594 429.636719 295.730469 442.074219 309.460938 442.074219 C 323.191406 442.074219 334.363281 429.636719 334.363281 414.347656 C 334.363281 400.90625 314.640625 378.167969 309.460938 372.433594 C 304.285156 378.167969 284.558594 400.914062 284.558594 414.347656 Z M 310.691406 380.027344 C 311.761719 381.191406 312.757812 382.34375 313.757812 383.527344 C 314.746094 384.707031 315.734375 385.894531 316.671875 387.117188 C 318.523438 389.585938 320.359375 392.070312 321.957031 394.722656 C 322.765625 396.042969 323.5625 397.371094 324.269531 398.753906 C 324.976562 400.136719 325.652344 401.535156 326.230469 402.984375 C 326.785156 404.4375 327.292969 405.914062 327.625 407.441406 C 327.78125 408.207031 327.90625 408.972656 327.976562 409.746094 L 328.015625 410.910156 L 327.945312 412.0625 L 327.757812 410.9375 L 327.476562 409.839844 L 327.132812 408.765625 L 326.726562 407.714844 C 326.425781 407.027344 326.136719 406.339844 325.792969 405.671875 C 325.464844 405.003906 325.105469 404.34375 324.730469 403.695312 C 324.003906 402.390625 323.203125 401.121094 322.359375 399.878906 C 321.523438 398.636719 320.671875 397.398438 319.769531 396.195312 C 318.871094 394.992188 317.949219 393.804688 317.027344 392.617188 C 316.097656 391.4375 315.144531 390.265625 314.171875 389.117188 C 313.199219 387.96875 312.242188 386.804688 311.246094 385.675781 C 310.660156 385 310.058594 384.335938 309.460938 383.675781 C 308.859375 384.335938 308.261719 385 307.675781 385.671875 C 306.679688 386.804688 305.722656 387.96875 304.746094 389.113281 C 303.773438 390.261719 302.820312 391.429688 301.894531 392.613281 C 300.96875 393.800781 300.042969 394.988281 299.148438 396.195312 C 298.246094 397.394531 297.398438 398.632812 296.558594 399.875 C 295.714844 401.117188 294.917969 402.386719 294.1875 403.695312 C 293.8125 404.34375 293.457031 405 293.125 405.671875 C 292.785156 406.339844 292.496094 407.027344 292.191406 407.714844 L 291.785156 408.761719 L 291.445312 409.835938 L 291.164062 410.929688 L 290.972656 412.0625 L 290.910156 410.917969 L 290.945312 409.746094 C 291.019531 408.976562 291.144531 408.207031 291.300781 407.441406 C 291.628906 405.914062 292.140625 404.4375 292.699219 402.984375 C 293.273438 401.535156 293.949219 400.136719 294.65625 398.757812 C 295.363281 397.371094 296.160156 396.046875 296.96875 394.726562 C 298.570312 392.074219 300.402344 389.585938 302.253906 387.121094 C 303.1875 385.894531 304.179688 384.710938 305.167969 383.527344 C 306.167969 382.34375 307.164062 381.195312 308.230469 380.027344 C 308.851562 379.351562 309.90625 379.304688 310.585938 379.925781 C 310.621094 379.957031 310.660156 379.996094 310.691406 380.027344 Z M 310.691406 380.027344 " fill-opacity="1" fill-rule="nonzero"/><path fill="#ffffff" d="M 298.917969 408.539062 C 298.917969 408.539062 298.542969 417.359375 304.339844 419.578125 C 301.550781 405.515625 308.664062 395.261719 309.625 394.066406 C 316.394531 400.472656 328.515625 417.855469 318.460938 426.929688 C 312.390625 432.414062 303.757812 433.171875 298.117188 426.542969 C 293.714844 421.371094 294.136719 413.3125 298.917969 408.539062 Z M 298.917969 408.539062 " fill-opacity="0.498" fill-rule="nonzero"/><path fill="#000000" d="M 520.285156 314.023438 C 508.414062 321.238281 492.296875 323.835938 478.410156 320.335938 C 472.835938 306.222656 460.734375 313.972656 456.300781 303.472656 C 451.550781 292.214844 457.429688 282.503906 452.074219 275.046875 C 451.328125 274.007812 450.539062 273.019531 449.707031 272.078125 C 453.710938 270.765625 457.789062 269.667969 461.945312 268.832031 C 487.0625 263.785156 509.394531 274.03125 525.019531 293.648438 C 525.613281 294.390625 526.515625 294.597656 527.382812 294.441406 C 528.269531 304.339844 524.277344 311.585938 520.285156 314.023438 Z M 520.285156 314.023438 " fill-opacity="0.8" fill-rule="nonzero"/></svg>