<svg xmlns="http://www.w3.org/2000/svg" xmlns:xlink="http://www.w3.org/1999/xlink" width="500" zoomAndPan="magnify" viewBox="0 0 375 374.999991" height="500" preserveAspectRatio="xMidYMid meet" version="1.0"><defs><clipPath id="165f993500"><path d="M 38 48.019531 L 104.976562 48.019531 L 104.976562 112.519531 L 38 112.519531 Z M 38 48.019531 " clip-rule="nonzero"/></clipPath><clipPath id="bfba5b2184"><path d="M 37.476562 48.019531 L 104.976562 48.019531 L 104.976562 112.519531 L 37.476562 112.519531 Z M 37.476562 48.019531 " clip-rule="nonzero"/></clipPath><clipPath id="c260471641"><path d="M 25.015625 24 L 117.265625 24 L 117.265625 136 L 25.015625 136 Z M 25.015625 24 " clip-rule="nonzero"/></clipPath><clipPath id="4b520baad7"><path d="M 83.074219 27.792969 L 105.332031 42.269531 C 112.773438 47.109375 117.265625 55.378906 117.265625 64.246094 L 117.265625 95.8125 C 117.265625 104.679688 112.773438 112.949219 105.332031 117.789062 L 83.074219 132.265625 C 75.820312 136.984375 66.460938 136.984375 59.207031 132.265625 L 36.949219 117.789062 C 29.503906 112.949219 25.015625 104.679688 25.015625 95.8125 L 25.015625 64.246094 C 25.015625 55.378906 29.503906 47.109375 36.949219 42.269531 L 59.207031 27.792969 C 66.460938 23.074219 75.820312 23.074219 83.074219 27.792969 " clip-rule="nonzero"/></clipPath><clipPath id="57ae6e7226"><path d="M 47.667969 42.722656 L 94.917969 42.722656 L 94.917969 117.722656 L 47.667969 117.722656 Z M 47.667969 42.722656 " clip-rule="nonzero"/></clipPath></defs><g clip-path="url(#165f993500)"><path fill="#ffffff" d="M 71.324219 48.5 L 60.105469 83.601562 L 62.378906 85.4375 L 71.039062 58.089844 L 75.488281 71.453125 L 78.796875 71.359375 Z M 74.027344 53.0625 L 74.964844 56.183594 C 83.992188 57.34375 91.59375 63.0625 95.40625 70.953125 L 98.773438 71.097656 C 94.625 61.164062 85.214844 53.992188 74.027344 53.0625 Z M 68.769531 53.085938 C 57.367188 54.152344 47.851562 61.710938 43.949219 72.039062 L 47.199219 72.039062 C 50.78125 63.679688 58.527344 57.539062 67.828125 56.230469 Z M 104.863281 71.929688 L 67.625 72.550781 L 66.804688 75.300781 L 96.226562 74.96875 L 83.890625 84.066406 L 84.652344 86.972656 Z M 62.414062 72.644531 L 38.050781 73.050781 L 68.230469 94.5625 L 70.789062 92.574219 L 47.351562 75.527344 L 61.59375 75.359375 Z M 80.308594 75.992188 L 77.035156 76.085938 L 86.257812 103.816406 L 74.765625 95.457031 L 72.039062 97.277344 L 91.894531 111.441406 Z M 100.402344 76.300781 L 97.679688 78.136719 C 97.910156 79.550781 98.035156 81 98.035156 82.484375 C 98.035156 90.074219 94.847656 96.921875 89.742188 101.757812 L 90.636719 105.007812 C 97.003906 99.589844 101.046875 91.507812 101.046875 82.484375 C 101.046875 80.363281 100.828125 78.296875 100.402344 76.300781 Z M 42.511719 77.328125 C 42.21875 79 42.058594 80.722656 42.058594 82.484375 C 42.058594 91.320312 45.9375 99.25 52.078125 104.664062 L 53.039062 101.457031 C 48.113281 96.640625 45.058594 89.921875 45.058594 82.484375 C 45.058594 81.328125 45.128906 80.183594 45.269531 79.066406 Z M 79.738281 87.140625 L 56.382812 104.390625 L 60.785156 90.476562 L 58.417969 88.855469 L 51.015625 112 L 80.558594 90.011719 Z M 82.996094 106.414062 C 79.535156 108.078125 75.648438 109.011719 71.550781 109.011719 C 67.464844 109.011719 63.589844 108.082031 60.132812 106.425781 L 57.3125 108.355469 C 61.535156 110.691406 66.386719 112.023438 71.550781 112.023438 C 76.714844 112.023438 81.574219 110.691406 85.792969 108.355469 Z M 82.996094 106.414062 " fill-opacity="1" fill-rule="nonzero"/></g><g clip-path="url(#bfba5b2184)"><path stroke-linecap="butt" transform="matrix(0.380711, 0, 0, 0.381164, 37.858929, 48.309928)" fill="none" stroke-linejoin="miter" d="M 87.902167 0.498662 L 58.434249 92.589095 L 64.405811 97.405755 L 87.153157 25.658022 L 98.839772 60.717156 L 107.530346 60.471199 Z M 95.002376 12.468574 L 97.464876 20.656895 C 121.176701 23.700614 141.143473 38.703996 151.15764 59.405385 L 160.00212 59.784569 C 149.105557 33.723365 124.388211 14.907648 95.002376 12.468574 Z M 81.191854 12.530063 C 51.241696 15.327825 26.247319 35.158115 15.997162 62.254388 L 24.53383 62.254388 C 33.942632 40.323214 54.28904 24.213025 78.719094 20.779874 Z M 175.998111 61.967438 L 78.185552 63.596904 L 76.030864 70.811645 L 153.312328 69.940547 L 120.90993 93.808633 L 122.910711 101.433302 Z M 64.498155 63.842861 L 0.503932 64.908675 L 79.775917 121.345578 L 86.49649 116.129239 L 24.933986 71.406041 L 62.343468 70.965368 Z M 111.501127 72.625578 L 102.902897 72.871535 L 127.127743 145.623593 L 96.941595 123.692419 L 89.779824 128.468086 L 141.933525 165.628103 Z M 164.280714 73.435187 L 157.129203 78.251847 C 157.734568 81.9617 158.062901 85.763786 158.062901 89.658107 C 158.062901 109.570383 149.690401 127.535499 136.280035 140.222785 L 138.629671 148.749298 C 155.354151 134.535027 165.973683 113.331477 165.973683 89.658107 C 165.973683 84.093328 165.3991 78.672023 164.280714 73.435187 Z M 12.221329 76.130467 C 11.451797 80.516702 11.03112 85.036163 11.03112 89.658107 C 11.03112 112.839562 21.219715 133.643433 37.349091 147.847455 L 39.873154 139.433673 C 26.934767 126.797627 18.911121 109.170703 18.911121 89.658107 C 18.911121 86.624636 19.095808 83.62191 19.465183 80.690921 Z M 110.003106 101.873976 L 48.656071 147.13008 L 60.219561 110.625949 L 54.001748 106.372941 L 34.558257 167.093597 L 112.157794 109.406411 Z M 118.560294 152.438654 C 109.469565 156.804392 99.260449 159.253715 88.497271 159.253715 C 77.764875 159.253715 67.586541 156.81464 58.506071 152.469399 L 51.09805 157.532015 C 62.189561 163.660446 74.933 167.155086 88.497271 167.155086 C 102.061543 167.155086 114.825502 163.660446 125.906753 157.532015 Z M 118.560294 152.438654 " stroke="#000000" stroke-width="1" stroke-opacity="1" stroke-miterlimit="4"/></g><g clip-path="url(#c260471641)"><g clip-path="url(#4b520baad7)"><path stroke-linecap="butt" transform="matrix(0.749714, 0, 0, 0.748246, 25.01449, 20.031014)" fill="none" stroke-linejoin="miter" d="M 77.442485 10.37353 L 107.130882 29.720854 C 117.05654 36.189104 123.048406 47.240989 123.048406 59.091616 L 123.048406 101.278806 C 123.048406 113.129433 117.05654 124.181318 107.130882 130.649568 L 77.442485 149.996892 C 67.766923 156.303305 55.282998 156.303305 45.607436 149.996892 L 15.919039 130.649568 C 5.988171 124.181318 0.00151447 113.129433 0.00151447 101.278806 L 0.00151447 59.091616 C 0.00151447 47.240989 5.988171 36.189104 15.919039 29.720854 L 45.607436 10.37353 C 55.282998 4.067117 67.766923 4.067117 77.442485 10.37353 " stroke="#953cd9" stroke-width="12" stroke-opacity="1" stroke-miterlimit="4"/></g></g><g clip-path="url(#57ae6e7226)"><path fill="#ffffff" d="M 87.597656 74.570312 C 87.703125 74.574219 87.8125 74.578125 87.917969 74.578125 C 88.1875 74.578125 88.457031 74.566406 88.726562 74.542969 C 89.953125 74.433594 92.207031 74.039062 93.523438 72.636719 C 94.507812 71.585938 94.910156 70.070312 94.652344 68.355469 C 94.097656 62.292969 87.53125 58.546875 84.730469 57.21875 C 82.78125 56.292969 80.703125 55.601562 78.542969 55.15625 C 78.238281 53.253906 78.730469 52.886719 79.359375 52.644531 C 79.675781 52.523438 80.097656 52.472656 80.546875 52.421875 C 80.816406 52.390625 81.097656 52.355469 81.390625 52.304688 C 82.5625 52.09375 83.636719 51.609375 84.507812 50.910156 C 85.804688 49.863281 86.445312 47.90625 86.101562 46.042969 C 85.804688 44.441406 84.839844 43.261719 83.453125 42.808594 C 83.269531 42.746094 83.078125 42.714844 82.886719 42.714844 C 82.355469 42.714844 81.851562 42.953125 81.507812 43.363281 C 81.152344 43.792969 81 44.371094 81.097656 44.910156 C 81.113281 44.984375 81.128906 45.0625 81.144531 45.144531 C 81.171875 45.285156 81.214844 45.503906 81.234375 45.683594 C 81.101562 45.703125 80.894531 45.722656 80.582031 45.722656 C 80.386719 45.722656 80.1875 45.714844 80 45.710938 C 79.816406 45.703125 79.644531 45.699219 79.5 45.699219 C 78.996094 45.695312 78.496094 45.691406 77.992188 45.683594 C 77.449219 45.675781 76.90625 45.671875 76.363281 45.671875 C 74.214844 45.671875 71.90625 45.769531 69.574219 46.484375 C 65.234375 47.816406 61.972656 51.59375 60.335938 57.160156 C 57.324219 58.480469 54.421875 60.292969 51.699219 62.550781 C 49.21875 64.613281 47.726562 67.554688 47.707031 70.421875 C 47.683594 73.539062 49.648438 76.261719 52.964844 77.703125 C 54.636719 78.433594 56.464844 78.839844 58.398438 78.914062 C 57.910156 79.457031 57.21875 80.671875 57.558594 81.871094 C 57.609375 82.035156 57.671875 82.195312 57.753906 82.339844 C 56.945312 83.691406 56.550781 84.839844 56.550781 85.824219 C 56.550781 86.660156 56.71875 87.46875 57.027344 88.203125 C 56.617188 88.3125 56.3125 88.511719 56.128906 88.660156 C 55.878906 88.59375 55.65625 88.574219 55.484375 88.574219 C 55.023438 88.574219 54.667969 88.703125 54.449219 88.804688 L 53.046875 89.523438 L 53.304688 90.496094 C 53.292969 90.5 53.28125 90.503906 53.269531 90.507812 L 51.558594 91.167969 L 52.734375 94.621094 C 52.507812 94.804688 52.320312 95.03125 52.179688 95.289062 L 51.5625 96.402344 L 54.417969 99.945312 L 54.992188 100.015625 C 56.417969 100.195312 60.539062 101 62.476562 102.570312 C 63.324219 103.253906 64.871094 104.953125 66.371094 106.597656 C 66.640625 106.894531 66.90625 107.179688 67.164062 107.464844 C 67.566406 108.714844 69.558594 114.339844 73.597656 116.71875 C 74.375 117.171875 75.621094 117.714844 77.175781 117.714844 C 79.183594 117.714844 81.027344 116.8125 82.511719 115.097656 C 84.90625 112.332031 87.367188 107.625 88.773438 103.101562 C 90.050781 99 91.132812 93.0625 89.015625 88.0625 L 89 88.027344 C 88.648438 87.257812 88.125 86.488281 87.484375 85.792969 C 87.296875 85.550781 87.101562 85.328125 86.902344 85.132812 C 86.1875 84.417969 85.335938 83.875 84.429688 83.554688 C 84.402344 83.542969 84.375 83.53125 84.347656 83.519531 L 87.074219 83.519531 C 87.964844 83.519531 88.816406 82.929688 89.347656 81.945312 C 90.03125 80.671875 90.011719 79.160156 89.300781 78.09375 C 88.671875 77.152344 87.847656 76.851562 87.351562 76.667969 C 87.28125 76.640625 87.1875 76.609375 87.125 76.582031 C 87.125 76.578125 87.121094 76.570312 87.121094 76.5625 C 87.015625 76.101562 87.066406 75.992188 87.230469 75.640625 C 87.378906 75.320312 87.519531 74.980469 87.597656 74.570312 Z M 87.597656 74.570312 " fill-opacity="1" fill-rule="nonzero"/></g><path fill="#1c945f" d="M 79.019531 84.828125 C 78 84.71875 77.386719 84.652344 77.164062 83.695312 C 77.035156 83.160156 76.9375 82.621094 76.863281 82.085938 C 76.652344 80.582031 76.617188 79.121094 76.617188 77.960938 C 77.230469 77.792969 77.34375 77.6875 77.390625 77.640625 C 77.5 77.542969 77.632812 77.363281 77.789062 77.152344 C 77.988281 76.890625 78.210938 76.589844 78.394531 76.429688 C 78.425781 76.398438 78.46875 76.355469 78.515625 76.300781 C 77.671875 76.609375 76.820312 76.621094 76.441406 76.164062 C 75.5 75.035156 76.882812 75.0625 76.703125 74.453125 C 76.464844 73.648438 75.324219 73.277344 74.6875 72.8125 C 73.835938 72.191406 73.242188 71.527344 72.828125 70.890625 C 71.128906 72.351562 68.058594 75.046875 63.960938 76.351562 C 63.964844 76.433594 63.96875 76.515625 63.972656 76.609375 C 63.996094 77.019531 64.097656 77.488281 64.28125 78.003906 L 64.292969 78.035156 C 64.320312 78.109375 64.347656 78.1875 64.378906 78.265625 C 64.894531 79.582031 65.800781 80.976562 66.875 82.085938 C 66.875 82.085938 66.875 82.085938 66.878906 82.085938 C 67.480469 82.707031 68.222656 83.019531 69.082031 83.019531 C 69.757812 83.019531 70.488281 82.828125 71.25 82.460938 C 71.449219 83.320312 71.511719 84.519531 70.84375 85.59375 C 70.355469 86.378906 69.382812 86.472656 68.253906 86.574219 C 68.304688 86.648438 68.351562 86.726562 68.398438 86.800781 C 67.28125 88.585938 66.03125 89.140625 65 92.292969 C 65.015625 92.546875 65.164062 92.871094 65.421875 93.214844 C 65.253906 93.507812 65.097656 93.855469 64.972656 94.269531 C 64.746094 95 63.800781 95.691406 63.027344 95.691406 C 62.8125 95.691406 62.628906 95.632812 62.484375 95.519531 C 61.730469 94.921875 59.757812 93.203125 59.382812 92.875 C 58.992188 90.824219 58.40625 89.785156 57.644531 89.785156 C 57.339844 89.785156 57.140625 89.960938 57.121094 89.980469 L 57.027344 90.066406 L 57.550781 93.546875 L 59.359375 95.394531 L 59.316406 95.445312 L 57.441406 93.683594 C 56.898438 90.84375 56.0625 90.246094 55.453125 90.246094 C 55.285156 90.246094 55.171875 90.296875 55.152344 90.308594 L 54.980469 90.394531 L 55.578125 92.636719 C 55.359375 92.199219 54.960938 91.957031 54.453125 91.957031 C 54.121094 91.957031 53.855469 92.058594 53.84375 92.066406 L 53.628906 92.148438 L 54.789062 95.566406 L 56.652344 97.230469 L 56.476562 97.199219 C 55.617188 96.222656 54.886719 95.726562 54.308594 95.726562 C 53.917969 95.726562 53.6875 95.953125 53.617188 96.089844 L 53.539062 96.230469 L 55.265625 98.371094 L 55.359375 98.382812 C 55.414062 98.386719 60.761719 99.058594 63.503906 101.273438 C 64.4375 102.03125 65.964844 103.703125 67.582031 105.472656 C 68.125 106.074219 68.683594 106.683594 69.242188 107.285156 L 72.046875 109.859375 L 71.289062 100.453125 L 67.582031 98.839844 C 66.914062 98.347656 66.65625 97.441406 66.820312 96.140625 C 66.878906 95.671875 66.992188 95.191406 67.125 94.734375 C 68.964844 95.90625 71.765625 96.652344 74.597656 95.15625 C 75.535156 92.210938 76.972656 88.113281 78.503906 86.332031 C 79.035156 85.742188 79.566406 85.285156 80.128906 84.984375 C 79.730469 84.90625 79.355469 84.863281 79.019531 84.828125 Z M 58.3125 96.480469 L 58 96.214844 L 58.320312 96.46875 Z M 70.378906 74.675781 C 70.378906 74.675781 70.628906 72.976562 71.925781 72.597656 C 73.898438 72.027344 74.3125 74.101562 74.3125 74.101562 Z M 70.378906 74.675781 " fill-opacity="1" fill-rule="nonzero"/><path fill="#762f82" d="M 73.65625 70.136719 C 74.222656 69.671875 74.792969 69.226562 75.359375 68.8125 C 75.476562 68.726562 75.589844 68.644531 75.703125 68.566406 C 80.589844 65.074219 85.449219 63.558594 89.449219 65.609375 C 90.660156 66.226562 91.792969 67.171875 92.824219 68.488281 C 92.449219 63.925781 86.132812 58.363281 77.417969 56.800781 C 77.5625 57.40625 77.71875 58.011719 77.851562 58.625 C 77.972656 59.15625 78.101562 59.6875 77.964844 60.230469 C 77.628906 61.585938 76.5625 62.746094 75.535156 63.640625 C 74.71875 64.359375 73.757812 65.074219 72.714844 65.695312 C 70.410156 67.066406 67.699219 67.984375 65.203125 67.472656 C 63.011719 67.023438 60.652344 65.097656 60.78125 62.660156 C 60.78125 62.65625 60.78125 62.65625 60.78125 62.65625 C 60.871094 61.53125 61.042969 60.359375 61.296875 59.195312 C 59.558594 59.941406 57.882812 60.851562 56.292969 61.910156 C 53.574219 63.726562 50.609375 65.914062 50.03125 69.355469 C 49.527344 72.386719 51.453125 74.800781 54.238281 75.824219 C 55.390625 76.246094 56.582031 76.507812 57.78125 76.621094 C 57.164062 76.699219 56.539062 76.738281 55.917969 76.734375 C 64.253906 78.585938 70.425781 72.890625 72.976562 70.707031 C 73.203125 70.515625 73.429688 70.324219 73.65625 70.136719 Z M 59.765625 74.804688 C 59.640625 74.835938 59.457031 74.871094 59.21875 74.90625 C 58.984375 74.9375 58.695312 74.96875 58.359375 74.976562 C 58.023438 74.992188 57.648438 74.972656 57.234375 74.9375 C 56.414062 74.859375 55.457031 74.640625 54.507812 74.21875 C 54.386719 74.167969 54.269531 74.109375 54.148438 74.050781 C 54.027344 73.988281 53.914062 73.929688 53.804688 73.867188 C 53.566406 73.734375 53.324219 73.605469 53.09375 73.445312 C 52.628906 73.132812 52.199219 72.730469 51.878906 72.238281 C 51.558594 71.75 51.375 71.167969 51.347656 70.601562 C 51.320312 70.035156 51.425781 69.488281 51.589844 68.996094 C 51.753906 68.503906 51.976562 68.054688 52.21875 67.652344 C 52.460938 67.253906 52.71875 66.894531 52.972656 66.578125 C 53.484375 65.945312 53.964844 65.476562 54.320312 65.164062 C 54.496094 65.011719 54.636719 64.890625 54.734375 64.8125 C 54.832031 64.734375 54.886719 64.695312 54.886719 64.695312 C 54.886719 64.695312 54.691406 64.878906 54.375 65.222656 C 54.0625 65.570312 53.625 66.074219 53.183594 66.730469 C 52.960938 67.058594 52.738281 67.425781 52.535156 67.824219 C 52.335938 68.226562 52.148438 68.664062 52.023438 69.125 C 51.898438 69.589844 51.835938 70.082031 51.890625 70.5625 C 51.9375 71.042969 52.105469 71.503906 52.386719 71.898438 C 52.667969 72.292969 53.046875 72.621094 53.464844 72.882812 C 53.675781 73.011719 53.890625 73.132812 54.117188 73.230469 C 54.359375 73.335938 54.574219 73.417969 54.804688 73.507812 C 55.710938 73.847656 56.582031 74.09375 57.34375 74.265625 C 57.535156 74.3125 57.71875 74.351562 57.894531 74.390625 C 58.070312 74.417969 58.238281 74.457031 58.398438 74.484375 C 58.554688 74.515625 58.703125 74.542969 58.84375 74.566406 C 58.980469 74.589844 59.109375 74.617188 59.222656 74.632812 C 59.457031 74.671875 59.640625 74.703125 59.765625 74.722656 C 59.890625 74.746094 59.957031 74.757812 59.957031 74.757812 C 59.957031 74.757812 59.890625 74.777344 59.765625 74.804688 Z M 70.527344 66.023438 C 71.011719 65.425781 71.363281 64.667969 71.257812 63.925781 C 71.171875 63.324219 70.734375 62.96875 70.210938 62.773438 C 70.089844 62.730469 69.96875 62.691406 69.847656 62.664062 C 70.773438 62.289062 71.660156 61.824219 72.472656 61.351562 C 74.128906 60.386719 77.195312 57.847656 77.246094 57.800781 C 77.390625 58.394531 77.527344 58.949219 77.609375 59.425781 C 77.945312 61.359375 74.34375 64.851562 70.152344 66.429688 C 70.28125 66.304688 70.410156 66.167969 70.527344 66.023438 Z M 65.082031 92.292969 C 65.101562 92.566406 65.269531 92.914062 65.558594 93.285156 C 65.40625 93.5625 65.265625 93.890625 65.148438 94.269531 C 64.921875 95 63.980469 95.691406 63.207031 95.691406 C 62.988281 95.691406 62.804688 95.632812 62.660156 95.519531 C 61.910156 94.921875 59.933594 93.203125 59.558594 92.875 C 59.546875 92.804688 59.53125 92.734375 59.519531 92.667969 C 60 91.558594 60.464844 90.589844 60.90625 89.753906 C 61.292969 89.898438 61.707031 89.980469 62.140625 89.980469 C 64.21875 89.980469 65.90625 88.121094 65.90625 85.824219 C 65.90625 85.5 65.832031 85.144531 65.703125 84.769531 C 66.984375 84.699219 67.898438 85.859375 68.480469 86.800781 C 67.363281 88.585938 66.113281 89.140625 65.082031 92.292969 Z M 87.613281 88.71875 C 91.050781 96.832031 85.378906 109.394531 81.382812 114.007812 C 79.097656 116.652344 76.351562 116.316406 74.59375 115.28125 C 70.679688 112.976562 68.84375 106.757812 68.84375 106.757812 L 69.421875 107.285156 L 69.425781 107.292969 L 72.222656 109.859375 L 71.855469 105.300781 L 71.464844 100.453125 L 67.761719 98.839844 C 67.089844 98.347656 66.832031 97.441406 67 96.144531 C 67.054688 95.691406 67.160156 95.226562 67.289062 94.785156 C 69.125 95.925781 71.886719 96.632812 74.679688 95.160156 C 75.617188 92.210938 77.054688 88.113281 78.589844 86.332031 C 79.945312 84.820312 81.304688 84.183594 83.222656 84.820312 C 83.460938 84.898438 83.699219 84.992188 83.9375 85.105469 C 84.800781 85.503906 85.640625 86.125 86.335938 86.863281 C 86.339844 86.867188 86.34375 86.871094 86.347656 86.875 C 86.875 87.4375 87.316406 88.066406 87.613281 88.71875 Z M 74.273438 77.953125 C 75.332031 77.953125 76.21875 77.226562 76.464844 76.25 C 76.433594 76.222656 76.40625 76.195312 76.382812 76.164062 C 75.78125 75.445312 76.125 75.195312 76.40625 74.953125 C 76.246094 74.503906 75.953125 74.121094 75.570312 73.855469 L 75.234375 73.90625 L 75.53125 74.03125 L 72.4375 74.386719 C 72.171875 74.753906 72.011719 75.207031 72.011719 75.699219 C 72.011719 76.945312 73.023438 77.953125 74.273438 77.953125 Z M 74.84375 74.273438 L 75.089844 74.765625 L 74.355469 74.328125 Z M 74.21875 74.328125 L 74.464844 74.820312 L 73.726562 74.382812 Z M 66.390625 76.738281 C 66.386719 76.765625 66.382812 76.808594 66.382812 76.851562 C 66.382812 76.863281 66.382812 76.898438 66.390625 76.933594 C 66.394531 76.953125 66.398438 76.96875 66.402344 76.984375 L 66.40625 76.996094 L 66.40625 77.003906 C 66.441406 77.085938 66.417969 77.027344 66.425781 77.046875 L 66.429688 77.050781 L 66.4375 77.066406 L 66.453125 77.09375 C 66.476562 77.128906 66.507812 77.160156 66.535156 77.1875 C 66.5625 77.207031 66.585938 77.222656 66.613281 77.238281 C 66.203125 77.8125 65.527344 78.191406 64.765625 78.191406 C 64.691406 78.191406 64.617188 78.1875 64.542969 78.179688 C 64.539062 78.171875 64.539062 78.164062 64.535156 78.160156 C 64.515625 78.109375 64.5 78.0625 64.484375 78.019531 C 64.472656 77.984375 64.457031 77.953125 64.449219 77.921875 C 64.441406 77.90625 64.4375 77.886719 64.429688 77.871094 C 64.40625 77.796875 64.382812 77.726562 64.363281 77.65625 C 64.347656 77.609375 64.332031 77.5625 64.320312 77.515625 C 64.300781 77.449219 64.285156 77.386719 64.269531 77.324219 C 64.257812 77.28125 64.246094 77.234375 64.238281 77.191406 C 64.222656 77.117188 64.210938 77.046875 64.199219 76.976562 C 64.191406 76.945312 64.1875 76.914062 64.183594 76.886719 C 64.171875 76.816406 64.167969 76.75 64.160156 76.683594 C 64.308594 76.632812 64.457031 76.585938 64.605469 76.535156 C 65.394531 76.253906 66.152344 75.917969 66.882812 75.542969 C 66.796875 75.703125 66.710938 75.867188 66.632812 76.039062 C 66.554688 76.207031 66.484375 76.378906 66.429688 76.574219 C 66.414062 76.625 66.402344 76.675781 66.390625 76.738281 Z M 67.492188 79.398438 C 67.519531 79.402344 67.546875 79.402344 67.578125 79.40625 C 67.730469 79.414062 67.898438 79.417969 68.074219 79.410156 C 68.253906 79.402344 68.441406 79.386719 68.632812 79.351562 C 69.019531 79.289062 69.421875 79.164062 69.804688 78.984375 C 69.988281 78.890625 70.175781 78.800781 70.355469 78.667969 C 70.484375 78.574219 70.59375 78.46875 70.691406 78.359375 C 70.066406 80.210938 68.003906 80.441406 67.757812 80.3125 C 67.378906 80.109375 67.4375 79.628906 67.492188 79.398438 Z M 67.566406 79.132812 C 67.523438 79.136719 67.480469 79.144531 67.4375 79.148438 C 67.296875 78.929688 67.078125 78.484375 67.4375 78.242188 C 67.59375 78.140625 67.769531 78.066406 67.949219 78.019531 C 68.769531 77.789062 69.773438 78.046875 70.378906 78.054688 C 70.285156 78.140625 70.1875 78.222656 70.085938 78.292969 C 69.941406 78.386719 69.769531 78.472656 69.597656 78.554688 C 69.253906 78.71875 68.894531 78.847656 68.542969 78.941406 C 68.371094 78.984375 68.199219 79.027344 68.035156 79.058594 C 67.871094 79.085938 67.714844 79.113281 67.566406 79.132812 Z M 72.449219 73.292969 C 72.34375 73.371094 72.371094 73.578125 72.539062 73.578125 L 72.550781 73.578125 C 72.597656 73.578125 72.632812 73.558594 72.660156 73.535156 C 72.804688 73.652344 72.992188 73.722656 73.195312 73.722656 L 73.210938 73.722656 C 73.480469 73.722656 73.71875 73.59375 73.878906 73.398438 C 73.976562 73.503906 74.066406 73.625 74.144531 73.761719 L 73.542969 73.945312 L 73.289062 73.984375 C 72.65625 73.902344 72.085938 73.617188 71.871094 73.023438 C 72.019531 72.964844 72.175781 72.917969 72.328125 72.894531 C 72.335938 73.039062 72.375 73.171875 72.449219 73.292969 Z M 65.519531 63.140625 C 65.785156 63.175781 66.058594 63.195312 66.335938 63.195312 C 67.296875 63.195312 68.261719 62.976562 69.167969 62.664062 C 70.378906 62.242188 71.488281 61.648438 72.351562 61.144531 C 73.90625 60.238281 76.871094 57.8125 77.085938 57.625 C 77.117188 57.597656 77.152344 57.582031 77.1875 57.570312 C 76.667969 55.449219 76.097656 52.925781 77.398438 51.746094 C 79.191406 50.121094 80.570312 51.132812 82.855469 49.84375 C 83.152344 49.675781 83.398438 49.46875 83.601562 49.234375 C 83.339844 49.328125 83.070312 49.402344 82.789062 49.460938 C 83.089844 49.253906 83.347656 48.992188 83.546875 48.636719 C 84.023438 47.789062 84.160156 46.140625 83.40625 45.324219 C 83.5 46.550781 83.191406 47.585938 81.640625 47.808594 C 78.570312 48.242188 75.449219 47.605469 72.371094 48.117188 C 70.746094 48.386719 69.125 48.855469 67.734375 49.757812 C 66.15625 50.785156 65.054688 52.199219 64.179688 53.847656 C 63.121094 55.847656 62.355469 57.988281 61.921875 60.199219 C 62.195312 60.863281 62.539062 61.410156 62.964844 61.871094 C 63.609375 62.5625 64.492188 63.003906 65.519531 63.140625 Z M 63.558594 59.390625 C 63.5625 59.214844 63.566406 58.996094 63.59375 58.75 C 63.613281 58.5 63.640625 58.21875 63.691406 57.917969 C 63.738281 57.613281 63.792969 57.285156 63.878906 56.941406 C 63.957031 56.597656 64.058594 56.238281 64.175781 55.871094 C 64.238281 55.6875 64.300781 55.503906 64.375 55.316406 C 64.410156 55.222656 64.445312 55.128906 64.484375 55.035156 C 64.523438 54.945312 64.5625 54.851562 64.601562 54.757812 C 64.683594 54.570312 64.773438 54.386719 64.863281 54.199219 C 64.960938 54.015625 65.058594 53.832031 65.160156 53.652344 C 65.375 53.292969 65.59375 52.941406 65.847656 52.613281 C 65.910156 52.535156 65.972656 52.453125 66.035156 52.371094 C 66.101562 52.292969 66.164062 52.214844 66.230469 52.140625 C 66.359375 51.984375 66.5 51.839844 66.636719 51.699219 C 66.910156 51.417969 67.199219 51.171875 67.484375 50.953125 C 67.625 50.839844 67.773438 50.746094 67.914062 50.652344 C 68.050781 50.554688 68.195312 50.476562 68.332031 50.398438 C 68.597656 50.234375 68.863281 50.128906 69.089844 50.023438 C 69.328125 49.929688 69.535156 49.859375 69.703125 49.804688 C 70.054688 49.710938 70.253906 49.667969 70.253906 49.667969 C 70.253906 49.667969 70.074219 49.777344 69.769531 49.949219 C 69.621094 50.042969 69.441406 50.15625 69.238281 50.289062 C 69.042969 50.4375 68.816406 50.585938 68.589844 50.777344 C 68.472656 50.867188 68.351562 50.964844 68.238281 51.074219 C 68.121094 51.183594 67.992188 51.28125 67.878906 51.40625 C 67.636719 51.640625 67.394531 51.898438 67.160156 52.175781 C 67.042969 52.316406 66.921875 52.457031 66.8125 52.609375 C 66.695312 52.757812 66.585938 52.910156 66.476562 53.066406 C 66.253906 53.378906 66.050781 53.710938 65.851562 54.046875 C 65.660156 54.386719 65.476562 54.730469 65.308594 55.078125 C 65.136719 55.425781 64.984375 55.773438 64.839844 56.117188 C 64.699219 56.457031 64.566406 56.789062 64.453125 57.113281 C 64.335938 57.429688 64.230469 57.738281 64.136719 58.023438 C 63.953125 58.589844 63.8125 59.074219 63.714844 59.414062 C 63.621094 59.757812 63.570312 59.953125 63.570312 59.953125 C 63.570312 59.953125 63.550781 59.75 63.558594 59.390625 Z M 82.761719 71.363281 C 82.429688 71.210938 82.003906 71.03125 81.816406 70.714844 C 81.621094 70.394531 81.703125 69.980469 81.488281 69.675781 C 81.046875 70.148438 81.382812 70.890625 81.695312 71.34375 C 82.152344 72.003906 81.847656 72.644531 81.035156 72.234375 C 80.519531 71.976562 80.234375 71.125 79.648438 71.019531 C 78.691406 70.839844 78.785156 71.753906 78.617188 72.304688 C 78.410156 72.96875 77.664062 72.648438 77.296875 72.402344 C 76.953125 72.171875 75.496094 71.3125 75.496094 71.3125 C 75.886719 72.175781 76.542969 72.671875 77.320312 73.152344 C 77.800781 73.445312 78.585938 74.328125 78.183594 74.933594 C 78.953125 74.875 79.230469 74.070312 79.328125 73.460938 C 79.441406 72.734375 80.269531 72.742188 80.675781 73.257812 C 81.09375 73.785156 81.472656 74.164062 82.207031 73.824219 C 82.867188 73.519531 82.65625 72.785156 83.210938 72.472656 C 83.546875 72.285156 83.96875 72.394531 84.277344 72.582031 C 84.445312 71.710938 83.285156 71.601562 82.761719 71.363281 Z M 82.164062 72.554688 C 82.066406 72.707031 81.894531 72.839844 81.6875 72.886719 C 81.480469 72.9375 81.257812 72.914062 81.050781 72.84375 C 81 72.828125 80.945312 72.804688 80.894531 72.785156 C 80.851562 72.769531 80.796875 72.742188 80.746094 72.710938 C 80.644531 72.65625 80.554688 72.585938 80.46875 72.511719 C 80.386719 72.433594 80.308594 72.351562 80.238281 72.269531 L 80.035156 72.03125 C 79.917969 71.898438 79.746094 71.789062 79.59375 71.765625 C 79.515625 71.753906 79.449219 71.761719 79.394531 71.792969 C 79.335938 71.828125 79.289062 71.882812 79.253906 71.957031 C 79.1875 72.089844 79.195312 72.289062 79.144531 72.488281 C 79.117188 72.589844 79.074219 72.683594 79.015625 72.769531 L 78.972656 72.820312 C 78.953125 72.84375 78.941406 72.855469 78.921875 72.875 C 78.890625 72.90625 78.855469 72.9375 78.820312 72.964844 C 78.675781 73.070312 78.523438 73.117188 78.386719 73.140625 C 78.25 73.164062 78.132812 73.160156 78.039062 73.148438 C 77.941406 73.136719 77.871094 73.113281 77.824219 73.097656 C 77.773438 73.082031 77.75 73.070312 77.75 73.070312 C 77.75 73.070312 77.777344 73.074219 77.828125 73.082031 C 77.875 73.085938 77.949219 73.089844 78.039062 73.082031 C 78.132812 73.078125 78.242188 73.0625 78.359375 73.023438 C 78.472656 72.984375 78.597656 72.921875 78.703125 72.824219 C 78.730469 72.800781 78.753906 72.773438 78.777344 72.742188 L 78.804688 72.703125 L 78.839844 72.648438 C 78.871094 72.589844 78.898438 72.515625 78.910156 72.4375 C 78.925781 72.359375 78.925781 72.273438 78.933594 72.171875 C 78.9375 72.074219 78.949219 71.960938 78.996094 71.847656 C 79.039062 71.742188 79.117188 71.621094 79.234375 71.542969 C 79.355469 71.464844 79.507812 71.441406 79.636719 71.460938 C 79.898438 71.503906 80.105469 71.640625 80.273438 71.816406 C 80.355469 71.910156 80.410156 71.988281 80.476562 72.066406 C 80.542969 72.144531 80.609375 72.21875 80.679688 72.285156 C 80.75 72.351562 80.824219 72.410156 80.898438 72.457031 C 80.9375 72.480469 80.972656 72.503906 81.019531 72.527344 C 81.0625 72.546875 81.101562 72.5625 81.144531 72.582031 C 81.3125 72.644531 81.488281 72.675781 81.640625 72.652344 C 81.792969 72.632812 81.925781 72.554688 82.015625 72.449219 C 82.101562 72.339844 82.148438 72.210938 82.167969 72.089844 C 82.183594 71.972656 82.175781 71.863281 82.164062 71.773438 C 82.148438 71.683594 82.128906 71.609375 82.113281 71.5625 C 82.097656 71.515625 82.089844 71.492188 82.089844 71.492188 C 82.089844 71.492188 82.105469 71.515625 82.128906 71.558594 C 82.15625 71.601562 82.191406 71.664062 82.222656 71.757812 C 82.257812 71.84375 82.289062 71.960938 82.289062 72.097656 C 82.289062 72.238281 82.261719 72.398438 82.164062 72.554688 Z M 78.503906 80.949219 C 76.65625 80.195312 77.8125 78.546875 78.570312 77.433594 C 78.570312 77.433594 78.148438 79.828125 79.59375 78.296875 C 80.578125 77.253906 81.203125 79.019531 82.070312 78.808594 C 83.140625 78.542969 83.855469 75.957031 84.851562 77.304688 C 85.203125 77.785156 85.601562 78.472656 86.144531 78.804688 C 86.550781 79.054688 87.101562 79.058594 87.554688 79.125 C 85.214844 80.550781 84.882812 78.808594 84.347656 78.828125 C 83 78.875 82.484375 80.519531 80.964844 79.871094 C 80.480469 79.664062 80.285156 79.285156 79.703125 79.441406 C 79.085938 79.609375 78.183594 80.152344 78.503906 80.949219 Z M 91.871094 71.648438 C 90.1875 72.667969 87.902344 73.035156 85.9375 72.542969 C 85.144531 70.546875 83.429688 71.640625 82.804688 70.160156 C 82.128906 68.566406 82.964844 67.195312 82.203125 66.144531 C 82.097656 65.996094 81.988281 65.855469 81.871094 65.722656 C 82.4375 65.539062 83.015625 65.382812 83.601562 65.265625 C 87.164062 64.550781 90.328125 66 92.539062 68.769531 C 92.625 68.875 92.753906 68.90625 92.875 68.882812 C 93 70.28125 92.433594 71.304688 91.871094 71.648438 Z M 91.871094 71.648438 " fill-opacity="1" fill-rule="nonzero"/><path fill="#000000" d="M 88.648438 73.671875 C 89.535156 73.589844 91.722656 73.273438 92.878906 72.039062 C 93.683594 71.183594 94.003906 69.914062 93.78125 68.460938 L 93.78125 68.441406 C 93.265625 62.824219 87.015625 59.273438 84.355469 58.007812 C 82.292969 57.03125 80.085938 56.320312 77.789062 55.898438 C 77.785156 55.886719 77.78125 55.875 77.78125 55.863281 C 77.292969 53.496094 77.648438 52.367188 79.042969 51.828125 C 79.460938 51.667969 79.9375 51.613281 80.441406 51.550781 C 80.703125 51.523438 80.96875 51.492188 81.234375 51.441406 C 82.246094 51.261719 83.210938 50.828125 83.953125 50.230469 C 84.992188 49.394531 85.519531 47.734375 85.238281 46.199219 C 85 44.921875 84.253906 43.988281 83.179688 43.636719 C 82.820312 43.523438 82.425781 43.636719 82.183594 43.925781 C 81.992188 44.152344 81.910156 44.464844 81.964844 44.753906 C 81.976562 44.824219 81.992188 44.898438 82.007812 44.976562 C 82.089844 45.394531 82.230469 46.097656 81.988281 46.316406 C 81.785156 46.503906 81.3125 46.597656 80.582031 46.597656 C 80.371094 46.597656 80.167969 46.589844 79.96875 46.582031 C 79.796875 46.578125 79.636719 46.574219 79.5 46.574219 C 78.992188 46.570312 78.488281 46.566406 77.980469 46.558594 C 77.441406 46.550781 76.902344 46.546875 76.363281 46.546875 C 74.28125 46.546875 72.054688 46.640625 69.835938 47.320312 C 65.6875 48.59375 62.582031 52.308594 61.066406 57.800781 C 57.996094 59.097656 55.035156 60.921875 52.261719 63.222656 C 49.976562 65.121094 48.601562 67.816406 48.585938 70.425781 C 48.566406 73.183594 50.332031 75.605469 53.316406 76.902344 C 55.066406 77.667969 57 78.054688 59.0625 78.054688 C 59.390625 78.054688 59.726562 78.042969 60.0625 78.023438 C 60.136719 78.152344 60.1875 78.265625 60.207031 78.375 C 60.25 78.59375 60.222656 78.65625 60.222656 78.660156 C 60.199219 78.695312 60.042969 78.78125 59.941406 78.839844 C 59.722656 78.964844 59.421875 79.132812 59.121094 79.425781 C 58.757812 79.769531 58.164062 80.78125 58.40625 81.632812 C 58.457031 81.808594 58.570312 82.066406 58.828125 82.277344 C 57.898438 83.703125 57.429688 84.898438 57.429688 85.824219 C 57.429688 87.597656 58.300781 89.214844 59.6875 90.097656 C 59.632812 90.207031 59.578125 90.320312 59.523438 90.433594 C 59.171875 89.703125 58.601562 88.988281 57.679688 88.988281 C 57.101562 88.988281 56.714844 89.304688 56.613281 89.398438 L 56.324219 89.667969 C 56.011719 89.5 55.71875 89.449219 55.484375 89.449219 C 55.191406 89.449219 54.96875 89.527344 54.820312 89.597656 L 54.078125 89.980469 L 54.390625 91.164062 C 53.957031 91.183594 53.621094 91.308594 53.589844 91.324219 L 52.660156 91.683594 L 53.796875 95.019531 C 53.378906 95.164062 53.089844 95.453125 52.949219 95.707031 L 52.617188 96.3125 L 54.617188 98.796875 L 54.878906 99.121094 L 55.296875 99.171875 C 55.351562 99.179688 60.480469 99.828125 63.03125 101.890625 C 63.925781 102.617188 65.5 104.34375 67.023438 106.011719 C 67.335938 106.355469 67.644531 106.691406 67.945312 107.019531 C 68.121094 107.605469 70 113.582031 74.046875 115.964844 C 74.726562 116.363281 75.820312 116.839844 77.175781 116.839844 C 78.921875 116.839844 80.535156 116.042969 81.847656 114.527344 C 86.046875 109.679688 91.761719 96.804688 88.199219 88.390625 C 87.882812 87.695312 87.402344 86.992188 86.8125 86.355469 C 86.640625 86.132812 86.460938 85.929688 86.28125 85.75 C 85.648438 85.117188 84.894531 84.640625 84.101562 84.367188 C 83.828125 84.242188 83.574219 84.144531 83.332031 84.066406 C 82.75 83.875 82.210938 83.78125 81.683594 83.78125 C 81.074219 83.78125 80.507812 83.90625 79.953125 84.15625 C 79.628906 84.101562 79.320312 84.066406 79.042969 84.039062 C 77.976562 83.921875 77.964844 83.875 77.878906 83.511719 C 77.8125 83.234375 77.753906 82.949219 77.703125 82.644531 L 87.074219 82.644531 C 87.636719 82.644531 88.195312 82.226562 88.570312 81.53125 C 88.976562 80.777344 89.21875 79.554688 88.570312 78.578125 C 88.101562 77.875 87.492188 77.652344 87.046875 77.488281 C 86.570312 77.316406 86.375 77.242188 86.265625 76.757812 C 86.09375 76.003906 86.234375 75.695312 86.433594 75.273438 C 86.617188 74.878906 86.835938 74.40625 86.765625 73.625 C 87.40625 73.710938 88.027344 73.726562 88.648438 73.671875 Z M 64.179688 53.847656 C 65.054688 52.195312 66.15625 50.785156 67.734375 49.757812 C 69.125 48.851562 70.746094 48.386719 72.371094 48.117188 C 75.449219 47.605469 78.570312 48.242188 81.640625 47.808594 C 83.191406 47.585938 83.5 46.550781 83.40625 45.324219 C 84.160156 46.136719 84.023438 47.789062 83.546875 48.636719 C 83.347656 48.988281 83.089844 49.253906 82.789062 49.460938 C 83.070312 49.402344 83.339844 49.328125 83.601562 49.234375 C 83.398438 49.46875 83.152344 49.675781 82.855469 49.84375 C 80.570312 51.132812 79.191406 50.121094 77.402344 51.742188 C 76.097656 52.925781 76.667969 55.449219 77.1875 57.570312 C 77.152344 57.582031 77.117188 57.597656 77.085938 57.625 C 76.871094 57.808594 73.910156 60.238281 72.351562 61.144531 C 71.488281 61.648438 70.378906 62.242188 69.167969 62.664062 C 68.261719 62.976562 67.296875 63.195312 66.335938 63.195312 C 66.058594 63.195312 65.785156 63.175781 65.519531 63.140625 C 64.492188 63.003906 63.609375 62.5625 62.964844 61.871094 C 62.539062 61.410156 62.195312 60.859375 61.921875 60.199219 C 62.355469 57.988281 63.121094 55.847656 64.179688 53.847656 Z M 61.417969 62.675781 C 61.472656 62.027344 61.546875 61.398438 61.652344 60.769531 C 61.917969 61.316406 62.234375 61.785156 62.613281 62.195312 C 63.324219 62.960938 64.332031 63.464844 65.457031 63.613281 C 65.742188 63.652344 66.035156 63.671875 66.335938 63.671875 C 67.679688 63.671875 69.46875 63.53125 72.929688 61.40625 C 74.5625 60.40625 77.195312 57.847656 77.246094 57.800781 C 77.390625 58.394531 77.527344 58.949219 77.609375 59.425781 C 77.945312 61.359375 74.984375 64.230469 70.550781 66.039062 C 69.34375 66.535156 68.96875 66.601562 68.179688 66.769531 C 67.601562 66.894531 67.039062 66.957031 66.507812 66.957031 C 64.484375 66.957031 63.238281 66.078125 62.554688 65.339844 C 61.640625 64.355469 61.371094 63.289062 61.417969 62.675781 Z M 54.238281 75.824219 C 51.480469 74.722656 49.527344 72.386719 50.03125 69.355469 C 50.609375 65.914062 53.574219 63.726562 56.292969 61.914062 C 57.882812 60.851562 59.558594 59.941406 61.296875 59.195312 C 61.042969 60.363281 60.871094 61.53125 60.78125 62.65625 C 60.78125 62.65625 60.78125 62.660156 60.78125 62.660156 C 60.652344 65.097656 63.011719 67.023438 65.203125 67.472656 C 67.699219 67.984375 70.410156 67.066406 72.710938 65.695312 C 73.757812 65.074219 74.71875 64.359375 75.535156 63.640625 C 76.5625 62.746094 77.628906 61.585938 77.964844 60.230469 C 78.101562 59.6875 77.972656 59.15625 77.851562 58.625 C 77.71875 58.011719 77.5625 57.40625 77.417969 56.800781 C 86.132812 58.363281 92.449219 63.925781 92.824219 68.488281 C 91.792969 67.175781 90.660156 66.226562 89.449219 65.609375 C 85.449219 63.558594 80.589844 65.074219 75.703125 68.566406 C 75.589844 68.644531 75.472656 68.730469 75.359375 68.8125 C 74.792969 69.230469 74.222656 69.671875 73.65625 70.136719 C 73.429688 70.324219 73.203125 70.515625 72.976562 70.710938 C 70.425781 72.894531 61.359375 78.664062 54.238281 75.824219 Z M 77.320312 73.152344 C 76.542969 72.671875 75.886719 72.175781 75.496094 71.3125 C 75.496094 71.3125 76.949219 72.171875 77.296875 72.402344 C 77.664062 72.648438 78.410156 72.96875 78.617188 72.304688 C 78.785156 71.753906 78.691406 70.839844 79.648438 71.019531 C 80.234375 71.125 80.519531 71.976562 81.035156 72.234375 C 81.847656 72.644531 82.152344 72.003906 81.695312 71.34375 C 81.382812 70.890625 81.046875 70.148438 81.488281 69.675781 C 81.707031 69.980469 81.621094 70.394531 81.816406 70.714844 C 82.003906 71.03125 82.429688 71.210938 82.761719 71.363281 C 83.285156 71.601562 84.445312 71.710938 84.273438 72.578125 C 83.96875 72.394531 83.546875 72.285156 83.210938 72.472656 C 82.65625 72.785156 82.867188 73.519531 82.203125 73.824219 C 81.472656 74.164062 81.09375 73.785156 80.675781 73.257812 C 80.269531 72.742188 79.441406 72.734375 79.328125 73.460938 C 79.230469 74.070312 78.949219 74.875 78.183594 74.933594 C 78.585938 74.328125 77.800781 73.445312 77.320312 73.152344 Z M 71.609375 81.960938 C 71.582031 81.976562 71.554688 81.992188 71.527344 82.007812 C 71.484375 82.03125 71.4375 82.058594 71.394531 82.082031 C 71.324219 82.117188 71.253906 82.15625 71.183594 82.191406 C 71.140625 82.214844 71.09375 82.234375 71.050781 82.257812 C 70.980469 82.292969 70.910156 82.324219 70.839844 82.355469 C 70.796875 82.375 70.753906 82.390625 70.710938 82.410156 C 70.636719 82.441406 70.5625 82.46875 70.488281 82.496094 C 70.449219 82.507812 70.410156 82.523438 70.371094 82.539062 C 70.285156 82.566406 70.203125 82.59375 70.117188 82.617188 C 70.089844 82.625 70.0625 82.632812 70.039062 82.640625 C 69.925781 82.671875 69.816406 82.695312 69.707031 82.714844 C 69.683594 82.722656 69.65625 82.722656 69.632812 82.726562 C 69.546875 82.742188 69.464844 82.753906 69.382812 82.761719 C 69.34375 82.765625 69.304688 82.769531 69.265625 82.769531 C 69.199219 82.777344 69.132812 82.78125 69.066406 82.78125 C 69.050781 82.78125 69.039062 82.78125 69.023438 82.78125 C 68.988281 82.78125 68.949219 82.78125 68.914062 82.777344 C 68.871094 82.777344 68.828125 82.777344 68.785156 82.773438 C 68.730469 82.769531 68.679688 82.761719 68.625 82.753906 C 68.585938 82.75 68.542969 82.746094 68.503906 82.738281 C 68.449219 82.726562 68.398438 82.714844 68.34375 82.703125 C 68.304688 82.695312 68.265625 82.6875 68.230469 82.675781 C 68.175781 82.660156 68.121094 82.640625 68.070312 82.621094 C 68.035156 82.609375 67.996094 82.597656 67.960938 82.585938 C 67.90625 82.5625 67.855469 82.535156 67.800781 82.511719 C 67.769531 82.496094 67.738281 82.480469 67.703125 82.464844 C 67.648438 82.433594 67.59375 82.398438 67.539062 82.367188 C 67.511719 82.347656 67.484375 82.332031 67.457031 82.316406 C 67.394531 82.273438 67.335938 82.226562 67.273438 82.179688 C 67.253906 82.164062 67.234375 82.148438 67.21875 82.132812 C 67.140625 82.066406 67.0625 81.996094 66.988281 81.917969 C 66.894531 81.824219 66.808594 81.726562 66.71875 81.628906 C 66.699219 81.609375 66.679688 81.585938 66.660156 81.566406 C 66.484375 81.363281 66.3125 81.160156 66.148438 80.949219 C 66.136719 80.933594 66.121094 80.914062 66.109375 80.894531 C 65.941406 80.679688 65.785156 80.460938 65.636719 80.238281 C 65.628906 80.226562 65.621094 80.214844 65.613281 80.203125 C 65.460938 79.976562 65.320312 79.75 65.191406 79.519531 C 65.1875 79.511719 65.179688 79.5 65.175781 79.492188 C 65.109375 79.378906 65.050781 79.265625 64.988281 79.152344 C 64.929688 79.042969 64.875 78.929688 64.824219 78.820312 C 64.8125 78.800781 64.804688 78.78125 64.796875 78.761719 C 64.753906 78.675781 64.714844 78.589844 64.679688 78.503906 C 64.667969 78.480469 64.65625 78.453125 64.644531 78.429688 C 64.609375 78.34375 64.574219 78.261719 64.542969 78.179688 C 64.539062 78.171875 64.539062 78.167969 64.535156 78.160156 C 64.515625 78.113281 64.5 78.066406 64.484375 78.019531 C 64.472656 77.988281 64.457031 77.953125 64.449219 77.921875 C 64.441406 77.90625 64.4375 77.886719 64.429688 77.871094 C 64.40625 77.800781 64.382812 77.726562 64.363281 77.65625 C 64.347656 77.609375 64.332031 77.5625 64.320312 77.515625 C 64.300781 77.449219 64.285156 77.386719 64.269531 77.324219 C 64.257812 77.28125 64.246094 77.234375 64.238281 77.191406 C 64.222656 77.117188 64.210938 77.046875 64.199219 76.976562 C 64.191406 76.945312 64.1875 76.914062 64.183594 76.886719 C 64.171875 76.816406 64.167969 76.75 64.160156 76.683594 C 64.308594 76.636719 64.457031 76.585938 64.605469 76.535156 C 65.394531 76.253906 66.152344 75.921875 66.882812 75.542969 C 66.796875 75.703125 66.710938 75.867188 66.632812 76.039062 C 66.554688 76.207031 66.484375 76.378906 66.429688 76.574219 C 66.414062 76.625 66.402344 76.675781 66.390625 76.738281 C 66.386719 76.765625 66.382812 76.808594 66.382812 76.851562 C 66.382812 76.867188 66.382812 76.902344 66.390625 76.933594 C 66.394531 76.953125 66.398438 76.96875 66.402344 76.984375 L 66.40625 76.996094 L 66.40625 77.003906 C 66.441406 77.085938 66.417969 77.027344 66.425781 77.046875 L 66.429688 77.054688 L 66.4375 77.066406 L 66.453125 77.09375 C 66.476562 77.128906 66.507812 77.160156 66.535156 77.1875 C 66.5625 77.207031 66.585938 77.226562 66.609375 77.238281 C 66.625 77.246094 66.636719 77.257812 66.648438 77.261719 C 66.722656 77.296875 66.777344 77.308594 66.832031 77.320312 C 67.046875 77.359375 67.214844 77.347656 67.378906 77.339844 C 67.542969 77.324219 67.691406 77.300781 67.828125 77.273438 C 67.957031 77.246094 68.078125 77.21875 68.183594 77.1875 C 68.292969 77.15625 68.390625 77.125 68.46875 77.097656 C 68.621094 77.042969 68.707031 77.003906 68.707031 77.003906 C 68.707031 77.003906 68.613281 76.988281 68.457031 76.972656 C 68.296875 76.953125 68.070312 76.933594 67.808594 76.90625 C 67.675781 76.890625 67.535156 76.878906 67.386719 76.859375 C 67.257812 76.84375 67.121094 76.820312 67.011719 76.785156 C 67.015625 76.773438 67.019531 76.765625 67.019531 76.753906 C 67.074219 76.617188 67.140625 76.457031 67.214844 76.300781 C 67.355469 75.988281 67.507812 75.671875 67.640625 75.367188 C 67.6875 75.257812 67.734375 75.152344 67.777344 75.050781 C 68.75 74.488281 69.675781 73.855469 70.570312 73.175781 C 70.996094 72.855469 71.414062 72.527344 71.824219 72.191406 C 72.71875 72.007812 73.28125 72.144531 73.636719 72.382812 C 73.277344 72.21875 72.78125 72.152344 72.105469 72.308594 C 70.308594 72.730469 70.339844 74.671875 70.339844 74.675781 C 70.507812 74.097656 70.902344 73.605469 71.386719 73.28125 C 71.65625 73.773438 72.144531 74.0625 72.710938 74.203125 L 71.925781 74.445312 L 72.4375 74.386719 L 75.53125 74.035156 L 75.234375 73.90625 L 74.578125 73.628906 C 74.578125 73.628906 74.527344 73.292969 74.296875 72.949219 C 74.105469 72.484375 73.566406 71.769531 72.078125 71.984375 C 72.351562 71.757812 72.625 71.53125 72.898438 71.296875 C 72.945312 71.289062 72.988281 71.277344 73.035156 71.269531 C 73.425781 71.789062 73.945312 72.3125 74.628906 72.8125 C 75.046875 73.121094 75.691406 73.386719 76.144531 73.765625 C 76.378906 73.957031 76.5625 74.179688 76.644531 74.453125 C 76.710938 74.675781 76.566406 74.8125 76.40625 74.953125 C 76.125 75.195312 75.785156 75.449219 76.382812 76.164062 C 76.40625 76.195312 76.4375 76.222656 76.464844 76.25 C 76.792969 76.542969 77.367188 76.582031 77.988281 76.441406 C 77.679688 76.785156 77.347656 77.300781 77.167969 77.46875 C 77.007812 77.617188 76.265625 77.796875 75.890625 77.878906 C 75.425781 78.527344 74.945312 79.046875 74.578125 79.453125 C 73.664062 80.480469 72.632812 81.363281 71.605469 81.960938 C 71.605469 81.960938 71.609375 81.960938 71.609375 81.960938 Z M 70.527344 83.574219 C 70.53125 84.179688 70.390625 84.714844 70.105469 85.175781 C 69.890625 85.519531 69.449219 85.644531 68.582031 85.738281 C 67.824219 84.71875 67.011719 84.148438 66.117188 84.007812 C 65.933594 83.582031 65.695312 83.128906 65.398438 82.644531 L 66.246094 82.644531 C 67.003906 83.421875 67.9375 83.816406 69.023438 83.816406 C 69.386719 83.816406 69.769531 83.769531 70.164062 83.675781 C 70.28125 83.644531 70.402344 83.613281 70.527344 83.574219 Z M 66.929688 76.75 C 66.929688 76.75 66.933594 76.753906 66.933594 76.753906 C 66.929688 76.75 66.925781 76.75 66.921875 76.746094 C 66.917969 76.742188 66.925781 76.742188 66.929688 76.75 Z M 73.195312 73.722656 L 73.210938 73.722656 C 73.480469 73.722656 73.71875 73.59375 73.878906 73.398438 C 73.976562 73.503906 74.0625 73.625 74.144531 73.761719 L 73.542969 73.945312 L 73.289062 73.984375 C 72.65625 73.902344 72.085938 73.617188 71.871094 73.023438 C 72.019531 72.964844 72.175781 72.917969 72.328125 72.894531 C 72.335938 73.039062 72.375 73.171875 72.445312 73.292969 C 72.472656 73.273438 72.5 73.261719 72.539062 73.261719 L 72.546875 73.261719 C 72.707031 73.261719 72.742188 73.445312 72.65625 73.535156 C 72.804688 73.652344 72.992188 73.722656 73.195312 73.722656 Z M 58.46875 85.824219 C 58.46875 83.925781 61.265625 80.710938 61.996094 79.902344 C 62.730469 80.710938 65.527344 83.925781 65.527344 85.824219 C 65.527344 87.984375 63.941406 89.742188 61.996094 89.742188 C 60.050781 89.742188 58.46875 87.984375 58.46875 85.824219 Z M 60.886719 90.046875 C 61.238281 90.15625 61.613281 90.21875 61.996094 90.21875 C 64.207031 90.21875 66.003906 88.246094 66.003906 85.824219 C 66.003906 85.570312 65.960938 85.300781 65.886719 85.019531 C 67.375 85.144531 68.136719 86.472656 68.339844 86.800781 C 67.21875 88.585938 65.972656 89.140625 64.9375 92.292969 C 64.953125 92.511719 65.066406 92.78125 65.261719 93.074219 C 65.078125 93.382812 64.914062 93.757812 64.777344 94.199219 C 64.585938 94.820312 63.722656 95.453125 63.0625 95.453125 C 63.277344 94.292969 63.878906 93.253906 64.085938 92.679688 C 63.449219 93.316406 62.851562 94.210938 62.460938 95.164062 C 61.652344 94.503906 60.097656 93.148438 59.640625 92.753906 C 59.640625 92.75 59.636719 92.75 59.636719 92.75 C 59.632812 92.730469 59.628906 92.710938 59.625 92.695312 C 60.066406 91.691406 60.484375 90.8125 60.886719 90.046875 Z M 63.6875 101.089844 C 63.601562 101.019531 63.511719 100.953125 63.421875 100.886719 C 63.390625 100.863281 63.359375 100.84375 63.328125 100.820312 C 63.269531 100.777344 63.210938 100.734375 63.148438 100.691406 C 63.097656 100.660156 63.046875 100.628906 63 100.597656 C 62.953125 100.570312 62.910156 100.539062 62.863281 100.511719 C 62.800781 100.472656 62.738281 100.433594 62.671875 100.398438 C 62.640625 100.378906 62.605469 100.355469 62.574219 100.335938 C 62.496094 100.296875 62.421875 100.253906 62.347656 100.210938 C 62.324219 100.199219 62.300781 100.1875 62.273438 100.175781 C 62.191406 100.128906 62.105469 100.085938 62.015625 100.042969 C 62.003906 100.035156 61.988281 100.027344 61.972656 100.019531 C 61.878906 99.972656 61.785156 99.925781 61.6875 99.882812 C 61.679688 99.878906 61.675781 99.875 61.667969 99.875 C 61.566406 99.824219 61.464844 99.777344 61.359375 99.734375 C 58.601562 98.53125 55.425781 98.144531 55.425781 98.144531 L 53.859375 96.207031 C 53.859375 96.207031 53.992188 95.964844 54.34375 95.964844 C 54.726562 95.964844 55.371094 96.246094 56.386719 97.421875 L 56.976562 97.523438 L 57.460938 97.605469 L 55.03125 95.429688 L 53.964844 92.289062 C 53.964844 92.289062 54.199219 92.195312 54.488281 92.195312 C 54.808594 92.195312 55.199219 92.308594 55.414062 92.773438 C 55.824219 93.660156 56.050781 94.8125 56.105469 94.890625 L 58.351562 96.796875 L 58.71875 96.457031 L 56.386719 94.59375 L 55.292969 90.519531 C 55.292969 90.519531 55.367188 90.484375 55.488281 90.484375 C 55.863281 90.484375 56.703125 90.84375 57.253906 93.804688 L 59.378906 95.800781 L 59.710938 95.375 L 57.808594 93.4375 L 57.320312 90.15625 C 57.320312 90.15625 57.460938 90.023438 57.679688 90.023438 C 58.078125 90.023438 58.726562 90.46875 59.199219 93 C 59.199219 93 61.527344 95.039062 62.371094 95.707031 C 62.566406 95.859375 62.804688 95.929688 63.0625 95.929688 C 63.921875 95.929688 64.976562 95.175781 65.234375 94.339844 C 65.894531 92.203125 67.226562 91.972656 67.761719 91.972656 C 67.910156 91.972656 67.996094 91.992188 67.996094 91.992188 C 67.996094 91.992188 66.871094 94.117188 66.617188 96.113281 C 66.46875 97.292969 66.625 98.425781 67.5 99.050781 L 68.488281 99.480469 L 68.484375 99.484375 L 68.632812 99.542969 L 71.097656 100.613281 L 71.15625 101.359375 L 71.792969 109.269531 L 69.4375 107.109375 L 69.433594 107.105469 C 67.144531 104.632812 64.941406 102.105469 63.6875 101.089844 Z M 67.292969 95.152344 C 68.390625 95.777344 69.753906 96.230469 71.234375 96.230469 C 72.234375 96.230469 73.210938 96.019531 74.144531 95.605469 C 74.011719 96.023438 73.890625 96.414062 73.785156 96.765625 C 73.605469 97.34375 73.453125 97.828125 73.355469 98.113281 C 72.898438 97.949219 72.121094 97.738281 71.375 97.738281 C 70.921875 97.738281 70.539062 97.816406 70.230469 97.96875 C 69.488281 98.339844 69 98.839844 68.785156 99.089844 L 67.738281 98.632812 C 67.160156 98.191406 66.941406 97.367188 67.09375 96.171875 C 67.136719 95.835938 67.207031 95.488281 67.292969 95.152344 Z M 81.683594 84.816406 C 82.101562 84.816406 82.546875 84.851562 83.007812 85.050781 C 85.84375 86.273438 86.960938 87.597656 87.472656 88.71875 C 90.90625 96.832031 85.234375 109.394531 81.242188 114.007812 C 78.953125 116.648438 76.210938 116.3125 74.453125 115.28125 C 73.808594 114.902344 71.511719 113.617188 69.234375 107.570312 L 72.367188 110.445312 L 71.542969 100.175781 L 69.261719 99.277344 C 69.484375 99.039062 69.886719 98.671875 70.445312 98.394531 C 70.683594 98.277344 70.996094 98.21875 71.375 98.21875 C 72.191406 98.21875 73.054688 98.492188 73.398438 98.640625 L 73.613281 98.730469 L 73.710938 98.519531 C 73.808594 98.308594 73.980469 97.75 74.242188 96.90625 C 75.074219 94.210938 76.804688 88.609375 78.625 86.492188 C 79.667969 85.332031 80.609375 84.816406 81.683594 84.816406 Z M 79.410156 85.121094 C 79.03125 85.394531 78.652344 85.746094 78.265625 86.175781 C 77.828125 86.683594 77.40625 87.363281 76.996094 88.144531 C 76.851562 88.164062 76.703125 88.179688 76.554688 88.195312 C 76.3125 88.222656 76.070312 88.261719 75.828125 88.296875 C 75.585938 88.328125 75.34375 88.363281 75.101562 88.402344 C 74.863281 88.445312 74.621094 88.484375 74.382812 88.527344 C 74.140625 88.574219 73.898438 88.617188 73.660156 88.667969 L 73.578125 88.683594 L 73.539062 88.734375 L 73.226562 89.164062 L 72.925781 89.601562 C 72.730469 89.894531 72.535156 90.191406 72.355469 90.5 C 72.621094 90.261719 72.867188 90.007812 73.117188 89.757812 L 73.484375 89.371094 L 73.785156 89.042969 C 74.007812 89.019531 74.226562 88.992188 74.449219 88.964844 C 74.691406 88.9375 74.933594 88.90625 75.175781 88.871094 C 75.417969 88.835938 75.660156 88.800781 75.898438 88.757812 C 76.140625 88.71875 76.382812 88.683594 76.621094 88.636719 C 76.667969 88.628906 76.714844 88.621094 76.761719 88.613281 C 76.574219 88.996094 76.390625 89.398438 76.214844 89.816406 C 75.488281 91.507812 74.847656 93.394531 74.335938 94.996094 C 73.355469 95.5 72.320312 95.753906 71.234375 95.753906 C 70.355469 95.753906 69.519531 95.578125 68.761719 95.300781 L 69.699219 93.628906 C 69.699219 93.628906 68.277344 94.261719 67.824219 94.886719 C 67.6875 94.816406 67.554688 94.742188 67.429688 94.667969 C 67.832031 93.335938 68.414062 92.226562 68.421875 92.210938 L 68.722656 91.644531 L 68.089844 91.523438 C 68.066406 91.515625 67.945312 91.496094 67.761719 91.496094 C 67.546875 91.496094 67.21875 91.527344 66.855469 91.660156 C 66.386719 91.832031 65.851562 92.175781 65.398438 92.851562 C 65.277344 92.652344 65.203125 92.472656 65.179688 92.320312 C 65.859375 90.273438 66.640625 89.34375 67.398438 88.441406 C 67.777344 87.992188 68.167969 87.523438 68.542969 86.925781 L 68.621094 86.800781 L 68.605469 86.773438 C 69.492188 86.683594 70.285156 86.542969 70.796875 85.972656 C 70.828125 85.9375 70.859375 85.902344 70.886719 85.863281 C 70.90625 85.835938 70.925781 85.808594 70.945312 85.78125 C 70.960938 85.761719 70.976562 85.742188 70.988281 85.71875 C 71.003906 85.699219 71.015625 85.675781 71.027344 85.65625 C 71.050781 85.613281 71.074219 85.574219 71.097656 85.53125 C 71.125 85.488281 71.144531 85.441406 71.167969 85.394531 C 71.167969 85.394531 71.167969 85.390625 71.171875 85.390625 C 71.179688 85.375 71.183594 85.359375 71.191406 85.347656 C 71.21875 85.292969 71.242188 85.234375 71.265625 85.179688 C 71.269531 85.175781 71.269531 85.167969 71.273438 85.164062 C 71.296875 85.105469 71.316406 85.050781 71.335938 84.992188 C 71.339844 84.988281 71.339844 84.980469 71.34375 84.976562 C 71.363281 84.921875 71.378906 84.871094 71.394531 84.816406 C 71.398438 84.808594 71.398438 84.800781 71.402344 84.792969 C 71.417969 84.742188 71.429688 84.6875 71.445312 84.636719 C 71.445312 84.628906 71.449219 84.621094 71.449219 84.613281 C 71.460938 84.558594 71.476562 84.503906 71.484375 84.453125 C 71.484375 84.449219 71.488281 84.445312 71.488281 84.441406 C 71.566406 84.03125 71.582031 83.628906 71.554688 83.253906 C 71.554688 83.253906 71.554688 83.25 71.554688 83.25 C 71.550781 83.199219 71.546875 83.144531 71.539062 83.09375 C 71.539062 83.09375 71.539062 83.089844 71.539062 83.089844 C 71.523438 82.914062 71.496094 82.746094 71.464844 82.585938 C 72.609375 82 73.800781 81.042969 74.9375 79.769531 L 75.066406 79.628906 C 75.300781 79.367188 75.578125 79.058594 75.863281 78.703125 C 75.964844 78.578125 76.070312 78.445312 76.171875 78.304688 C 76.203125 78.296875 76.226562 78.289062 76.253906 78.285156 C 76.273438 78.277344 76.296875 78.273438 76.316406 78.269531 C 76.332031 79.820312 76.410156 81.8125 76.867188 83.75 C 76.882812 83.808594 76.898438 83.863281 76.914062 83.914062 C 76.929688 83.960938 76.945312 84.007812 76.964844 84.050781 C 77.34375 85.023438 78.238281 84.96875 79.410156 85.121094 Z M 87.554688 79.125 C 85.214844 80.550781 84.882812 78.808594 84.347656 78.828125 C 83 78.875 82.484375 80.519531 80.964844 79.871094 C 80.480469 79.664062 80.285156 79.285156 79.703125 79.441406 C 79.085938 79.609375 78.183594 80.152344 78.503906 80.949219 C 76.65625 80.195312 77.8125 78.546875 78.570312 77.433594 C 78.570312 77.433594 78.148438 79.828125 79.59375 78.296875 C 80.578125 77.253906 81.203125 79.019531 82.070312 78.808594 C 83.140625 78.542969 83.855469 75.957031 84.851562 77.304688 C 85.203125 77.785156 85.601562 78.472656 86.144531 78.804688 C 86.550781 79.054688 87.101562 79.058594 87.554688 79.125 Z M 85.9375 72.542969 C 85.144531 70.546875 83.429688 71.640625 82.804688 70.160156 C 82.128906 68.566406 82.964844 67.195312 82.203125 66.144531 C 82.097656 65.996094 81.988281 65.855469 81.871094 65.722656 C 82.4375 65.539062 83.015625 65.382812 83.601562 65.265625 C 87.164062 64.550781 90.28125 66.035156 92.539062 68.769531 C 92.730469 69 92.835938 69.121094 92.890625 69.171875 C 92.921875 70.421875 92.394531 71.328125 91.871094 71.648438 C 90.1875 72.667969 87.902344 73.035156 85.9375 72.542969 Z M 72.046875 76.679688 C 72.046875 76.679688 72.023438 76.691406 71.980469 76.710938 C 71.9375 76.730469 71.878906 76.765625 71.816406 76.820312 C 71.6875 76.929688 71.546875 77.125 71.390625 77.375 C 71.3125 77.5 71.230469 77.640625 71.132812 77.785156 C 71.035156 77.929688 70.929688 78.082031 70.804688 78.234375 C 70.78125 78.261719 70.757812 78.289062 70.734375 78.3125 C 70.722656 78.332031 70.707031 78.347656 70.691406 78.359375 C 70.59375 78.46875 70.484375 78.574219 70.355469 78.667969 C 70.175781 78.800781 69.988281 78.890625 69.800781 78.984375 C 69.421875 79.164062 69.019531 79.289062 68.632812 79.351562 C 68.441406 79.386719 68.253906 79.402344 68.074219 79.410156 C 67.898438 79.417969 67.730469 79.414062 67.578125 79.40625 C 67.546875 79.402344 67.519531 79.398438 67.492188 79.398438 C 67.445312 79.394531 67.398438 79.390625 67.355469 79.386719 C 67.289062 79.378906 67.222656 79.367188 67.160156 79.359375 C 67.035156 79.34375 66.929688 79.316406 66.84375 79.296875 C 66.671875 79.253906 66.574219 79.226562 66.574219 79.226562 C 66.574219 79.226562 66.675781 79.214844 66.851562 79.203125 C 66.9375 79.195312 67.042969 79.1875 67.164062 79.175781 C 67.25 79.167969 67.339844 79.160156 67.4375 79.148438 C 67.480469 79.140625 67.523438 79.136719 67.566406 79.132812 C 67.714844 79.113281 67.871094 79.085938 68.035156 79.058594 C 68.199219 79.027344 68.371094 78.984375 68.542969 78.941406 C 68.890625 78.847656 69.253906 78.71875 69.597656 78.554688 C 69.769531 78.472656 69.941406 78.386719 70.085938 78.292969 C 70.1875 78.222656 70.285156 78.140625 70.375 78.054688 C 70.414062 78.019531 70.453125 77.988281 70.488281 77.949219 C 70.742188 77.699219 70.960938 77.429688 71.175781 77.207031 C 71.382812 76.984375 71.59375 76.8125 71.765625 76.742188 C 71.851562 76.703125 71.921875 76.691406 71.972656 76.683594 C 72.019531 76.679688 72.046875 76.679688 72.046875 76.679688 Z M 74.464844 74.820312 L 73.726562 74.382812 L 74.21875 74.328125 Z M 75.089844 74.765625 L 74.355469 74.328125 L 74.84375 74.273438 Z M 78.710938 101.808594 C 78.847656 102.003906 79 102.203125 79.125 102.417969 C 79.191406 102.523438 79.257812 102.632812 79.324219 102.738281 C 79.386719 102.851562 79.445312 102.960938 79.503906 103.074219 C 79.628906 103.296875 79.734375 103.535156 79.839844 103.769531 C 79.9375 104.007812 80.03125 104.25 80.121094 104.492188 C 80.277344 104.984375 80.417969 105.484375 80.503906 105.980469 C 80.550781 106.230469 80.597656 106.476562 80.617188 106.726562 C 80.640625 106.972656 80.675781 107.214844 80.679688 107.453125 C 80.683594 107.691406 80.707031 107.925781 80.695312 108.15625 C 80.691406 108.386719 80.683594 108.609375 80.675781 108.828125 C 80.636719 109.261719 80.605469 109.671875 80.535156 110.046875 C 80.503906 110.230469 80.472656 110.410156 80.445312 110.578125 C 80.402344 110.746094 80.367188 110.90625 80.332031 111.054688 C 80.292969 111.203125 80.261719 111.34375 80.226562 111.46875 C 80.191406 111.597656 80.148438 111.710938 80.117188 111.816406 C 80.054688 112.027344 79.992188 112.1875 79.957031 112.296875 C 79.914062 112.410156 79.894531 112.46875 79.894531 112.46875 C 79.894531 112.46875 79.894531 112.40625 79.890625 112.285156 C 79.894531 112.171875 79.890625 111.996094 79.898438 111.78125 C 79.898438 111.671875 79.90625 111.554688 79.90625 111.421875 C 79.902344 111.292969 79.902344 111.152344 79.902344 111.003906 C 79.902344 110.855469 79.902344 110.695312 79.90625 110.527344 C 79.898438 110.359375 79.894531 110.1875 79.890625 110.003906 C 79.886719 109.820312 79.886719 109.632812 79.867188 109.4375 C 79.855469 109.242188 79.847656 109.039062 79.835938 108.832031 C 79.816406 108.628906 79.792969 108.417969 79.773438 108.203125 C 79.753906 107.988281 79.71875 107.769531 79.691406 107.546875 C 79.566406 106.664062 79.363281 105.738281 79.0625 104.851562 C 78.984375 104.628906 78.902344 104.410156 78.816406 104.191406 C 78.71875 103.980469 78.644531 103.761719 78.535156 103.554688 C 78.347656 103.132812 78.117188 102.742188 77.894531 102.363281 C 77.652344 101.992188 77.417969 101.632812 77.164062 101.3125 C 76.910156 100.992188 76.660156 100.695312 76.414062 100.433594 C 76.265625 100.273438 76.121094 100.128906 75.980469 99.992188 C 75.65625 99.675781 75.359375 99.421875 75.125 99.230469 C 74.789062 98.960938 74.578125 98.820312 74.578125 98.820312 C 74.578125 98.820312 74.640625 98.832031 74.753906 98.867188 C 74.867188 98.90625 75.035156 98.953125 75.238281 99.042969 C 75.441406 99.128906 75.691406 99.238281 75.960938 99.390625 C 76.234375 99.539062 76.53125 99.726562 76.839844 99.953125 C 76.863281 99.96875 76.886719 99.988281 76.910156 100.007812 C 77.199219 100.21875 77.496094 100.472656 77.789062 100.757812 C 78.109375 101.066406 78.414062 101.421875 78.710938 101.808594 Z M 68.796875 76.132812 C 68.742188 76.015625 68.707031 75.9375 68.707031 75.9375 C 68.707031 75.9375 68.730469 75.921875 68.773438 75.914062 C 68.8125 75.902344 68.871094 75.890625 68.941406 75.898438 C 69.011719 75.90625 69.085938 75.929688 69.160156 75.972656 C 69.195312 75.996094 69.234375 76.023438 69.265625 76.054688 C 69.300781 76.085938 69.328125 76.121094 69.355469 76.160156 C 69.378906 76.195312 69.398438 76.238281 69.417969 76.28125 C 69.433594 76.320312 69.441406 76.367188 69.449219 76.40625 C 69.460938 76.492188 69.453125 76.570312 69.429688 76.636719 C 69.414062 76.703125 69.378906 76.753906 69.355469 76.785156 C 69.328125 76.820312 69.308594 76.839844 69.308594 76.839844 C 69.308594 76.839844 69.289062 76.820312 69.257812 76.789062 C 69.246094 76.777344 69.226562 76.757812 69.210938 76.738281 C 69.195312 76.722656 69.175781 76.703125 69.15625 76.679688 C 69.136719 76.660156 69.121094 76.636719 69.101562 76.617188 C 69.082031 76.59375 69.066406 76.570312 69.050781 76.550781 C 69.03125 76.53125 69.015625 76.507812 69 76.484375 C 68.980469 76.464844 68.972656 76.441406 68.953125 76.421875 C 68.898438 76.335938 68.84375 76.234375 68.796875 76.132812 Z M 70.09375 80.804688 C 70.09375 80.804688 70.058594 80.816406 70.003906 80.832031 C 69.976562 80.839844 69.945312 80.847656 69.910156 80.851562 C 69.871094 80.859375 69.832031 80.875 69.792969 80.882812 C 69.75 80.890625 69.707031 80.902344 69.660156 80.914062 C 69.617188 80.921875 69.570312 80.933594 69.523438 80.945312 C 69.476562 80.957031 69.425781 80.964844 69.378906 80.976562 C 69.328125 80.988281 69.277344 81 69.230469 81.011719 C 69.179688 81.019531 69.128906 81.035156 69.078125 81.046875 C 69.027344 81.054688 68.980469 81.066406 68.929688 81.078125 C 68.832031 81.097656 68.734375 81.113281 68.648438 81.128906 C 68.617188 81.132812 68.589844 81.136719 68.5625 81.140625 C 68.511719 81.148438 68.464844 81.152344 68.429688 81.15625 C 68.375 81.164062 68.339844 81.164062 68.339844 81.164062 C 68.339844 81.164062 68.347656 81.132812 68.375 81.082031 C 68.402344 81.027344 68.449219 80.960938 68.515625 80.890625 C 68.644531 80.746094 68.867188 80.605469 69.121094 80.546875 C 69.246094 80.519531 69.378906 80.507812 69.503906 80.523438 C 69.5625 80.527344 69.621094 80.539062 69.675781 80.554688 C 69.71875 80.566406 69.757812 80.582031 69.792969 80.597656 C 69.804688 80.601562 69.816406 80.601562 69.828125 80.609375 C 69.917969 80.648438 69.984375 80.699219 70.027344 80.738281 C 70.070312 80.777344 70.09375 80.804688 70.09375 80.804688 Z M 70.09375 80.804688 " fill-opacity="1" fill-rule="nonzero"/><path fill="#000000" d="M 76.214844 89.816406 C 74.0625 89.84375 72.082031 90.835938 72.082031 90.835938 L 72.355469 90.5 C 72.621094 90.261719 72.867188 90.007812 73.117188 89.757812 L 73.484375 89.371094 L 73.785156 89.042969 C 74.007812 89.019531 74.226562 88.992188 74.449219 88.964844 C 74.691406 88.941406 74.933594 88.90625 75.175781 88.871094 C 75.417969 88.835938 75.660156 88.800781 75.898438 88.761719 C 76.140625 88.71875 76.382812 88.683594 76.621094 88.636719 C 76.667969 88.628906 76.714844 88.621094 76.761719 88.613281 C 76.574219 88.996094 76.390625 89.398438 76.214844 89.816406 Z M 76.898438 84.109375 C 76.179688 84.769531 71.867188 88.613281 71.867188 88.613281 C 71.867188 88.613281 71.558594 87.875 71.273438 87.171875 C 71.207031 87.246094 71.144531 87.320312 71.085938 87.394531 C 70.453125 88.199219 71.007812 90.875 71.007812 90.875 C 71.007812 90.875 68.835938 89.988281 68 90.425781 C 67.484375 90.699219 67.121094 91.15625 66.855469 91.660156 C 66.386719 91.832031 65.855469 92.175781 65.402344 92.851562 C 65.277344 92.652344 65.203125 92.472656 65.179688 92.320312 C 65.859375 90.273438 66.640625 89.34375 67.398438 88.441406 C 67.777344 87.992188 68.167969 87.523438 68.542969 86.925781 L 68.621094 86.800781 L 68.605469 86.773438 C 69.496094 86.683594 70.285156 86.542969 70.796875 85.972656 C 70.828125 85.9375 70.859375 85.902344 70.886719 85.863281 C 70.910156 85.835938 70.925781 85.808594 70.945312 85.78125 C 70.960938 85.761719 70.976562 85.742188 70.988281 85.71875 C 71.003906 85.699219 71.015625 85.675781 71.027344 85.65625 C 71.050781 85.613281 71.074219 85.574219 71.097656 85.53125 C 71.125 85.484375 71.144531 85.441406 71.167969 85.394531 C 71.167969 85.394531 71.167969 85.390625 71.171875 85.390625 C 71.179688 85.375 71.183594 85.363281 71.191406 85.347656 C 71.21875 85.289062 71.242188 85.234375 71.265625 85.179688 C 71.265625 85.175781 71.269531 85.175781 71.269531 85.171875 C 71.269531 85.167969 71.269531 85.167969 71.273438 85.164062 C 71.296875 85.105469 71.316406 85.050781 71.335938 84.992188 C 71.339844 84.988281 71.339844 84.984375 71.34375 84.980469 C 71.34375 84.980469 71.34375 84.976562 71.34375 84.976562 C 71.363281 84.921875 71.378906 84.871094 71.394531 84.816406 C 71.398438 84.808594 71.398438 84.800781 71.402344 84.792969 C 71.417969 84.738281 71.429688 84.6875 71.445312 84.636719 C 71.445312 84.628906 71.449219 84.621094 71.449219 84.613281 C 71.460938 84.558594 71.476562 84.503906 71.484375 84.453125 C 71.484375 84.449219 71.488281 84.445312 71.488281 84.441406 C 71.566406 84.03125 71.582031 83.628906 71.554688 83.253906 C 71.554688 83.253906 71.554688 83.25 71.554688 83.25 C 71.550781 83.195312 71.546875 83.144531 71.539062 83.09375 C 71.539062 83.09375 71.539062 83.089844 71.539062 83.089844 C 71.523438 82.914062 71.496094 82.746094 71.464844 82.585938 C 72.609375 82 73.800781 81.042969 74.9375 79.769531 L 75.066406 79.628906 C 75.300781 79.367188 75.578125 79.058594 75.863281 78.703125 C 75.964844 78.578125 76.070312 78.445312 76.171875 78.300781 C 76.203125 78.296875 76.226562 78.289062 76.253906 78.285156 C 76.273438 78.277344 76.296875 78.273438 76.316406 78.269531 C 76.332031 79.820312 76.410156 81.8125 76.867188 83.75 C 76.882812 83.808594 76.898438 83.863281 76.914062 83.914062 C 76.929688 83.960938 76.945312 84.007812 76.964844 84.050781 C 76.941406 84.070312 76.917969 84.089844 76.898438 84.109375 Z M 74.371094 82.085938 C 74.371094 82.085938 74.023438 82.828125 72.269531 83.320312 L 72.082031 86.832031 Z M 67.4375 78.242188 C 67.59375 78.140625 67.769531 78.066406 67.949219 78.015625 C 68.050781 77.671875 68.140625 77.339844 68.183594 77.1875 C 68.078125 77.214844 67.957031 77.246094 67.828125 77.273438 C 67.691406 77.300781 67.542969 77.324219 67.378906 77.335938 C 67.214844 77.347656 67.046875 77.359375 66.832031 77.320312 C 66.777344 77.308594 66.722656 77.296875 66.648438 77.261719 C 66.636719 77.253906 66.625 77.246094 66.609375 77.238281 C 66.199219 77.8125 65.527344 78.191406 64.765625 78.191406 C 64.691406 78.191406 64.617188 78.1875 64.542969 78.179688 C 64.574219 78.261719 64.609375 78.34375 64.644531 78.429688 C 64.65625 78.453125 64.667969 78.476562 64.675781 78.503906 C 64.714844 78.589844 64.753906 78.675781 64.796875 78.761719 C 64.804688 78.78125 64.8125 78.800781 64.824219 78.820312 C 64.875 78.929688 64.929688 79.039062 64.988281 79.152344 C 65.046875 79.265625 65.109375 79.378906 65.175781 79.492188 C 65.179688 79.5 65.183594 79.511719 65.191406 79.519531 C 65.320312 79.746094 65.460938 79.976562 65.613281 80.203125 C 65.621094 80.214844 65.628906 80.226562 65.636719 80.238281 C 65.785156 80.460938 65.941406 80.679688 66.105469 80.894531 C 66.121094 80.914062 66.136719 80.929688 66.148438 80.949219 C 66.3125 81.160156 66.484375 81.363281 66.660156 81.5625 C 66.679688 81.585938 66.699219 81.609375 66.71875 81.628906 C 66.804688 81.726562 66.894531 81.824219 66.988281 81.917969 C 67.0625 81.996094 67.136719 82.066406 67.214844 82.132812 C 67.234375 82.148438 67.253906 82.164062 67.273438 82.175781 C 67.335938 82.226562 67.394531 82.273438 67.457031 82.3125 C 67.484375 82.332031 67.511719 82.347656 67.539062 82.363281 C 67.59375 82.398438 67.648438 82.433594 67.703125 82.464844 C 67.734375 82.480469 67.769531 82.496094 67.800781 82.511719 C 67.855469 82.535156 67.90625 82.5625 67.960938 82.582031 C 67.996094 82.597656 68.035156 82.609375 68.070312 82.621094 C 68.121094 82.640625 68.175781 82.660156 68.230469 82.675781 C 68.265625 82.683594 68.304688 82.691406 68.34375 82.703125 C 68.398438 82.714844 68.449219 82.726562 68.503906 82.738281 C 68.542969 82.742188 68.585938 82.75 68.625 82.753906 C 68.679688 82.761719 68.730469 82.765625 68.785156 82.773438 C 68.828125 82.773438 68.871094 82.777344 68.914062 82.777344 C 68.964844 82.777344 69.015625 82.78125 69.066406 82.78125 C 69.132812 82.78125 69.199219 82.773438 69.265625 82.769531 C 69.304688 82.769531 69.34375 82.765625 69.382812 82.761719 C 69.464844 82.753906 69.546875 82.742188 69.628906 82.726562 C 69.65625 82.722656 69.679688 82.71875 69.707031 82.714844 C 69.816406 82.695312 69.925781 82.667969 70.035156 82.640625 C 70.0625 82.632812 70.089844 82.625 70.117188 82.617188 C 70.199219 82.59375 70.285156 82.566406 70.371094 82.539062 C 70.410156 82.523438 70.449219 82.507812 70.488281 82.496094 C 70.5625 82.46875 70.636719 82.441406 70.710938 82.410156 C 70.753906 82.390625 70.796875 82.371094 70.839844 82.355469 C 70.910156 82.324219 70.980469 82.289062 71.050781 82.257812 C 71.09375 82.234375 71.136719 82.214844 71.183594 82.191406 C 71.253906 82.15625 71.324219 82.117188 71.394531 82.078125 C 71.4375 82.054688 71.480469 82.03125 71.527344 82.007812 C 71.554688 81.992188 71.582031 81.976562 71.609375 81.960938 C 71.609375 81.960938 71.605469 81.960938 71.605469 81.960938 C 69.222656 82.226562 68.679688 81.433594 68.5625 81.140625 C 68.511719 81.148438 68.464844 81.152344 68.429688 81.15625 C 68.375 81.164062 68.339844 81.164062 68.339844 81.164062 C 68.339844 81.164062 68.347656 81.128906 68.375 81.078125 C 68.402344 81.027344 68.449219 80.960938 68.515625 80.886719 C 68.644531 80.746094 68.867188 80.601562 69.121094 80.546875 C 69.246094 80.519531 69.378906 80.507812 69.503906 80.519531 C 69.5625 80.523438 69.621094 80.539062 69.675781 80.554688 C 69.71875 80.5625 69.757812 80.578125 69.792969 80.59375 C 70.355469 80.226562 70.863281 79.546875 70.734375 78.3125 C 70.71875 78.328125 70.707031 78.34375 70.691406 78.359375 C 70.0625 80.210938 68.003906 80.441406 67.757812 80.3125 C 67.378906 80.109375 67.4375 79.628906 67.492188 79.398438 C 67.445312 79.394531 67.398438 79.390625 67.355469 79.386719 C 67.285156 79.375 67.222656 79.367188 67.160156 79.359375 C 67.035156 79.339844 66.929688 79.316406 66.84375 79.296875 C 66.671875 79.253906 66.574219 79.222656 66.574219 79.222656 C 66.574219 79.222656 66.675781 79.214844 66.851562 79.203125 C 66.9375 79.195312 67.042969 79.1875 67.164062 79.175781 C 67.25 79.167969 67.339844 79.15625 67.4375 79.148438 C 67.296875 78.929688 67.078125 78.484375 67.4375 78.242188 Z M 64.160156 76.683594 C 64.167969 76.75 64.171875 76.816406 64.183594 76.886719 C 64.171875 76.816406 64.167969 76.75 64.160156 76.683594 Z M 74.296875 72.949219 C 74.527344 73.292969 74.578125 73.628906 74.578125 73.628906 L 75.234375 73.90625 L 75.570312 73.855469 L 76.144531 73.765625 C 75.691406 73.386719 75.046875 73.121094 74.628906 72.8125 C 73.945312 72.3125 73.425781 71.789062 73.035156 71.269531 C 72.988281 71.277344 72.945312 71.289062 72.898438 71.296875 C 72.625 71.53125 72.351562 71.757812 72.074219 71.984375 C 73.566406 71.769531 74.105469 72.480469 74.296875 72.949219 Z M 70.570312 73.175781 C 70.300781 74.066406 70.339844 74.675781 70.339844 74.675781 C 70.339844 74.671875 70.304688 72.730469 72.105469 72.308594 C 72.78125 72.152344 73.277344 72.214844 73.636719 72.382812 C 73.28125 72.144531 72.71875 72.007812 71.824219 72.191406 C 71.414062 72.527344 70.996094 72.855469 70.570312 73.175781 Z M 77.417969 56.800781 C 77.5625 57.40625 77.71875 58.011719 77.851562 58.625 C 77.972656 59.15625 78.101562 59.6875 77.964844 60.230469 C 77.628906 61.585938 76.5625 62.746094 75.535156 63.640625 C 74.71875 64.359375 73.757812 65.074219 72.714844 65.695312 C 72.433594 66.261719 72.113281 66.8125 71.765625 67.335938 C 70.664062 69.003906 69.316406 70.507812 67.8125 71.824219 C 65.152344 74.15625 61.917969 75.925781 58.398438 76.53125 C 58.191406 76.566406 57.988281 76.597656 57.78125 76.621094 C 57.164062 76.699219 56.539062 76.738281 55.917969 76.734375 C 64.253906 78.585938 70.425781 72.894531 72.976562 70.707031 C 73.203125 70.515625 73.429688 70.324219 73.65625 70.136719 C 74.222656 69.671875 74.792969 69.226562 75.359375 68.8125 C 75.476562 68.726562 75.589844 68.644531 75.703125 68.566406 C 80.589844 65.074219 85.449219 63.558594 89.449219 65.609375 C 90.660156 66.226562 91.792969 67.171875 92.824219 68.488281 C 92.449219 63.925781 86.132812 58.363281 77.417969 56.800781 Z M 77.085938 57.625 C 77.117188 57.597656 77.152344 57.582031 77.1875 57.570312 C 76.667969 55.449219 76.097656 52.925781 77.398438 51.746094 C 79.191406 50.121094 80.570312 51.132812 82.855469 49.84375 C 83.152344 49.675781 83.398438 49.46875 83.601562 49.234375 C 83.339844 49.328125 83.070312 49.402344 82.789062 49.460938 C 82.679688 49.480469 82.566406 49.5 82.453125 49.515625 C 80.800781 49.742188 79.136719 49.390625 77.480469 49.523438 C 75.894531 49.652344 74.425781 50.273438 73.472656 51.589844 C 72.421875 53.050781 72.023438 54.878906 71.628906 56.605469 C 71.191406 58.519531 70.65625 60.492188 69.546875 62.140625 C 69.429688 62.316406 69.300781 62.492188 69.167969 62.664062 C 70.378906 62.242188 71.488281 61.648438 72.351562 61.144531 C 73.90625 60.238281 76.871094 57.8125 77.085938 57.625 Z M 70.152344 66.433594 C 74.34375 64.851562 77.945312 61.359375 77.609375 59.425781 C 77.527344 58.949219 77.390625 58.394531 77.246094 57.800781 C 77.195312 57.847656 74.128906 60.386719 72.472656 61.351562 C 71.660156 61.824219 70.773438 62.289062 69.847656 62.664062 C 69.96875 62.691406 70.089844 62.730469 70.210938 62.773438 C 70.734375 62.96875 71.171875 63.324219 71.257812 63.925781 C 71.363281 64.667969 71.011719 65.425781 70.527344 66.023438 C 70.410156 66.167969 70.28125 66.304688 70.152344 66.433594 Z M 62.460938 95.164062 C 62.851562 94.210938 63.449219 93.316406 64.085938 92.679688 C 63.878906 93.253906 63.277344 94.292969 63.0625 95.453125 C 63.722656 95.453125 64.585938 94.820312 64.777344 94.199219 C 64.914062 93.753906 65.078125 93.382812 65.261719 93.074219 C 65.066406 92.78125 64.953125 92.511719 64.9375 92.292969 C 65.972656 89.140625 67.222656 88.585938 68.339844 86.800781 C 68.136719 86.472656 67.894531 86.121094 67.609375 85.800781 C 67.570312 85.875 67.527344 85.949219 67.484375 86.023438 C 66.890625 87.089844 66.171875 88.085938 65.335938 88.976562 C 63.773438 90.644531 61.820312 92.015625 59.640625 92.753906 C 60.097656 93.148438 61.652344 94.503906 62.460938 95.164062 Z M 69.917969 101.902344 C 68.277344 102.453125 66.738281 101.761719 65.265625 101.058594 C 63.988281 100.449219 62.757812 99.886719 61.359375 99.734375 C 61.464844 99.777344 61.566406 99.824219 61.667969 99.871094 C 61.675781 99.875 61.679688 99.878906 61.6875 99.882812 C 61.785156 99.925781 61.878906 99.972656 61.972656 100.019531 C 61.988281 100.027344 62.003906 100.035156 62.015625 100.039062 C 62.105469 100.085938 62.191406 100.128906 62.273438 100.175781 C 62.300781 100.1875 62.324219 100.199219 62.347656 100.210938 C 62.421875 100.253906 62.496094 100.296875 62.574219 100.335938 C 62.605469 100.355469 62.640625 100.378906 62.671875 100.398438 C 62.738281 100.433594 62.800781 100.472656 62.863281 100.511719 C 62.910156 100.539062 62.953125 100.566406 63 100.597656 C 63.050781 100.628906 63.097656 100.660156 63.148438 100.691406 C 63.210938 100.734375 63.269531 100.777344 63.328125 100.820312 C 63.359375 100.84375 63.390625 100.863281 63.421875 100.886719 C 63.511719 100.953125 63.601562 101.019531 63.6875 101.089844 C 64.941406 102.105469 67.144531 104.632812 69.4375 107.109375 L 71.792969 109.269531 L 71.15625 101.359375 C 70.75 101.554688 70.335938 101.761719 69.917969 101.902344 Z M 84.949219 85.78125 C 85.082031 85.972656 85.199219 86.164062 85.316406 86.359375 C 86.40625 88.222656 86.820312 90.433594 86.3125 92.628906 C 85.925781 94.285156 85.078125 96.035156 83.832031 97.226562 C 82.574219 98.425781 83.890625 107.230469 81.949219 103.78125 C 80.296875 100.84375 78.144531 100.148438 76.910156 100.007812 C 77.199219 100.21875 77.496094 100.472656 77.789062 100.757812 C 78.109375 101.066406 78.414062 101.421875 78.710938 101.808594 C 78.847656 102.003906 79 102.203125 79.125 102.417969 C 79.191406 102.523438 79.257812 102.632812 79.324219 102.738281 C 79.386719 102.851562 79.445312 102.960938 79.503906 103.074219 C 79.628906 103.296875 79.730469 103.535156 79.839844 103.769531 C 79.9375 104.007812 80.03125 104.25 80.121094 104.492188 C 80.277344 104.984375 80.417969 105.484375 80.503906 105.980469 C 80.550781 106.230469 80.597656 106.476562 80.617188 106.726562 C 80.640625 106.972656 80.675781 107.214844 80.679688 107.453125 C 80.683594 107.691406 80.707031 107.925781 80.695312 108.15625 C 80.691406 108.386719 80.683594 108.609375 80.675781 108.828125 C 80.636719 109.261719 80.605469 109.671875 80.535156 110.046875 C 80.503906 110.230469 80.472656 110.410156 80.445312 110.578125 C 80.402344 110.746094 80.367188 110.90625 80.332031 111.054688 C 80.292969 111.203125 80.261719 111.339844 80.226562 111.46875 C 80.191406 111.597656 80.148438 111.710938 80.117188 111.816406 C 80.054688 112.027344 79.992188 112.1875 79.957031 112.296875 C 79.914062 112.410156 79.894531 112.46875 79.894531 112.46875 C 79.894531 112.46875 79.894531 112.40625 79.890625 112.285156 C 79.894531 112.171875 79.890625 111.996094 79.898438 111.78125 C 79.898438 111.671875 79.90625 111.554688 79.90625 111.421875 C 79.902344 111.292969 79.902344 111.152344 79.902344 111.003906 C 79.902344 110.851562 79.902344 110.695312 79.90625 110.527344 C 79.898438 110.359375 79.894531 110.1875 79.890625 110.003906 C 79.886719 109.820312 79.886719 109.632812 79.867188 109.4375 C 79.855469 109.242188 79.847656 109.039062 79.835938 108.832031 C 79.816406 108.628906 79.792969 108.417969 79.773438 108.203125 C 79.753906 107.984375 79.71875 107.769531 79.691406 107.546875 C 79.566406 106.664062 79.363281 105.738281 79.0625 104.851562 C 78.984375 104.628906 78.902344 104.410156 78.816406 104.191406 C 78.71875 103.980469 78.644531 103.761719 78.535156 103.554688 C 78.347656 103.132812 78.117188 102.742188 77.894531 102.363281 C 77.652344 101.992188 77.417969 101.632812 77.164062 101.3125 C 76.910156 100.992188 76.660156 100.695312 76.414062 100.433594 C 76.265625 100.273438 76.121094 100.128906 75.980469 99.992188 C 75.941406 99.996094 75.921875 100 75.921875 100 C 75.921875 100 80.273438 110.011719 76.792969 113.820312 C 76.0625 114.621094 74.285156 114.359375 73.214844 114.046875 C 73.011719 113.988281 72.828125 113.925781 72.691406 113.871094 C 73.222656 114.417969 73.808594 114.902344 74.453125 115.28125 C 76.210938 116.3125 78.953125 116.648438 81.242188 114.007812 C 85.234375 109.394531 90.90625 96.832031 87.472656 88.71875 C 86.960938 87.597656 86.023438 86.542969 84.949219 85.78125 Z M 84.949219 85.78125 " fill-opacity="0.6" fill-rule="nonzero"/><path fill="#eaaa2e" d="M 71.257812 63.925781 C 71.171875 63.324219 70.734375 62.96875 70.210938 62.773438 C 69.015625 63.277344 67.679688 63.671875 66.335938 63.671875 C 66.035156 63.671875 65.742188 63.652344 65.457031 63.613281 C 64.332031 63.464844 63.324219 62.960938 62.613281 62.195312 C 62.234375 61.785156 61.917969 61.316406 61.652344 60.769531 C 61.546875 61.398438 61.472656 62.027344 61.417969 62.675781 C 61.371094 63.289062 61.640625 64.355469 62.554688 65.339844 C 63.238281 66.078125 64.484375 66.957031 66.507812 66.957031 C 67.039062 66.957031 67.601562 66.894531 68.179688 66.769531 C 68.96875 66.601562 69.761719 66.34375 70.527344 66.019531 C 71.011719 65.425781 71.363281 64.667969 71.257812 63.925781 Z M 68.796875 65.066406 C 68.707031 65.113281 68.597656 65.171875 68.46875 65.230469 C 68.402344 65.257812 68.335938 65.289062 68.261719 65.324219 C 68.1875 65.355469 68.109375 65.375 68.027344 65.40625 C 67.859375 65.457031 67.679688 65.511719 67.484375 65.566406 C 67.289062 65.613281 67.074219 65.640625 66.855469 65.675781 C 66.746094 65.691406 66.636719 65.707031 66.519531 65.707031 C 66.40625 65.710938 66.289062 65.710938 66.171875 65.710938 C 65.9375 65.726562 65.699219 65.679688 65.457031 65.65625 C 65.339844 65.644531 65.222656 65.617188 65.105469 65.585938 C 64.988281 65.558594 64.871094 65.527344 64.753906 65.496094 C 64.640625 65.460938 64.53125 65.414062 64.425781 65.371094 C 64.316406 65.328125 64.207031 65.285156 64.109375 65.226562 C 64.007812 65.171875 63.910156 65.117188 63.816406 65.0625 C 63.726562 65.003906 63.640625 64.941406 63.554688 64.878906 C 63.515625 64.847656 63.472656 64.816406 63.433594 64.789062 C 63.394531 64.753906 63.359375 64.722656 63.324219 64.6875 C 63.25 64.621094 63.179688 64.5625 63.121094 64.496094 C 63 64.359375 62.894531 64.238281 62.8125 64.113281 C 62.726562 64 62.671875 63.882812 62.621094 63.796875 C 62.53125 63.609375 62.503906 63.496094 62.503906 63.496094 C 62.503906 63.496094 62.523438 63.515625 62.566406 63.550781 C 62.605469 63.589844 62.671875 63.632812 62.746094 63.699219 C 62.824219 63.753906 62.917969 63.828125 63.03125 63.902344 C 63.136719 63.980469 63.269531 64.054688 63.40625 64.136719 C 63.476562 64.179688 63.554688 64.214844 63.628906 64.253906 C 63.667969 64.273438 63.703125 64.296875 63.742188 64.316406 C 63.785156 64.335938 63.824219 64.351562 63.867188 64.371094 C 63.953125 64.40625 64.035156 64.449219 64.121094 64.484375 C 64.210938 64.511719 64.300781 64.546875 64.394531 64.582031 C 64.574219 64.652344 64.773438 64.695312 64.96875 64.757812 C 65.070312 64.777344 65.171875 64.792969 65.273438 64.816406 C 65.375 64.839844 65.476562 64.863281 65.582031 64.871094 C 65.789062 64.894531 65.996094 64.9375 66.203125 64.941406 C 66.414062 64.945312 66.617188 64.980469 66.820312 64.96875 C 67.023438 64.964844 67.21875 64.976562 67.40625 64.972656 C 67.59375 64.960938 67.773438 64.957031 67.9375 64.953125 C 68.023438 64.949219 68.101562 64.953125 68.179688 64.949219 C 68.257812 64.941406 68.328125 64.9375 68.394531 64.929688 C 68.53125 64.921875 68.65625 64.917969 68.753906 64.914062 C 68.957031 64.90625 69.074219 64.914062 69.074219 64.914062 C 69.074219 64.914062 68.976562 64.972656 68.796875 65.066406 Z M 58.46875 85.824219 C 58.46875 87.984375 60.050781 89.742188 61.996094 89.742188 C 63.941406 89.742188 65.527344 87.984375 65.527344 85.824219 C 65.527344 83.925781 62.730469 80.710938 61.996094 79.902344 C 61.265625 80.710938 58.46875 83.925781 58.46875 85.824219 Z M 62.171875 80.976562 C 62.324219 81.140625 62.464844 81.304688 62.605469 81.46875 C 62.746094 81.636719 62.886719 81.804688 63.019531 81.976562 C 63.28125 82.324219 63.542969 82.675781 63.769531 83.050781 C 63.882812 83.238281 63.996094 83.425781 64.09375 83.621094 C 64.195312 83.816406 64.292969 84.015625 64.375 84.21875 C 64.453125 84.425781 64.523438 84.632812 64.570312 84.847656 C 64.59375 84.957031 64.609375 85.066406 64.621094 85.175781 L 64.625 85.339844 L 64.617188 85.5 L 64.589844 85.34375 L 64.550781 85.1875 L 64.5 85.035156 L 64.445312 84.886719 C 64.402344 84.789062 64.359375 84.691406 64.3125 84.597656 C 64.265625 84.503906 64.214844 84.410156 64.160156 84.320312 C 64.058594 84.136719 63.945312 83.957031 63.824219 83.78125 C 63.707031 83.605469 63.585938 83.429688 63.457031 83.261719 C 63.332031 83.089844 63.199219 82.921875 63.070312 82.753906 C 62.9375 82.585938 62.804688 82.421875 62.664062 82.261719 C 62.527344 82.097656 62.390625 81.933594 62.25 81.773438 C 62.167969 81.679688 62.082031 81.585938 61.996094 81.492188 C 61.910156 81.585938 61.828125 81.679688 61.746094 81.773438 C 61.601562 81.933594 61.46875 82.097656 61.328125 82.257812 C 61.191406 82.421875 61.058594 82.585938 60.925781 82.753906 C 60.792969 82.921875 60.664062 83.089844 60.535156 83.257812 C 60.410156 83.429688 60.289062 83.605469 60.167969 83.78125 C 60.050781 83.957031 59.9375 84.132812 59.832031 84.320312 C 59.78125 84.410156 59.730469 84.503906 59.683594 84.597656 C 59.632812 84.691406 59.59375 84.789062 59.550781 84.886719 L 59.492188 85.035156 L 59.445312 85.1875 L 59.40625 85.339844 L 59.378906 85.5 L 59.367188 85.339844 L 59.375 85.175781 C 59.382812 85.066406 59.402344 84.957031 59.425781 84.847656 C 59.472656 84.632812 59.542969 84.425781 59.621094 84.21875 C 59.703125 84.015625 59.800781 83.816406 59.898438 83.621094 C 60 83.425781 60.113281 83.238281 60.226562 83.050781 C 60.453125 82.675781 60.714844 82.324219 60.976562 81.976562 C 61.109375 81.804688 61.25 81.636719 61.390625 81.46875 C 61.53125 81.304688 61.671875 81.140625 61.824219 80.976562 C 61.910156 80.878906 62.0625 80.875 62.15625 80.960938 C 62.160156 80.964844 62.167969 80.972656 62.171875 80.976562 Z M 62.171875 80.976562 " fill-opacity="1" fill-rule="nonzero"/><path fill="#ffffff" d="M 60.503906 85.003906 C 60.503906 85.003906 60.449219 86.25 61.273438 86.5625 C 60.875 84.578125 61.882812 83.128906 62.019531 82.957031 C 62.980469 83.863281 64.695312 86.320312 63.273438 87.601562 C 62.414062 88.375 61.191406 88.484375 60.390625 87.546875 C 59.765625 86.816406 59.828125 85.679688 60.503906 85.003906 Z M 60.503906 85.003906 " fill-opacity="0.498" fill-rule="nonzero"/><path fill="#000000" d="M 91.871094 71.648438 C 90.1875 72.667969 87.902344 73.035156 85.9375 72.542969 C 85.144531 70.546875 83.429688 71.640625 82.804688 70.160156 C 82.128906 68.566406 82.964844 67.195312 82.203125 66.144531 C 82.097656 65.996094 81.988281 65.855469 81.871094 65.722656 C 82.4375 65.539062 83.015625 65.382812 83.601562 65.265625 C 87.164062 64.550781 90.328125 66 92.539062 68.769531 C 92.625 68.875 92.753906 68.90625 92.875 68.882812 C 93 70.28125 92.433594 71.304688 91.871094 71.648438 Z M 91.871094 71.648438 " fill-opacity="0.8" fill-rule="nonzero"/></svg>