<svg xmlns="http://www.w3.org/2000/svg" xmlns:xlink="http://www.w3.org/1999/xlink" width="500" zoomAndPan="magnify" viewBox="0 0 375 374.999991" height="500" preserveAspectRatio="xMidYMid meet" version="1.0"><defs><filter x="0%" y="0%" width="100%" height="100%" id="74cbf50daa"><feColorMatrix values="0 0 0 0 1 0 0 0 0 1 0 0 0 0 1 0 0 0 1 0" color-interpolation-filters="sRGB"/></filter><clipPath id="e6a6cf8f94"><path d="M 96.667969 96.195312 L 278.167969 96.195312 L 278.167969 269.445312 L 96.667969 269.445312 Z M 96.667969 96.195312 " clip-rule="nonzero"/></clipPath><clipPath id="567d5db4a6"><path d="M 124.152344 81.910156 L 250.902344 81.910156 L 250.902344 283.660156 L 124.152344 283.660156 Z M 124.152344 81.910156 " clip-rule="nonzero"/></clipPath><mask id="a6ac94d381"><g filter="url(#74cbf50daa)"><rect x="-37.5" width="450" fill="#000000" y="-37.499999" height="449.999989" fill-opacity="0.6"/></g></mask><clipPath id="bd0cfd17ca"><path d="M 0.160156 0.121094 L 99.761719 0.121094 L 99.761719 180.601562 L 0.160156 180.601562 Z M 0.160156 0.121094 " clip-rule="nonzero"/></clipPath><clipPath id="9f1da7c90c"><rect x="0" width="100" y="0" height="181"/></clipPath><mask id="2aef616543"><g filter="url(#74cbf50daa)"><rect x="-37.5" width="450" fill="#000000" y="-37.499999" height="449.999989" fill-opacity="0.498"/></g></mask><clipPath id="d74d34fe7e"><path d="M 1 1 L 11.761719 1 L 11.761719 15.480469 L 1 15.480469 Z M 1 1 " clip-rule="nonzero"/></clipPath><clipPath id="7c5bccd337"><rect x="0" width="12" y="0" height="16"/></clipPath><mask id="0aa6aa1247"><g filter="url(#74cbf50daa)"><rect x="-37.5" width="450" fill="#000000" y="-37.499999" height="449.999989" fill-opacity="0.8"/></g></mask><clipPath id="e42ceb8ba2"><path d="M 0.519531 1 L 30.761719 1 L 30.761719 21.960938 L 0.519531 21.960938 Z M 0.519531 1 " clip-rule="nonzero"/></clipPath><clipPath id="d6d55fd581"><rect x="0" width="31" y="0" height="22"/></clipPath></defs><path fill="#000000" d="M 187.683594 97.5 L 157.515625 191.769531 L 163.625 196.695312 L 186.914062 123.25 L 198.878906 159.140625 L 207.773438 158.886719 Z M 194.945312 109.75 L 197.472656 118.132812 C 221.742188 121.253906 242.179688 136.609375 252.429688 157.796875 L 261.484375 158.183594 C 250.328125 131.507812 225.027344 112.242188 194.945312 109.75 Z M 180.804688 109.816406 C 150.144531 112.679688 124.558594 132.976562 114.070312 160.710938 L 122.804688 160.710938 C 132.445312 138.269531 153.269531 121.773438 178.277344 118.261719 Z M 277.863281 160.421875 L 177.734375 162.085938 L 175.527344 169.476562 L 254.636719 168.578125 L 221.464844 193.019531 L 223.511719 200.824219 Z M 163.722656 162.339844 L 98.203125 163.429688 L 179.363281 221.203125 L 186.242188 215.859375 L 123.222656 170.082031 L 161.515625 169.636719 Z M 211.835938 171.332031 L 203.035156 171.585938 L 227.828125 246.054688 L 196.925781 223.601562 L 189.601562 228.492188 L 242.992188 266.527344 L 211.832031 171.328125 Z M 265.867188 172.160156 L 258.539062 177.089844 C 259.167969 180.890625 259.5 184.78125 259.5 188.765625 C 259.5 209.152344 250.929688 227.535156 237.203125 240.523438 L 239.601562 249.253906 C 256.726562 234.703125 267.59375 212.996094 267.59375 188.765625 C 267.59375 183.070312 267.007812 177.515625 265.867188 172.160156 Z M 110.203125 174.914062 C 109.410156 179.410156 108.988281 184.039062 108.988281 188.765625 C 108.988281 212.488281 119.414062 233.785156 135.921875 248.328125 L 138.515625 239.722656 C 125.265625 226.785156 117.046875 208.738281 117.046875 188.765625 C 117.046875 185.65625 117.238281 182.585938 117.625 179.582031 Z M 210.300781 201.273438 L 147.503906 247.59375 L 159.339844 210.230469 L 152.972656 205.878906 L 133.074219 268.03125 L 212.507812 208.980469 Z M 219.066406 253.03125 C 209.753906 257.496094 199.308594 260.003906 188.292969 260.003906 C 177.300781 260.003906 166.878906 257.507812 157.582031 253.0625 L 150 258.242188 C 161.351562 264.519531 174.40625 268.097656 188.292969 268.097656 C 202.175781 268.097656 215.234375 264.515625 226.585938 258.242188 Z M 219.066406 253.03125 " fill-opacity="1" fill-rule="nonzero"/><g clip-path="url(#e6a6cf8f94)"><path stroke-linecap="butt" transform="matrix(1.023689, 0, 0, 1.023648, 97.69332, 96.987034)" fill="none" stroke-linejoin="miter" d="M 87.90786 0.501115 L 58.437991 92.592895 L 64.405992 97.404884 L 87.156136 25.656256 L 98.844108 60.71776 L 107.532816 60.469719 Z M 95.00154 12.468124 L 97.4704 20.657282 C 121.178324 23.706275 141.142891 38.707012 151.155702 59.405052 L 160.00086 59.782837 C 149.10277 33.723302 124.38746 14.902739 95.00154 12.468124 Z M 81.188135 12.532996 C 51.237467 15.330132 26.243599 35.158122 15.998021 62.251796 L 24.530279 62.251796 C 33.947816 40.328816 54.290154 24.213804 78.719275 20.783211 Z M 176.000751 61.969411 L 78.188871 63.595032 L 76.032911 70.814924 L 153.311661 69.937241 L 120.907398 93.814018 L 122.906907 101.438407 Z M 64.501389 63.843073 L 0.498007 64.907739 L 79.780083 121.346534 L 86.499809 116.126231 L 24.938576 71.406405 L 62.345429 70.97138 Z M 111.501308 72.627529 L 102.904181 72.875569 L 127.12343 145.623992 L 96.936179 123.689564 L 89.781446 128.467209 L 141.93659 165.623703 L 111.497493 72.623713 Z M 164.282252 73.436523 L 157.123703 78.252328 C 157.738056 81.965306 158.062404 85.766052 158.062404 89.658383 C 158.062404 109.574142 149.690412 127.532287 136.281488 140.220521 L 138.624425 148.749305 C 155.353145 134.534666 165.968861 113.329096 165.968861 89.658383 C 165.968861 84.09464 165.396483 78.668273 164.282252 73.436523 Z M 12.220322 76.12681 C 11.445703 80.519038 11.033591 85.041011 11.033591 89.658383 C 11.033591 112.833014 21.218115 133.637903 37.34393 147.84491 L 39.877659 139.438239 C 26.93427 126.799613 18.905705 109.169644 18.905705 89.658383 C 18.905705 86.620839 19.092682 83.621455 19.470452 80.686943 Z M 110.001676 101.877249 L 48.657948 147.1275 L 60.219997 110.62736 L 54.000148 106.376325 L 34.562169 167.092867 L 112.157636 109.406237 Z M 118.564461 152.439387 C 109.467456 156.801087 99.263853 159.250965 88.503134 159.250965 C 77.76531 159.250965 67.584602 156.812535 58.502861 152.469915 L 51.096281 157.529945 C 62.185163 163.662273 74.93776 167.157739 88.503134 167.157739 C 102.064692 167.157739 114.821105 163.658457 125.909987 157.529945 Z M 118.564461 152.439387 " stroke="#000000" stroke-width="1" stroke-opacity="1" stroke-miterlimit="4"/></g><g clip-path="url(#567d5db4a6)"><path fill="#ffffff" d="M 231.257812 167.582031 C 231.546875 167.589844 231.832031 167.59375 232.121094 167.59375 C 232.839844 167.59375 233.570312 167.5625 234.289062 167.5 C 237.578125 167.207031 243.621094 166.148438 247.152344 162.378906 C 249.800781 159.550781 250.875 155.46875 250.1875 150.859375 C 248.691406 134.554688 231.078125 124.480469 223.574219 120.902344 C 218.339844 118.410156 212.765625 116.546875 206.972656 115.347656 C 206.15625 110.230469 207.476562 109.25 209.160156 108.601562 C 210.007812 108.273438 211.140625 108.136719 212.34375 107.996094 C 213.074219 107.910156 213.824219 107.820312 214.613281 107.679688 C 217.75 107.113281 220.640625 105.8125 222.96875 103.929688 C 226.445312 101.117188 228.164062 95.855469 227.242188 90.835938 C 226.453125 86.527344 223.867188 83.355469 220.140625 82.132812 C 219.644531 81.972656 219.136719 81.890625 218.625 81.890625 C 217.199219 81.890625 215.851562 82.527344 214.925781 83.636719 C 213.96875 84.78125 213.558594 86.339844 213.828125 87.796875 C 213.863281 87.996094 213.90625 88.207031 213.949219 88.425781 C 214.023438 88.804688 214.140625 89.394531 214.195312 89.867188 C 213.835938 89.925781 213.28125 89.976562 212.441406 89.976562 C 211.917969 89.976562 211.386719 89.957031 210.875 89.941406 C 210.382812 89.925781 209.929688 89.910156 209.542969 89.910156 C 208.191406 89.90625 206.84375 89.890625 205.496094 89.875 C 204.035156 89.855469 202.578125 89.835938 201.121094 89.835938 C 195.359375 89.835938 189.167969 90.101562 182.917969 92.027344 C 171.277344 95.605469 162.527344 105.773438 158.132812 120.75 C 150.050781 124.296875 142.269531 129.167969 134.96875 135.246094 C 128.3125 140.789062 124.308594 148.707031 124.257812 156.414062 C 124.199219 164.800781 129.46875 172.125 138.355469 176.007812 C 142.847656 177.96875 147.746094 179.0625 152.9375 179.265625 C 151.625 180.71875 149.777344 183.988281 150.6875 187.210938 C 150.816406 187.664062 150.992188 188.085938 151.207031 188.476562 C 149.042969 192.117188 147.984375 195.203125 147.984375 197.855469 C 147.984375 200.101562 148.429688 202.273438 149.253906 204.246094 C 148.15625 204.546875 147.34375 205.078125 146.851562 205.476562 C 146.179688 205.300781 145.585938 205.25 145.125 205.25 C 143.886719 205.25 142.929688 205.589844 142.34375 205.875 L 138.578125 207.800781 L 139.273438 210.414062 C 139.238281 210.429688 139.207031 210.441406 139.183594 210.449219 L 134.59375 212.226562 L 137.738281 221.511719 C 137.136719 222.011719 136.628906 222.613281 136.253906 223.308594 L 134.605469 226.308594 L 142.253906 235.832031 L 143.804688 236.027344 C 147.621094 236.507812 158.671875 238.675781 163.878906 242.898438 C 166.144531 244.738281 170.300781 249.3125 174.324219 253.730469 C 175.042969 254.527344 175.753906 255.300781 176.453125 256.0625 C 177.527344 259.425781 182.871094 274.554688 193.710938 280.957031 C 195.785156 282.179688 199.136719 283.640625 203.304688 283.640625 C 208.691406 283.640625 213.640625 281.207031 217.617188 276.601562 C 224.046875 269.15625 230.640625 256.492188 234.417969 244.332031 C 237.84375 233.296875 240.738281 217.320312 235.0625 203.875 L 235.019531 203.78125 C 234.078125 201.710938 232.675781 199.632812 230.957031 197.761719 C 230.453125 197.113281 229.925781 196.515625 229.398438 195.988281 C 227.480469 194.066406 225.191406 192.605469 222.761719 191.75 C 222.6875 191.714844 222.613281 191.683594 222.542969 191.652344 L 229.859375 191.652344 C 232.25 191.652344 234.527344 190.066406 235.953125 187.414062 C 237.789062 183.988281 237.738281 179.925781 235.832031 177.058594 C 234.144531 174.527344 231.925781 173.710938 230.601562 173.222656 C 230.40625 173.152344 230.164062 173.0625 229.996094 172.992188 C 229.992188 172.972656 229.988281 172.957031 229.980469 172.9375 C 229.699219 171.691406 229.832031 171.40625 230.273438 170.457031 C 230.671875 169.59375 231.050781 168.675781 231.257812 167.582031 Z M 231.257812 167.582031 " fill-opacity="1" fill-rule="nonzero"/></g><path fill="#777777" d="M 208.246094 195.171875 C 205.515625 194.875 203.871094 194.699219 203.269531 192.121094 C 202.929688 190.683594 202.667969 189.238281 202.472656 187.800781 C 201.902344 183.75 201.8125 179.824219 201.800781 176.699219 C 203.449219 176.246094 203.753906 175.960938 203.886719 175.835938 C 204.171875 175.570312 204.53125 175.085938 204.949219 174.527344 C 205.480469 173.816406 206.078125 173.007812 206.570312 172.578125 C 206.660156 172.5 206.773438 172.382812 206.898438 172.238281 C 204.632812 173.0625 202.351562 173.089844 201.332031 171.867188 C 198.808594 168.828125 202.523438 168.894531 202.039062 167.261719 C 201.398438 165.09375 198.335938 164.101562 196.628906 162.851562 C 194.351562 161.179688 192.746094 159.394531 191.636719 157.679688 C 187.085938 161.609375 178.851562 168.863281 167.859375 172.371094 C 167.867188 172.589844 167.875 172.816406 167.890625 173.058594 C 167.949219 174.167969 168.226562 175.429688 168.714844 176.8125 L 168.746094 176.898438 C 168.820312 177.101562 168.894531 177.3125 168.976562 177.519531 C 170.355469 181.0625 172.796875 184.808594 175.671875 187.789062 C 175.675781 187.792969 175.675781 187.792969 175.679688 187.796875 C 177.296875 189.46875 179.285156 190.308594 181.597656 190.308594 C 183.402344 190.308594 185.367188 189.792969 187.410156 188.800781 C 187.941406 191.117188 188.117188 194.335938 186.324219 197.234375 C 185.011719 199.347656 182.402344 199.597656 179.371094 199.863281 C 179.507812 200.070312 179.636719 200.273438 179.757812 200.476562 C 176.757812 205.277344 173.410156 206.769531 170.640625 215.253906 C 170.6875 215.9375 171.085938 216.804688 171.777344 217.734375 C 171.320312 218.523438 170.910156 219.457031 170.566406 220.574219 C 169.964844 222.53125 167.429688 224.386719 165.355469 224.386719 C 164.773438 224.386719 164.28125 224.234375 163.894531 223.929688 C 161.878906 222.328125 156.585938 217.695312 155.578125 216.816406 C 154.527344 211.300781 152.960938 208.507812 150.914062 208.507812 C 150.101562 208.507812 149.566406 208.976562 149.507812 209.03125 L 149.261719 209.265625 L 150.65625 218.628906 L 155.511719 223.59375 L 155.398438 223.734375 L 150.371094 218.992188 C 148.917969 211.355469 146.667969 209.742188 145.03125 209.742188 C 144.582031 209.742188 144.28125 209.882812 144.226562 209.910156 L 143.761719 210.144531 L 145.375 216.171875 C 144.789062 214.996094 143.71875 214.351562 142.351562 214.351562 C 141.464844 214.351562 140.746094 214.625 140.714844 214.636719 L 140.140625 214.859375 L 143.257812 224.054688 L 148.25 228.53125 L 147.78125 228.453125 C 145.476562 225.820312 143.519531 224.484375 141.96875 224.484375 C 140.921875 224.484375 140.304688 225.101562 140.109375 225.464844 L 139.902344 225.84375 L 144.53125 231.597656 L 144.785156 231.632812 C 144.933594 231.648438 159.277344 233.449219 166.628906 239.414062 C 169.136719 241.445312 173.230469 245.949219 177.566406 250.710938 C 179.027344 252.320312 180.523438 253.960938 182.027344 255.582031 L 189.542969 262.5 L 187.515625 237.203125 L 177.574219 232.863281 C 175.773438 231.542969 175.089844 229.101562 175.53125 225.605469 C 175.6875 224.339844 175.988281 223.046875 176.34375 221.820312 C 181.277344 224.96875 188.789062 226.976562 196.386719 222.957031 C 198.90625 215.03125 202.757812 204.007812 206.871094 199.21875 C 208.292969 197.628906 209.71875 196.402344 211.230469 195.59375 C 210.160156 195.375 209.15625 195.265625 208.246094 195.171875 Z M 152.699219 226.511719 L 151.867188 225.800781 L 152.722656 226.488281 Z M 185.066406 167.855469 C 185.066406 167.855469 185.746094 163.285156 189.222656 162.273438 C 194.515625 160.738281 195.621094 166.316406 195.621094 166.316406 Z M 185.066406 167.855469 " fill-opacity="1" fill-rule="nonzero"/><path fill="#4e4e4e" d="M 193.863281 155.652344 C 195.386719 154.398438 196.910156 153.207031 198.4375 152.085938 C 198.742188 151.863281 199.046875 151.640625 199.351562 151.421875 C 212.464844 142.03125 225.496094 137.953125 236.230469 143.46875 C 239.476562 145.136719 242.511719 147.679688 245.273438 151.21875 C 244.277344 138.941406 227.332031 123.980469 203.953125 119.773438 C 204.339844 121.410156 204.757812 123.039062 205.121094 124.679688 C 205.441406 126.117188 205.789062 127.539062 205.421875 129 C 204.515625 132.644531 201.65625 135.765625 198.90625 138.179688 C 196.710938 140.109375 194.132812 142.03125 191.332031 143.703125 C 185.15625 147.390625 177.886719 149.859375 171.191406 148.480469 C 165.316406 147.273438 158.980469 142.097656 159.332031 135.535156 C 159.332031 135.535156 159.328125 135.53125 159.332031 135.527344 C 159.574219 132.5 160.027344 129.355469 160.714844 126.214844 C 156.050781 128.226562 151.550781 130.675781 147.285156 133.527344 C 139.996094 138.402344 132.039062 144.289062 130.496094 153.546875 C 129.136719 161.703125 134.304688 168.195312 141.78125 170.949219 C 144.871094 172.085938 148.0625 172.792969 151.285156 173.097656 C 149.625 173.308594 147.953125 173.410156 146.289062 173.394531 C 168.640625 178.382812 185.199219 163.0625 192.039062 157.1875 C 192.648438 156.667969 193.253906 156.15625 193.863281 155.652344 Z M 156.609375 168.210938 C 156.273438 168.292969 155.777344 168.390625 155.140625 168.480469 C 154.507812 168.570312 153.726562 168.652344 152.832031 168.671875 C 151.933594 168.714844 150.921875 168.664062 149.816406 168.570312 C 147.613281 168.355469 145.046875 167.761719 142.5 166.628906 C 142.179688 166.496094 141.859375 166.339844 141.539062 166.175781 C 141.210938 166.015625 140.910156 165.855469 140.609375 165.679688 C 139.972656 165.328125 139.324219 164.976562 138.703125 164.550781 C 137.460938 163.710938 136.304688 162.628906 135.449219 161.308594 C 134.585938 159.992188 134.097656 158.425781 134.019531 156.90625 C 133.949219 155.375 134.234375 153.910156 134.675781 152.585938 C 135.117188 151.253906 135.714844 150.050781 136.367188 148.972656 C 137.015625 147.894531 137.707031 146.929688 138.382812 146.078125 C 139.753906 144.378906 141.046875 143.113281 141.992188 142.277344 C 142.464844 141.859375 142.84375 141.542969 143.109375 141.332031 C 143.371094 141.125 143.511719 141.011719 143.511719 141.011719 C 143.511719 141.011719 142.992188 141.507812 142.148438 142.433594 C 141.308594 143.367188 140.136719 144.722656 138.949219 146.492188 C 138.351562 147.371094 137.753906 148.355469 137.210938 149.4375 C 136.671875 150.515625 136.175781 151.6875 135.839844 152.933594 C 135.503906 154.175781 135.335938 155.5 135.476562 156.792969 C 135.605469 158.085938 136.054688 159.335938 136.8125 160.390625 C 137.5625 161.453125 138.582031 162.328125 139.703125 163.035156 C 140.265625 163.382812 140.84375 163.710938 141.449219 163.96875 C 142.105469 164.253906 142.675781 164.480469 143.292969 164.714844 C 145.726562 165.636719 148.0625 166.296875 150.113281 166.761719 C 150.621094 166.886719 151.117188 166.988281 151.585938 167.089844 C 152.058594 167.171875 152.507812 167.273438 152.933594 167.351562 C 153.359375 167.433594 153.757812 167.503906 154.128906 167.5625 C 154.5 167.632812 154.839844 167.699219 155.152344 167.742188 C 155.777344 167.847656 156.265625 167.929688 156.601562 167.988281 C 156.941406 168.050781 157.121094 168.085938 157.121094 168.085938 C 157.121094 168.085938 156.941406 168.136719 156.609375 168.210938 Z M 185.476562 144.582031 C 186.773438 142.976562 187.714844 140.945312 187.433594 138.945312 C 187.203125 137.320312 186.023438 136.367188 184.617188 135.839844 C 184.300781 135.722656 183.972656 135.625 183.644531 135.550781 C 186.128906 134.546875 188.507812 133.289062 190.6875 132.015625 C 195.128906 129.421875 203.351562 122.59375 203.488281 122.46875 C 203.878906 124.0625 204.246094 125.550781 204.46875 126.835938 C 205.371094 132.035156 195.710938 141.4375 184.464844 145.683594 C 184.8125 145.347656 185.15625 144.976562 185.476562 144.582031 Z M 170.863281 215.253906 C 170.914062 215.984375 171.363281 216.917969 172.144531 217.925781 C 171.730469 218.667969 171.359375 219.546875 171.042969 220.574219 C 170.4375 222.535156 167.90625 224.390625 165.832031 224.390625 C 165.25 224.390625 164.753906 224.234375 164.371094 223.933594 C 162.351562 222.328125 157.058594 217.699219 156.050781 216.816406 C 156.015625 216.628906 155.980469 216.441406 155.941406 216.257812 C 157.234375 213.273438 158.476562 210.671875 159.667969 208.417969 C 160.699219 208.816406 161.816406 209.03125 162.972656 209.03125 C 168.550781 209.03125 173.078125 204.027344 173.078125 197.855469 C 173.078125 196.980469 172.875 196.019531 172.527344 195.007812 C 175.964844 194.828125 178.421875 197.949219 179.980469 200.476562 C 176.980469 205.277344 173.628906 206.769531 170.863281 215.253906 Z M 231.304688 205.636719 C 240.519531 227.457031 225.308594 261.257812 214.59375 273.667969 C 208.457031 280.773438 201.09375 279.871094 196.382812 277.089844 C 185.882812 270.886719 180.953125 254.164062 180.953125 254.164062 L 182.5 255.585938 L 182.519531 255.601562 L 190.015625 262.503906 L 189.035156 250.246094 L 187.992188 237.203125 L 178.046875 232.867188 C 176.25 231.542969 175.5625 229.105469 176.003906 225.609375 C 176.160156 224.390625 176.441406 223.144531 176.78125 221.949219 C 181.710938 225.027344 189.117188 226.921875 196.609375 222.960938 C 199.128906 215.03125 202.980469 204.011719 207.09375 199.21875 C 210.734375 195.152344 214.378906 193.441406 219.519531 195.152344 C 220.160156 195.359375 220.808594 195.613281 221.445312 195.914062 C 223.753906 196.992188 226.011719 198.664062 227.878906 200.648438 C 227.890625 200.65625 227.898438 200.667969 227.90625 200.683594 C 229.328125 202.191406 230.507812 203.886719 231.304688 205.636719 Z M 195.519531 176.675781 C 198.359375 176.675781 200.738281 174.722656 201.398438 172.09375 C 201.320312 172.019531 201.242188 171.945312 201.171875 171.863281 C 199.566406 169.9375 200.480469 169.261719 201.238281 168.605469 C 200.8125 167.402344 200.023438 166.371094 198.996094 165.652344 L 198.097656 165.792969 L 198.894531 166.132812 L 190.597656 167.078125 C 189.878906 168.074219 189.449219 169.292969 189.449219 170.617188 C 189.449219 173.960938 192.167969 176.675781 195.519531 176.675781 Z M 197.054688 166.78125 L 197.710938 168.105469 L 195.734375 166.929688 Z M 195.375 166.925781 L 196.03125 168.25 L 194.058594 167.078125 Z M 174.378906 173.410156 C 174.363281 173.480469 174.355469 173.601562 174.355469 173.710938 C 174.351562 173.75 174.359375 173.84375 174.375 173.9375 C 174.382812 173.984375 174.394531 174.03125 174.40625 174.074219 L 174.417969 174.121094 C 174.511719 174.339844 174.445312 174.1875 174.46875 174.234375 L 174.480469 174.253906 L 174.5 174.292969 L 174.546875 174.367188 C 174.609375 174.457031 174.6875 174.546875 174.765625 174.621094 C 174.832031 174.671875 174.902344 174.71875 174.96875 174.757812 C 173.867188 176.304688 172.0625 177.316406 170.015625 177.316406 C 169.8125 177.316406 169.617188 177.308594 169.421875 177.285156 C 169.421875 177.285156 169.421875 177.285156 169.417969 177.285156 C 169.410156 177.269531 169.40625 177.25 169.398438 177.230469 C 169.347656 177.101562 169.304688 176.976562 169.257812 176.851562 C 169.226562 176.765625 169.191406 176.679688 169.160156 176.59375 C 169.144531 176.546875 169.132812 176.503906 169.117188 176.457031 C 169.050781 176.261719 168.988281 176.070312 168.929688 175.878906 C 168.890625 175.75 168.851562 175.625 168.816406 175.5 C 168.769531 175.324219 168.726562 175.15625 168.683594 174.984375 C 168.65625 174.863281 168.625 174.742188 168.601562 174.628906 C 168.558594 174.429688 168.523438 174.238281 168.492188 174.050781 C 168.480469 173.96875 168.460938 173.886719 168.453125 173.804688 C 168.425781 173.617188 168.410156 173.4375 168.394531 173.257812 C 168.792969 173.128906 169.191406 172.996094 169.585938 172.859375 C 171.703125 172.109375 173.734375 171.207031 175.695312 170.191406 C 175.460938 170.621094 175.230469 171.070312 175.019531 171.527344 C 174.820312 171.984375 174.621094 172.4375 174.476562 172.964844 C 174.441406 173.105469 174.402344 173.238281 174.378906 173.410156 Z M 177.328125 180.566406 C 177.40625 180.570312 177.476562 180.578125 177.554688 180.582031 C 177.96875 180.609375 178.417969 180.621094 178.894531 180.597656 C 179.371094 180.574219 179.875 180.535156 180.390625 180.441406 C 181.425781 180.269531 182.511719 179.9375 183.527344 179.457031 C 184.027344 179.203125 184.527344 178.957031 185.007812 178.601562 C 185.351562 178.347656 185.648438 178.066406 185.914062 177.777344 C 184.230469 182.75 178.703125 183.371094 178.046875 183.023438 C 177.03125 182.480469 177.183594 181.183594 177.328125 180.566406 Z M 177.53125 179.847656 C 177.410156 179.863281 177.300781 179.878906 177.183594 179.890625 C 176.808594 179.308594 176.222656 178.109375 177.1875 177.460938 C 177.605469 177.175781 178.070312 176.984375 178.554688 176.851562 C 180.761719 176.234375 183.453125 176.925781 185.066406 176.953125 C 184.816406 177.179688 184.558594 177.402344 184.285156 177.585938 C 183.902344 177.84375 183.4375 178.074219 182.976562 178.296875 C 182.054688 178.738281 181.085938 179.082031 180.152344 179.332031 C 179.683594 179.453125 179.226562 179.566406 178.785156 179.648438 C 178.34375 179.722656 177.925781 179.796875 177.53125 179.847656 Z M 190.621094 164.136719 C 190.339844 164.351562 190.417969 164.910156 190.867188 164.910156 L 190.894531 164.910156 C 191.023438 164.910156 191.117188 164.859375 191.1875 164.789062 C 191.585938 165.105469 192.085938 165.296875 192.625 165.296875 L 192.667969 165.296875 C 193.390625 165.296875 194.035156 164.953125 194.464844 164.421875 C 194.722656 164.707031 194.957031 165.03125 195.171875 165.40625 L 193.5625 165.898438 L 192.878906 166 C 191.183594 165.78125 189.65625 165.019531 189.074219 163.417969 C 189.476562 163.253906 189.890625 163.136719 190.300781 163.066406 C 190.316406 163.453125 190.433594 163.820312 190.621094 164.136719 Z M 172.039062 136.832031 C 172.746094 136.929688 173.484375 136.976562 174.226562 136.976562 C 176.800781 136.976562 179.390625 136.394531 181.824219 135.546875 C 185.070312 134.417969 188.046875 132.8125 190.363281 131.460938 C 194.539062 129.023438 202.488281 122.496094 203.0625 121.992188 C 203.140625 121.921875 203.238281 121.875 203.339844 121.851562 C 201.941406 116.144531 200.410156 109.355469 203.90625 106.175781 C 208.707031 101.8125 212.410156 104.53125 218.535156 101.058594 C 219.332031 100.609375 219.992188 100.050781 220.535156 99.425781 C 219.84375 99.679688 219.121094 99.878906 218.363281 100.03125 C 219.164062 99.480469 219.859375 98.765625 220.390625 97.820312 C 221.675781 95.539062 222.042969 91.097656 220.011719 88.910156 C 220.261719 92.203125 219.4375 94.992188 215.28125 95.585938 C 207.050781 96.757812 198.675781 95.046875 190.414062 96.421875 C 186.0625 97.144531 181.710938 98.398438 177.980469 100.828125 C 173.742188 103.59375 170.789062 107.394531 168.441406 111.835938 C 165.601562 117.21875 163.546875 122.96875 162.386719 128.917969 C 163.121094 130.699219 164.042969 132.179688 165.183594 133.414062 C 166.917969 135.28125 169.285156 136.464844 172.039062 136.832031 Z M 166.777344 126.746094 C 166.792969 126.265625 166.804688 125.683594 166.867188 125.015625 C 166.921875 124.347656 167 123.597656 167.132812 122.78125 C 167.261719 121.964844 167.410156 121.082031 167.632812 120.160156 C 167.847656 119.234375 168.113281 118.269531 168.4375 117.28125 C 168.601562 116.789062 168.765625 116.285156 168.964844 115.785156 C 169.0625 115.535156 169.160156 115.285156 169.257812 115.03125 C 169.363281 114.785156 169.472656 114.53125 169.582031 114.28125 C 169.792969 113.777344 170.039062 113.28125 170.28125 112.78125 C 170.535156 112.285156 170.800781 111.796875 171.074219 111.304688 C 171.648438 110.347656 172.242188 109.394531 172.917969 108.519531 C 173.085938 108.296875 173.25 108.078125 173.417969 107.859375 C 173.59375 107.652344 173.773438 107.445312 173.949219 107.238281 C 174.292969 106.820312 174.664062 106.433594 175.035156 106.054688 C 175.773438 105.304688 176.542969 104.632812 177.308594 104.046875 C 177.683594 103.738281 178.082031 103.488281 178.457031 103.234375 C 178.828125 102.976562 179.210938 102.761719 179.578125 102.554688 C 180.289062 102.113281 181.007812 101.828125 181.617188 101.542969 C 182.25 101.296875 182.804688 101.101562 183.265625 100.957031 C 184.199219 100.703125 184.734375 100.589844 184.734375 100.589844 C 184.734375 100.589844 184.261719 100.882812 183.4375 101.34375 C 183.042969 101.597656 182.5625 101.910156 182.007812 102.261719 C 181.488281 102.660156 180.878906 103.058594 180.269531 103.570312 C 179.957031 103.820312 179.636719 104.074219 179.328125 104.371094 C 179.019531 104.664062 178.671875 104.933594 178.363281 105.265625 C 177.71875 105.894531 177.070312 106.585938 176.4375 107.335938 C 176.128906 107.71875 175.800781 108.089844 175.503906 108.5 C 175.195312 108.898438 174.894531 109.308594 174.605469 109.734375 C 174.011719 110.574219 173.460938 111.464844 172.933594 112.371094 C 172.410156 113.28125 171.917969 114.210938 171.46875 115.148438 C 171.011719 116.078125 170.605469 117.019531 170.214844 117.933594 C 169.839844 118.855469 169.484375 119.75 169.175781 120.613281 C 168.859375 121.472656 168.578125 122.296875 168.324219 123.0625 C 167.832031 124.59375 167.453125 125.890625 167.199219 126.808594 C 166.949219 127.730469 166.808594 128.253906 166.808594 128.253906 C 166.808594 128.253906 166.757812 127.707031 166.777344 126.746094 Z M 218.292969 158.949219 C 217.398438 158.539062 216.257812 158.058594 215.75 157.210938 C 215.226562 156.34375 215.453125 155.226562 214.867188 154.410156 C 213.683594 155.679688 214.59375 157.679688 215.429688 158.894531 C 216.65625 160.679688 215.839844 162.398438 213.660156 161.296875 C 212.277344 160.597656 211.503906 158.3125 209.933594 158.023438 C 207.375 157.546875 207.625 160 207.171875 161.480469 C 206.621094 163.269531 204.609375 162.410156 203.625 161.746094 C 202.703125 161.121094 198.792969 158.8125 198.792969 158.8125 C 199.84375 161.132812 201.605469 162.46875 203.695312 163.757812 C 204.980469 164.550781 207.089844 166.925781 206.011719 168.550781 C 208.066406 168.394531 208.8125 166.234375 209.074219 164.589844 C 209.382812 162.636719 211.597656 162.664062 212.695312 164.050781 C 213.8125 165.46875 214.835938 166.488281 216.796875 165.574219 C 218.566406 164.75 218.003906 162.777344 219.496094 161.9375 C 220.398438 161.433594 221.523438 161.722656 222.347656 162.222656 C 222.804688 159.890625 219.695312 159.59375 218.292969 158.949219 Z M 216.683594 162.15625 C 216.425781 162.566406 215.964844 162.925781 215.40625 163.050781 C 214.851562 163.1875 214.253906 163.121094 213.699219 162.9375 C 213.5625 162.894531 213.414062 162.832031 213.28125 162.777344 C 213.164062 162.730469 213.015625 162.65625 212.882812 162.578125 C 212.609375 162.433594 212.363281 162.242188 212.140625 162.035156 C 211.914062 161.832031 211.714844 161.609375 211.519531 161.390625 L 210.980469 160.742188 C 210.660156 160.386719 210.203125 160.09375 209.789062 160.03125 C 209.582031 160 209.402344 160.023438 209.253906 160.109375 C 209.101562 160.203125 208.976562 160.34375 208.878906 160.550781 C 208.699219 160.910156 208.71875 161.445312 208.582031 161.980469 C 208.511719 162.25 208.398438 162.503906 208.234375 162.734375 L 208.128906 162.867188 C 208.070312 162.9375 208.035156 162.96875 207.988281 163.015625 C 207.898438 163.101562 207.808594 163.1875 207.710938 163.253906 C 207.328125 163.539062 206.914062 163.671875 206.554688 163.734375 C 206.191406 163.796875 205.871094 163.78125 205.617188 163.746094 C 205.359375 163.71875 205.167969 163.652344 205.039062 163.613281 C 204.914062 163.570312 204.84375 163.542969 204.84375 163.542969 C 204.84375 163.542969 204.917969 163.554688 205.050781 163.570312 C 205.183594 163.582031 205.378906 163.59375 205.625 163.578125 C 205.867188 163.566406 206.160156 163.519531 206.476562 163.417969 C 206.789062 163.3125 207.121094 163.140625 207.402344 162.878906 C 207.472656 162.8125 207.535156 162.738281 207.597656 162.664062 L 207.675781 162.554688 L 207.765625 162.40625 C 207.851562 162.246094 207.929688 162.054688 207.960938 161.84375 C 207.996094 161.628906 208.003906 161.398438 208.015625 161.128906 C 208.03125 160.863281 208.0625 160.558594 208.191406 160.25 C 208.308594 159.964844 208.515625 159.644531 208.828125 159.4375 C 209.144531 159.222656 209.554688 159.160156 209.902344 159.210938 C 210.605469 159.324219 211.160156 159.695312 211.613281 160.167969 C 211.832031 160.425781 211.976562 160.628906 212.160156 160.84375 C 212.335938 161.054688 212.515625 161.253906 212.703125 161.429688 C 212.894531 161.605469 213.085938 161.765625 213.289062 161.894531 C 213.394531 161.960938 213.488281 162.015625 213.617188 162.078125 C 213.734375 162.132812 213.835938 162.179688 213.953125 162.226562 C 214.402344 162.398438 214.871094 162.488281 215.277344 162.421875 C 215.691406 162.363281 216.042969 162.152344 216.285156 161.867188 C 216.515625 161.582031 216.644531 161.230469 216.691406 160.910156 C 216.734375 160.585938 216.71875 160.289062 216.679688 160.050781 C 216.640625 159.808594 216.59375 159.617188 216.554688 159.488281 C 216.511719 159.363281 216.488281 159.292969 216.488281 159.292969 C 216.488281 159.292969 216.527344 159.355469 216.59375 159.472656 C 216.660156 159.589844 216.761719 159.765625 216.84375 160.007812 C 216.929688 160.25 217.015625 160.558594 217.019531 160.929688 C 217.023438 161.300781 216.949219 161.738281 216.683594 162.15625 Z M 206.863281 184.734375 C 201.914062 182.707031 205.007812 178.28125 207.042969 175.285156 C 207.042969 175.285156 205.910156 181.722656 209.792969 177.601562 C 212.4375 174.796875 214.113281 179.546875 216.4375 178.976562 C 219.308594 178.265625 221.222656 171.304688 223.894531 174.933594 C 224.839844 176.222656 225.902344 178.074219 227.363281 178.96875 C 228.453125 179.640625 229.925781 179.652344 231.148438 179.824219 C 224.863281 183.664062 223.972656 178.976562 222.535156 179.027344 C 218.921875 179.15625 217.539062 183.578125 213.472656 181.835938 C 212.171875 181.28125 211.640625 180.261719 210.078125 180.683594 C 208.425781 181.132812 206.007812 182.59375 206.863281 184.734375 Z M 242.71875 159.722656 C 238.207031 162.464844 232.082031 163.449219 226.804688 162.121094 C 224.683594 156.757812 220.085938 159.703125 218.398438 155.710938 C 216.59375 151.433594 218.828125 147.742188 216.792969 144.90625 C 216.511719 144.511719 216.210938 144.136719 215.894531 143.78125 C 217.414062 143.28125 218.964844 142.863281 220.546875 142.546875 C 230.089844 140.628906 238.578125 144.523438 244.519531 151.976562 C 244.742188 152.261719 245.085938 152.339844 245.417969 152.277344 C 245.753906 156.039062 244.234375 158.792969 242.71875 159.722656 Z M 242.71875 159.722656 " fill-opacity="1" fill-rule="nonzero"/><path fill="#292929" d="M 234.082031 165.15625 C 236.457031 164.941406 242.320312 164.089844 245.429688 160.773438 C 247.585938 158.46875 248.445312 155.050781 247.847656 151.140625 L 247.84375 151.085938 C 246.460938 135.976562 229.703125 126.429688 222.558594 123.027344 C 217.035156 120.394531 211.113281 118.488281 204.945312 117.351562 C 204.9375 117.320312 204.933594 117.289062 204.925781 117.257812 C 203.621094 110.890625 204.566406 107.847656 208.308594 106.40625 C 209.433594 105.972656 210.710938 105.820312 212.066406 105.660156 C 212.761719 105.578125 213.480469 105.492188 214.195312 105.367188 C 216.902344 104.875 219.492188 103.714844 221.484375 102.101562 C 224.269531 99.851562 225.683594 95.394531 224.925781 91.261719 C 224.296875 87.824219 222.285156 85.316406 219.410156 84.371094 C 218.441406 84.054688 217.386719 84.363281 216.738281 85.140625 C 216.222656 85.757812 216.003906 86.59375 216.148438 87.375 C 216.183594 87.5625 216.222656 87.761719 216.261719 87.96875 C 216.488281 89.097656 216.859375 90.984375 216.21875 91.574219 C 215.671875 92.074219 214.402344 92.332031 212.441406 92.332031 C 211.878906 92.332031 211.328125 92.3125 210.796875 92.292969 C 210.332031 92.277344 209.90625 92.261719 209.539062 92.261719 C 208.179688 92.261719 206.824219 92.242188 205.46875 92.226562 C 204.015625 92.210938 202.566406 92.191406 201.121094 92.191406 C 195.546875 92.191406 189.566406 92.445312 183.609375 94.277344 C 172.488281 97.695312 164.160156 107.695312 160.09375 122.46875 C 151.855469 125.957031 143.914062 130.863281 136.480469 137.050781 C 130.347656 142.160156 126.660156 149.40625 126.613281 156.429688 C 126.5625 163.847656 131.304688 170.359375 139.300781 173.855469 C 144.003906 175.90625 149.191406 176.945312 154.71875 176.945312 C 155.601562 176.945312 156.5 176.917969 157.394531 176.863281 C 157.605469 177.210938 157.730469 177.519531 157.789062 177.8125 C 157.902344 178.398438 157.828125 178.574219 157.828125 178.574219 C 157.769531 178.675781 157.351562 178.910156 157.078125 179.0625 C 156.488281 179.394531 155.679688 179.847656 154.878906 180.640625 C 153.902344 181.558594 152.308594 184.289062 152.957031 186.574219 C 153.089844 187.046875 153.398438 187.738281 154.089844 188.308594 C 151.601562 192.148438 150.339844 195.355469 150.339844 197.855469 C 150.339844 202.621094 152.675781 206.96875 156.398438 209.339844 C 156.25 209.636719 156.101562 209.941406 155.949219 210.25 C 155.007812 208.28125 153.476562 206.363281 151.007812 206.363281 C 149.453125 206.363281 148.421875 207.207031 148.144531 207.46875 L 147.367188 208.1875 C 146.539062 207.734375 145.753906 207.605469 145.125 207.605469 C 144.335938 207.605469 143.734375 207.816406 143.34375 208.007812 L 141.34375 209.03125 L 142.191406 212.21875 C 141.019531 212.265625 140.125 212.609375 140.035156 212.644531 L 137.550781 213.609375 L 140.589844 222.589844 C 139.46875 222.972656 138.695312 223.75 138.320312 224.441406 L 137.425781 226.066406 L 142.789062 232.742188 L 143.5 233.621094 L 144.621094 233.757812 C 144.757812 233.773438 158.519531 235.523438 165.367188 241.074219 C 167.769531 243.023438 171.988281 247.664062 176.066406 252.148438 C 176.910156 253.078125 177.734375 253.980469 178.542969 254.863281 C 179.015625 256.441406 184.054688 272.519531 194.90625 278.929688 C 196.730469 280.007812 199.667969 281.285156 203.304688 281.285156 C 207.984375 281.285156 212.316406 279.136719 215.832031 275.0625 C 227.09375 262.019531 242.429688 227.382812 232.875 204.753906 C 232.023438 202.878906 230.738281 200.992188 229.152344 199.285156 C 228.691406 198.679688 228.210938 198.132812 227.726562 197.648438 C 226.03125 195.953125 224.011719 194.667969 221.878906 193.933594 C 221.148438 193.597656 220.464844 193.332031 219.816406 193.125 C 218.257812 192.609375 216.8125 192.355469 215.398438 192.355469 C 213.765625 192.355469 212.242188 192.6875 210.757812 193.363281 C 209.878906 193.214844 209.054688 193.125 208.3125 193.046875 C 205.453125 192.738281 205.421875 192.613281 205.191406 191.628906 C 205.015625 190.886719 204.855469 190.113281 204.714844 189.296875 L 229.855469 189.296875 C 231.363281 189.296875 232.863281 188.179688 233.871094 186.300781 C 234.960938 184.277344 235.609375 180.980469 233.867188 178.363281 C 232.605469 176.46875 230.976562 175.871094 229.785156 175.429688 C 228.507812 174.960938 227.980469 174.765625 227.683594 173.457031 C 227.222656 171.433594 227.605469 170.609375 228.132812 169.46875 C 228.625 168.40625 229.210938 167.140625 229.03125 165.035156 C 230.742188 165.261719 232.410156 165.304688 234.082031 165.15625 Z M 168.445312 111.835938 C 170.789062 107.394531 173.742188 103.59375 177.980469 100.828125 C 181.710938 98.398438 186.0625 97.144531 190.414062 96.417969 C 198.675781 95.046875 207.050781 96.757812 215.28125 95.585938 C 219.4375 94.992188 220.265625 92.203125 220.011719 88.90625 C 222.042969 91.097656 221.675781 95.535156 220.390625 97.820312 C 219.859375 98.765625 219.164062 99.480469 218.363281 100.03125 C 219.121094 99.878906 219.84375 99.679688 220.535156 99.425781 C 219.992188 100.050781 219.332031 100.609375 218.535156 101.058594 C 212.410156 104.53125 208.710938 101.808594 203.90625 106.175781 C 200.410156 109.355469 201.941406 116.144531 203.339844 121.851562 C 203.238281 121.875 203.140625 121.921875 203.0625 121.992188 C 202.488281 122.492188 194.539062 129.023438 190.363281 131.460938 C 188.050781 132.8125 185.070312 134.417969 181.824219 135.546875 C 179.390625 136.394531 176.800781 136.976562 174.226562 136.976562 C 173.484375 136.976562 172.746094 136.929688 172.039062 136.832031 C 169.285156 136.464844 166.917969 135.28125 165.1875 133.414062 C 164.042969 132.179688 163.125 130.699219 162.386719 128.914062 C 163.550781 122.96875 165.601562 117.21875 168.445312 111.835938 Z M 161.042969 135.578125 C 161.179688 133.84375 161.382812 132.148438 161.664062 130.453125 C 162.375 131.925781 163.226562 133.1875 164.242188 134.285156 C 166.148438 136.34375 168.859375 137.703125 171.867188 138.105469 C 172.632812 138.207031 173.425781 138.261719 174.226562 138.261719 C 177.828125 138.261719 182.636719 137.882812 191.910156 132.167969 C 196.289062 129.472656 203.351562 122.59375 203.488281 122.472656 C 203.878906 124.0625 204.246094 125.554688 204.46875 126.835938 C 205.371094 132.039062 197.429688 139.765625 185.535156 144.628906 C 182.292969 145.957031 181.292969 146.140625 179.171875 146.597656 C 177.625 146.929688 176.117188 147.101562 174.691406 147.101562 C 174.691406 147.101562 174.6875 147.101562 174.6875 147.101562 C 169.257812 147.101562 165.921875 144.730469 164.082031 142.746094 C 161.628906 140.097656 160.910156 137.230469 161.042969 135.578125 Z M 141.777344 170.949219 C 134.382812 167.988281 129.136719 161.703125 130.496094 153.546875 C 132.039062 144.292969 139.996094 138.40625 147.285156 133.527344 C 151.546875 130.675781 156.050781 128.226562 160.714844 126.214844 C 160.027344 129.355469 159.574219 132.5 159.328125 135.527344 C 159.328125 135.53125 159.328125 135.535156 159.328125 135.539062 C 158.976562 142.097656 165.3125 147.273438 171.1875 148.480469 C 177.886719 149.859375 185.15625 147.390625 191.332031 143.703125 C 194.132812 142.03125 196.710938 140.109375 198.90625 138.179688 C 201.65625 135.765625 204.515625 132.644531 205.421875 129 C 205.789062 127.539062 205.4375 126.117188 205.121094 124.683594 C 204.753906 123.039062 204.339844 121.410156 203.953125 119.773438 C 227.332031 123.980469 244.273438 138.945312 245.273438 151.222656 C 242.511719 147.683594 239.476562 145.136719 236.230469 143.46875 C 225.496094 137.953125 212.464844 142.03125 199.351562 151.425781 C 199.046875 151.640625 198.742188 151.863281 198.4375 152.089844 C 196.910156 153.207031 195.386719 154.398438 193.863281 155.65625 C 193.253906 156.15625 192.644531 156.667969 192.039062 157.191406 C 185.199219 163.066406 160.878906 178.589844 141.777344 170.949219 Z M 203.695312 163.757812 C 201.605469 162.46875 199.84375 161.132812 198.792969 158.8125 C 198.792969 158.8125 202.703125 161.121094 203.625 161.746094 C 204.609375 162.410156 206.621094 163.265625 207.171875 161.480469 C 207.625 160 207.375 157.546875 209.933594 158.023438 C 211.503906 158.3125 212.277344 160.597656 213.660156 161.296875 C 215.839844 162.398438 216.65625 160.679688 215.429688 158.894531 C 214.59375 157.679688 213.683594 155.679688 214.867188 154.410156 C 215.453125 155.226562 215.226562 156.34375 215.75 157.210938 C 216.257812 158.058594 217.398438 158.539062 218.292969 158.949219 C 219.695312 159.59375 222.804688 159.890625 222.347656 162.222656 C 221.523438 161.722656 220.398438 161.429688 219.496094 161.9375 C 218.003906 162.777344 218.566406 164.75 216.792969 165.574219 C 214.835938 166.488281 213.8125 165.46875 212.695312 164.050781 C 211.597656 162.664062 209.382812 162.636719 209.074219 164.589844 C 208.8125 166.234375 208.066406 168.394531 206.007812 168.550781 C 207.089844 166.925781 204.980469 164.550781 203.695312 163.757812 Z M 188.375 187.460938 C 188.300781 187.503906 188.226562 187.542969 188.148438 187.585938 C 188.035156 187.652344 187.917969 187.714844 187.800781 187.78125 C 187.609375 187.882812 187.417969 187.984375 187.230469 188.082031 C 187.113281 188.140625 186.992188 188.199219 186.875 188.257812 C 186.683594 188.347656 186.496094 188.433594 186.304688 188.515625 C 186.191406 188.566406 186.074219 188.621094 185.960938 188.667969 C 185.761719 188.75 185.566406 188.824219 185.367188 188.894531 C 185.261719 188.933594 185.15625 188.976562 185.054688 189.011719 C 184.824219 189.089844 184.597656 189.15625 184.367188 189.222656 C 184.296875 189.242188 184.226562 189.269531 184.15625 189.285156 C 183.859375 189.367188 183.566406 189.433594 183.273438 189.488281 C 183.203125 189.503906 183.136719 189.507812 183.066406 189.519531 C 182.84375 189.558594 182.625 189.59375 182.40625 189.617188 C 182.296875 189.625 182.195312 189.628906 182.089844 189.636719 C 181.910156 189.652344 181.730469 189.660156 181.550781 189.664062 C 181.515625 189.664062 181.476562 189.667969 181.4375 189.667969 C 181.339844 189.667969 181.242188 189.660156 181.140625 189.65625 C 181.023438 189.652344 180.910156 189.648438 180.792969 189.640625 C 180.652344 189.628906 180.511719 189.613281 180.371094 189.59375 C 180.261719 189.578125 180.148438 189.566406 180.039062 189.546875 C 179.898438 189.523438 179.757812 189.488281 179.617188 189.453125 C 179.511719 189.429688 179.40625 189.410156 179.304688 189.378906 C 179.160156 189.339844 179.019531 189.289062 178.878906 189.238281 C 178.785156 189.203125 178.6875 189.175781 178.589844 189.136719 C 178.445312 189.078125 178.300781 189.007812 178.160156 188.9375 C 178.074219 188.894531 177.984375 188.859375 177.898438 188.8125 C 177.75 188.734375 177.601562 188.640625 177.453125 188.546875 C 177.378906 188.5 177.304688 188.460938 177.230469 188.410156 C 177.066406 188.296875 176.90625 188.171875 176.746094 188.042969 C 176.695312 188 176.640625 187.964844 176.589844 187.921875 C 176.382812 187.746094 176.175781 187.554688 175.976562 187.347656 C 175.730469 187.09375 175.492188 186.832031 175.253906 186.566406 C 175.199219 186.507812 175.148438 186.449219 175.097656 186.390625 C 174.621094 185.855469 174.164062 185.304688 173.730469 184.738281 C 173.691406 184.691406 173.652344 184.640625 173.613281 184.589844 C 173.171875 184.011719 172.75 183.421875 172.351562 182.824219 C 172.332031 182.792969 172.308594 182.761719 172.289062 182.730469 C 171.886719 182.121094 171.507812 181.507812 171.15625 180.894531 C 171.144531 180.867188 171.128906 180.84375 171.113281 180.816406 C 170.941406 180.511719 170.777344 180.210938 170.617188 179.910156 C 170.617188 179.90625 170.617188 179.90625 170.613281 179.902344 C 170.460938 179.605469 170.3125 179.308594 170.171875 179.015625 C 170.144531 178.960938 170.121094 178.90625 170.097656 178.855469 C 169.984375 178.621094 169.878906 178.390625 169.78125 178.160156 C 169.75 178.09375 169.722656 178.023438 169.691406 177.957031 C 169.597656 177.734375 169.503906 177.507812 169.417969 177.289062 C 169.410156 177.269531 169.40625 177.25 169.398438 177.230469 C 169.347656 177.105469 169.304688 176.980469 169.257812 176.851562 C 169.226562 176.765625 169.191406 176.679688 169.160156 176.59375 C 169.144531 176.546875 169.132812 176.503906 169.117188 176.457031 C 169.050781 176.261719 168.988281 176.070312 168.929688 175.882812 C 168.890625 175.753906 168.851562 175.625 168.816406 175.5 C 168.769531 175.324219 168.726562 175.15625 168.683594 174.988281 C 168.65625 174.867188 168.625 174.746094 168.601562 174.628906 C 168.558594 174.429688 168.523438 174.242188 168.492188 174.050781 C 168.480469 173.96875 168.460938 173.886719 168.453125 173.808594 C 168.425781 173.617188 168.410156 173.4375 168.394531 173.261719 C 168.792969 173.132812 169.191406 173 169.585938 172.859375 C 171.703125 172.113281 173.734375 171.210938 175.695312 170.191406 C 175.460938 170.625 175.230469 171.070312 175.019531 171.53125 C 174.820312 171.984375 174.621094 172.441406 174.472656 172.964844 C 174.4375 173.105469 174.402344 173.238281 174.375 173.410156 C 174.363281 173.480469 174.355469 173.605469 174.355469 173.710938 C 174.351562 173.75 174.355469 173.847656 174.375 173.941406 C 174.382812 173.984375 174.394531 174.03125 174.40625 174.074219 L 174.414062 174.109375 L 174.417969 174.125 C 174.511719 174.34375 174.445312 174.1875 174.464844 174.238281 L 174.476562 174.257812 L 174.5 174.292969 L 174.546875 174.367188 C 174.609375 174.460938 174.683594 174.546875 174.765625 174.621094 C 174.832031 174.671875 174.902344 174.71875 174.964844 174.757812 C 175.003906 174.78125 175.039062 174.800781 175.070312 174.816406 C 175.261719 174.910156 175.410156 174.941406 175.558594 174.976562 C 176.132812 175.085938 176.589844 175.054688 177.027344 175.023438 C 177.464844 174.984375 177.863281 174.921875 178.226562 174.847656 C 178.578125 174.777344 178.898438 174.699219 179.179688 174.617188 C 179.480469 174.535156 179.742188 174.449219 179.949219 174.375 C 180.359375 174.234375 180.585938 174.125 180.585938 174.125 C 180.585938 174.125 180.339844 174.085938 179.914062 174.039062 C 179.488281 173.988281 178.882812 173.929688 178.175781 173.859375 C 177.820312 173.824219 177.441406 173.785156 177.050781 173.734375 C 176.703125 173.6875 176.332031 173.628906 176.039062 173.535156 C 176.046875 173.507812 176.058594 173.480469 176.066406 173.453125 C 176.203125 173.078125 176.386719 172.652344 176.582031 172.238281 C 176.964844 171.394531 177.367188 170.535156 177.730469 169.722656 C 177.859375 169.429688 177.980469 169.148438 178.097656 168.871094 C 180.699219 167.359375 183.183594 165.652344 185.589844 163.828125 C 186.726562 162.964844 187.847656 162.082031 188.953125 161.179688 C 191.34375 160.683594 192.859375 161.054688 193.8125 161.691406 C 192.84375 161.246094 191.519531 161.070312 189.699219 161.496094 C 184.878906 162.625 184.964844 167.847656 184.964844 167.859375 C 185.417969 166.308594 186.476562 164.984375 187.777344 164.105469 C 188.5 165.4375 189.8125 166.214844 191.324219 166.589844 L 189.21875 167.238281 L 189.226562 167.238281 L 190.597656 167.082031 L 198.894531 166.132812 L 198.097656 165.796875 L 196.339844 165.046875 C 196.339844 165.046875 196.203125 164.144531 195.585938 163.21875 C 195.070312 161.960938 193.625 160.046875 189.625 160.625 C 190.363281 160.015625 191.097656 159.398438 191.828125 158.777344 C 191.953125 158.75 192.074219 158.722656 192.195312 158.703125 C 193.246094 160.09375 194.640625 161.507812 196.46875 162.851562 C 197.597656 163.675781 199.320312 164.394531 200.542969 165.410156 C 201.167969 165.929688 201.664062 166.527344 201.878906 167.261719 C 202.054688 167.859375 201.671875 168.230469 201.238281 168.605469 C 200.484375 169.261719 199.570312 169.9375 201.175781 171.867188 C 201.242188 171.949219 201.320312 172.023438 201.398438 172.09375 C 202.28125 172.882812 203.820312 172.992188 205.484375 172.613281 C 204.65625 173.539062 203.765625 174.921875 203.285156 175.371094 C 202.859375 175.773438 200.863281 176.253906 199.859375 176.476562 C 198.613281 178.222656 197.316406 179.621094 196.339844 180.714844 C 193.882812 183.472656 191.121094 185.847656 188.359375 187.460938 C 188.367188 187.460938 188.371094 187.460938 188.375 187.460938 Z M 185.46875 191.796875 C 185.488281 193.425781 185.109375 194.871094 184.339844 196.109375 C 183.765625 197.035156 182.578125 197.367188 180.25 197.617188 C 178.214844 194.878906 176.042969 193.34375 173.644531 192.960938 C 173.152344 191.824219 172.507812 190.597656 171.710938 189.296875 L 173.992188 189.296875 C 176.019531 191.390625 178.527344 192.449219 181.4375 192.449219 C 182.410156 192.449219 183.4375 192.324219 184.492188 192.070312 C 184.8125 191.992188 185.140625 191.902344 185.46875 191.796875 Z M 175.824219 173.441406 C 175.824219 173.441406 175.828125 173.445312 175.828125 173.449219 C 175.820312 173.445312 175.808594 173.4375 175.804688 173.433594 C 175.785156 173.421875 175.8125 173.425781 175.824219 173.441406 Z M 192.625 165.296875 L 192.667969 165.296875 C 193.390625 165.296875 194.035156 164.953125 194.464844 164.421875 C 194.722656 164.707031 194.957031 165.03125 195.171875 165.40625 L 193.5625 165.898438 L 192.878906 166 C 191.183594 165.78125 189.65625 165.019531 189.074219 163.417969 C 189.476562 163.253906 189.886719 163.136719 190.300781 163.066406 C 190.316406 163.453125 190.429688 163.820312 190.621094 164.136719 C 190.683594 164.089844 190.761719 164.054688 190.867188 164.054688 L 190.894531 164.054688 C 191.316406 164.054688 191.414062 164.554688 191.1875 164.789062 C 191.585938 165.105469 192.085938 165.296875 192.625 165.296875 Z M 153.125 197.851562 C 153.125 192.746094 160.621094 184.101562 162.589844 181.921875 C 164.558594 184.101562 172.054688 192.742188 172.054688 197.851562 C 172.054688 203.664062 167.808594 208.390625 162.589844 208.390625 C 157.371094 208.390625 153.125 203.664062 153.125 197.851562 Z M 159.609375 209.207031 C 160.558594 209.507812 161.558594 209.671875 162.589844 209.671875 C 168.519531 209.671875 173.339844 204.371094 173.339844 197.851562 C 173.339844 197.171875 173.222656 196.441406 173.019531 195.683594 C 177.019531 196.027344 179.058594 199.597656 179.601562 200.476562 C 176.601562 205.277344 173.25 206.769531 170.480469 215.253906 C 170.519531 215.84375 170.820312 216.566406 171.34375 217.347656 C 170.855469 218.1875 170.414062 219.1875 170.046875 220.382812 C 169.53125 222.050781 167.214844 223.75 165.449219 223.75 C 166.023438 220.628906 167.640625 217.835938 168.195312 216.292969 C 166.488281 218.007812 164.886719 220.40625 163.835938 222.976562 C 161.667969 221.203125 157.492188 217.554688 156.269531 216.488281 C 156.269531 216.484375 156.261719 216.480469 156.257812 216.476562 C 156.25 216.425781 156.238281 216.382812 156.230469 216.332031 C 157.40625 213.636719 158.535156 211.273438 159.609375 209.207031 Z M 167.125 238.917969 C 166.894531 238.730469 166.65625 238.546875 166.414062 238.367188 C 166.332031 238.308594 166.246094 238.25 166.164062 238.191406 C 166 238.074219 165.839844 237.960938 165.675781 237.847656 C 165.542969 237.761719 165.410156 237.675781 165.277344 237.589844 C 165.15625 237.511719 165.035156 237.433594 164.914062 237.355469 C 164.746094 237.253906 164.574219 237.152344 164.402344 237.050781 C 164.3125 237 164.222656 236.945312 164.132812 236.890625 C 163.933594 236.777344 163.730469 236.667969 163.527344 236.554688 C 163.464844 236.519531 163.398438 236.488281 163.335938 236.453125 C 163.109375 236.332031 162.875 236.210938 162.644531 236.09375 C 162.605469 236.074219 162.566406 236.054688 162.527344 236.035156 C 162.273438 235.910156 162.015625 235.785156 161.757812 235.664062 C 161.742188 235.65625 161.726562 235.648438 161.710938 235.640625 C 161.433594 235.515625 161.15625 235.390625 160.878906 235.269531 C 153.476562 232.03125 144.957031 230.996094 144.957031 230.996094 L 140.761719 225.777344 C 140.761719 225.777344 141.117188 225.132812 142.0625 225.132812 C 143.085938 225.132812 144.8125 225.890625 147.539062 229.046875 L 149.117188 229.316406 L 150.425781 229.539062 L 143.90625 223.691406 L 141.042969 215.238281 C 141.042969 215.238281 141.667969 214.992188 142.445312 214.992188 C 143.308594 214.992188 144.351562 215.289062 144.929688 216.542969 C 146.03125 218.929688 146.644531 222.035156 146.78125 222.242188 L 152.8125 227.371094 L 153.796875 226.449219 L 147.539062 221.445312 L 144.613281 210.484375 C 144.613281 210.484375 144.804688 210.386719 145.125 210.386719 C 146.132812 210.386719 148.390625 211.351562 149.871094 219.320312 L 155.5625 224.6875 L 156.457031 223.546875 L 151.359375 218.332031 L 150.039062 209.503906 C 150.039062 209.503906 150.425781 209.148438 151.007812 209.148438 C 152.078125 209.148438 153.816406 210.347656 155.082031 217.152344 C 155.082031 217.152344 161.328125 222.636719 163.589844 224.433594 C 164.113281 224.851562 164.757812 225.035156 165.449219 225.035156 C 167.75 225.035156 170.582031 223.011719 171.273438 220.761719 C 173.046875 215.007812 176.613281 214.394531 178.058594 214.394531 C 178.449219 214.394531 178.6875 214.4375 178.6875 214.4375 C 178.6875 214.4375 175.660156 220.160156 174.984375 225.53125 C 174.582031 228.703125 175 231.753906 177.347656 233.425781 L 180.003906 234.585938 L 179.996094 234.597656 L 180.386719 234.753906 L 186.996094 237.636719 L 187.15625 239.644531 L 188.863281 260.917969 L 182.542969 255.105469 L 182.539062 255.097656 C 176.394531 248.445312 170.488281 241.644531 167.125 238.917969 Z M 176.792969 222.945312 C 179.734375 224.621094 183.394531 225.84375 187.367188 225.84375 C 190.054688 225.84375 192.667969 225.273438 195.167969 224.164062 C 194.820312 225.285156 194.496094 226.332031 194.203125 227.28125 C 193.726562 228.835938 193.324219 230.144531 193.058594 230.90625 C 191.835938 230.46875 189.742188 229.902344 187.742188 229.902344 C 186.527344 229.902344 185.5 230.113281 184.679688 230.519531 C 182.683594 231.515625 181.371094 232.867188 180.800781 233.53125 L 177.992188 232.304688 C 176.4375 231.121094 175.855469 228.898438 176.257812 225.691406 C 176.375 224.777344 176.5625 223.851562 176.792969 222.945312 Z M 215.398438 195.136719 C 216.511719 195.136719 217.710938 195.234375 218.945312 195.765625 C 226.550781 199.058594 229.550781 202.621094 230.925781 205.636719 C 240.136719 227.457031 224.925781 261.257812 214.210938 273.664062 C 208.074219 280.773438 200.710938 279.867188 196 277.085938 C 194.273438 276.066406 188.109375 272.613281 182.003906 256.351562 L 190.40625 264.085938 L 188.191406 236.460938 L 182.074219 234.039062 C 182.675781 233.402344 183.757812 232.414062 185.253906 231.667969 C 185.890625 231.347656 186.730469 231.1875 187.742188 231.1875 C 189.933594 231.1875 192.253906 231.933594 193.175781 232.328125 L 193.753906 232.574219 L 194.011719 232 C 194.269531 231.433594 194.734375 229.933594 195.433594 227.660156 C 197.664062 220.414062 202.304688 205.339844 207.191406 199.648438 C 209.988281 196.527344 212.519531 195.136719 215.398438 195.136719 Z M 209.296875 195.957031 C 208.28125 196.699219 207.265625 197.636719 206.222656 198.800781 C 205.054688 200.160156 203.917969 201.992188 202.828125 204.09375 C 202.429688 204.140625 202.035156 204.1875 201.636719 204.234375 C 200.988281 204.308594 200.339844 204.410156 199.691406 204.5 C 199.039062 204.585938 198.390625 204.6875 197.746094 204.789062 C 197.097656 204.898438 196.453125 205.003906 195.808594 205.125 C 195.164062 205.25 194.515625 205.359375 193.875 205.496094 L 193.648438 205.546875 L 193.550781 205.683594 L 192.714844 206.839844 L 191.90625 208.011719 C 191.378906 208.804688 190.851562 209.59375 190.371094 210.425781 C 190.371094 210.425781 190.371094 210.425781 190.371094 210.429688 C 191.085938 209.789062 191.75 209.109375 192.417969 208.425781 L 193.402344 207.394531 L 194.207031 206.507812 C 194.800781 206.449219 195.394531 206.371094 195.988281 206.304688 C 196.640625 206.230469 197.289062 206.136719 197.9375 206.046875 C 198.585938 205.953125 199.234375 205.855469 199.882812 205.746094 C 200.527344 205.636719 201.175781 205.542969 201.820312 205.421875 C 201.945312 205.398438 202.070312 205.375 202.195312 205.351562 C 201.691406 206.382812 201.199219 207.46875 200.722656 208.589844 C 198.78125 213.136719 197.058594 218.21875 195.6875 222.527344 C 193.054688 223.875 190.277344 224.5625 187.367188 224.5625 C 185.007812 224.5625 182.765625 224.085938 180.738281 223.339844 L 183.253906 218.84375 C 183.253906 218.84375 179.433594 220.550781 178.214844 222.226562 C 177.851562 222.035156 177.5 221.839844 177.160156 221.640625 C 178.242188 218.054688 179.800781 215.074219 179.824219 215.035156 L 180.628906 213.503906 L 178.929688 213.175781 C 178.871094 213.164062 178.546875 213.109375 178.054688 213.109375 C 177.472656 213.109375 176.601562 213.191406 175.625 213.546875 C 174.367188 214.011719 172.933594 214.9375 171.71875 216.75 C 171.390625 216.21875 171.1875 215.730469 171.132812 215.324219 C 172.949219 209.820312 175.046875 207.316406 177.074219 204.894531 C 178.089844 203.679688 179.140625 202.421875 180.144531 200.816406 L 180.355469 200.480469 L 180.3125 200.402344 C 182.699219 200.167969 184.824219 199.78125 186.195312 198.25 C 186.277344 198.15625 186.359375 198.058594 186.4375 197.957031 C 186.492188 197.886719 186.542969 197.808594 186.59375 197.734375 C 186.632812 197.679688 186.675781 197.628906 186.710938 197.566406 C 186.746094 197.511719 186.777344 197.453125 186.808594 197.398438 C 186.875 197.285156 186.941406 197.175781 187.003906 197.0625 C 187.070312 196.941406 187.128906 196.820312 187.1875 196.699219 C 187.191406 196.691406 187.195312 196.6875 187.195312 196.679688 C 187.214844 196.640625 187.234375 196.605469 187.253906 196.566406 C 187.324219 196.417969 187.390625 196.269531 187.449219 196.117188 C 187.457031 196.101562 187.464844 196.085938 187.472656 196.070312 C 187.53125 195.921875 187.589844 195.765625 187.644531 195.613281 C 187.648438 195.597656 187.65625 195.585938 187.660156 195.570312 C 187.710938 195.425781 187.753906 195.285156 187.796875 195.144531 C 187.804688 195.121094 187.8125 195.097656 187.816406 195.078125 C 187.859375 194.933594 187.894531 194.796875 187.929688 194.65625 C 187.9375 194.632812 187.941406 194.613281 187.945312 194.59375 C 187.980469 194.449219 188.011719 194.304688 188.039062 194.160156 C 188.042969 194.148438 188.042969 194.140625 188.046875 194.128906 C 188.261719 193.027344 188.296875 191.949219 188.226562 190.9375 C 188.226562 190.933594 188.226562 190.929688 188.222656 190.925781 C 188.214844 190.785156 188.203125 190.644531 188.1875 190.503906 C 188.1875 190.503906 188.1875 190.5 188.1875 190.496094 C 188.140625 190.023438 188.070312 189.574219 187.984375 189.144531 C 191.058594 187.5625 194.253906 184.984375 197.300781 181.570312 L 197.644531 181.1875 C 198.277344 180.476562 199.015625 179.652344 199.78125 178.699219 C 200.054688 178.355469 200.335938 177.996094 200.613281 177.617188 C 200.691406 177.601562 200.757812 177.585938 200.832031 177.566406 C 200.886719 177.554688 200.945312 177.539062 201 177.527344 C 201.039062 181.695312 201.253906 187.058594 202.480469 192.265625 C 202.519531 192.425781 202.5625 192.570312 202.605469 192.714844 C 202.648438 192.839844 202.691406 192.960938 202.734375 193.078125 C 203.75 195.695312 206.15625 195.554688 209.296875 195.957031 Z M 231.148438 179.824219 C 224.863281 183.664062 223.972656 178.976562 222.535156 179.027344 C 218.921875 179.15625 217.539062 183.578125 213.472656 181.835938 C 212.171875 181.28125 211.640625 180.261719 210.078125 180.683594 C 208.425781 181.132812 206.007812 182.59375 206.863281 184.734375 C 201.914062 182.707031 205.007812 178.28125 207.042969 175.285156 C 207.042969 175.285156 205.910156 181.722656 209.792969 177.601562 C 212.4375 174.796875 214.113281 179.546875 216.4375 178.972656 C 219.308594 178.265625 221.222656 171.304688 223.894531 174.933594 C 224.839844 176.222656 225.902344 178.074219 227.363281 178.96875 C 228.453125 179.640625 229.925781 179.652344 231.148438 179.824219 Z M 226.804688 162.121094 C 224.683594 156.757812 220.085938 159.703125 218.398438 155.710938 C 216.59375 151.433594 218.828125 147.742188 216.792969 144.90625 C 216.511719 144.511719 216.210938 144.136719 215.894531 143.78125 C 217.414062 143.28125 218.964844 142.863281 220.546875 142.546875 C 230.089844 140.628906 238.460938 144.617188 244.519531 151.976562 C 245.027344 152.597656 245.3125 152.917969 245.457031 153.058594 C 245.539062 156.417969 244.128906 158.859375 242.71875 159.722656 C 238.207031 162.464844 232.082031 163.449219 226.804688 162.121094 Z M 189.542969 173.253906 C 189.542969 173.253906 189.480469 173.28125 189.363281 173.332031 C 189.25 173.386719 189.097656 173.488281 188.929688 173.632812 C 188.585938 173.929688 188.210938 174.453125 187.789062 175.125 C 187.574219 175.460938 187.351562 175.835938 187.09375 176.222656 C 186.835938 176.613281 186.554688 177.03125 186.214844 177.433594 C 186.152344 177.507812 186.089844 177.578125 186.027344 177.648438 C 185.988281 177.691406 185.953125 177.734375 185.914062 177.777344 C 185.648438 178.066406 185.351562 178.347656 185.007812 178.601562 C 184.527344 178.957031 184.027344 179.203125 183.527344 179.457031 C 182.511719 179.9375 181.425781 180.269531 180.390625 180.441406 C 179.875 180.535156 179.371094 180.574219 178.894531 180.597656 C 178.417969 180.621094 177.96875 180.609375 177.554688 180.582031 C 177.476562 180.578125 177.402344 180.570312 177.328125 180.566406 C 177.203125 180.554688 177.078125 180.546875 176.964844 180.535156 C 176.78125 180.507812 176.601562 180.484375 176.4375 180.460938 C 176.105469 180.414062 175.820312 180.34375 175.585938 180.296875 C 175.125 180.179688 174.863281 180.097656 174.863281 180.097656 C 174.863281 180.097656 175.136719 180.070312 175.609375 180.042969 C 175.84375 180.023438 176.128906 180 176.453125 179.972656 C 176.675781 179.949219 176.925781 179.921875 177.183594 179.890625 C 177.296875 179.875 177.410156 179.863281 177.53125 179.847656 C 177.925781 179.796875 178.34375 179.722656 178.785156 179.648438 C 179.226562 179.5625 179.683594 179.453125 180.152344 179.332031 C 181.085938 179.082031 182.050781 178.738281 182.976562 178.296875 C 183.4375 178.074219 183.902344 177.84375 184.285156 177.585938 C 184.558594 177.402344 184.816406 177.179688 185.066406 176.953125 C 185.167969 176.859375 185.273438 176.765625 185.371094 176.671875 C 186.050781 176 186.632812 175.265625 187.207031 174.671875 C 187.765625 174.070312 188.332031 173.613281 188.792969 173.417969 C 189.019531 173.3125 189.214844 173.277344 189.34375 173.261719 C 189.476562 173.25 189.542969 173.253906 189.542969 173.253906 Z M 196.03125 168.25 L 194.058594 167.078125 L 195.375 166.925781 Z M 197.710938 168.105469 L 195.734375 166.929688 L 197.054688 166.78125 Z M 207.417969 240.84375 C 207.789062 241.378906 208.199219 241.90625 208.535156 242.488281 C 208.714844 242.773438 208.890625 243.0625 209.070312 243.351562 C 209.230469 243.652344 209.390625 243.953125 209.554688 244.253906 C 209.890625 244.855469 210.164062 245.488281 210.449219 246.121094 C 210.714844 246.761719 210.964844 247.414062 211.199219 248.070312 C 211.625 249.390625 212.003906 250.734375 212.234375 252.074219 C 212.355469 252.746094 212.484375 253.410156 212.535156 254.074219 C 212.601562 254.738281 212.695312 255.386719 212.703125 256.03125 C 212.714844 256.675781 212.777344 257.308594 212.75 257.925781 C 212.730469 258.542969 212.710938 259.144531 212.695312 259.734375 C 212.582031 260.902344 212.507812 262.003906 212.316406 263.007812 C 212.230469 263.507812 212.148438 263.984375 212.070312 264.441406 C 211.964844 264.890625 211.863281 265.320312 211.769531 265.71875 C 211.667969 266.121094 211.582031 266.492188 211.488281 266.835938 C 211.390625 267.179688 211.28125 267.488281 211.195312 267.769531 C 211.023438 268.332031 210.859375 268.769531 210.761719 269.066406 C 210.652344 269.363281 210.59375 269.519531 210.59375 269.519531 C 210.59375 269.519531 210.59375 269.351562 210.589844 269.035156 C 210.597656 268.722656 210.585938 268.257812 210.605469 267.675781 C 210.613281 267.382812 210.628906 267.0625 210.625 266.714844 C 210.617188 266.363281 210.621094 265.984375 210.617188 265.582031 C 210.621094 265.179688 210.621094 264.753906 210.625 264.304688 C 210.613281 263.855469 210.597656 263.382812 210.582031 262.890625 C 210.574219 262.402344 210.574219 261.894531 210.527344 261.367188 C 210.496094 260.84375 210.46875 260.300781 210.4375 259.746094 C 210.382812 259.191406 210.328125 258.625 210.273438 258.046875 C 210.226562 257.46875 210.125 256.882812 210.054688 256.289062 C 209.714844 253.910156 209.171875 251.421875 208.363281 249.03125 C 208.15625 248.4375 207.9375 247.84375 207.707031 247.261719 C 207.445312 246.691406 207.242188 246.097656 206.953125 245.546875 C 206.445312 244.414062 205.828125 243.363281 205.226562 242.335938 C 204.585938 241.339844 203.953125 240.378906 203.269531 239.519531 C 202.597656 238.652344 201.925781 237.851562 201.257812 237.152344 C 200.863281 236.722656 200.476562 236.328125 200.101562 235.964844 C 199.230469 235.113281 198.433594 234.429688 197.808594 233.917969 C 196.90625 233.191406 196.339844 232.8125 196.339844 232.8125 C 196.339844 232.8125 196.507812 232.847656 196.8125 232.9375 C 197.109375 233.039062 197.5625 233.167969 198.109375 233.40625 C 198.65625 233.636719 199.320312 233.929688 200.046875 234.339844 C 200.777344 234.742188 201.574219 235.242188 202.40625 235.855469 C 202.46875 235.902344 202.53125 235.953125 202.59375 236 C 203.371094 236.578125 204.160156 237.253906 204.949219 238.023438 C 205.804688 238.851562 206.621094 239.808594 207.417969 240.84375 Z M 180.828125 171.78125 C 180.683594 171.464844 180.585938 171.253906 180.585938 171.253906 C 180.585938 171.253906 180.648438 171.21875 180.761719 171.1875 C 180.871094 171.15625 181.03125 171.132812 181.21875 171.152344 C 181.402344 171.171875 181.609375 171.238281 181.804688 171.355469 C 181.902344 171.414062 182.003906 171.480469 182.085938 171.570312 C 182.179688 171.648438 182.25 171.75 182.324219 171.851562 C 182.394531 171.953125 182.445312 172.066406 182.492188 172.175781 C 182.539062 172.289062 182.558594 172.410156 182.578125 172.519531 C 182.605469 172.75 182.589844 172.960938 182.53125 173.136719 C 182.480469 173.3125 182.390625 173.449219 182.324219 173.539062 C 182.257812 173.632812 182.203125 173.679688 182.203125 173.679688 C 182.203125 173.679688 182.144531 173.628906 182.070312 173.550781 C 182.03125 173.511719 181.984375 173.464844 181.941406 173.414062 C 181.902344 173.363281 181.84375 173.308594 181.792969 173.253906 C 181.742188 173.199219 181.703125 173.136719 181.648438 173.078125 C 181.597656 173.023438 181.550781 172.960938 181.507812 172.90625 C 181.457031 172.847656 181.414062 172.789062 181.375 172.730469 C 181.324219 172.675781 181.296875 172.609375 181.25 172.554688 C 181.097656 172.324219 180.960938 172.054688 180.828125 171.78125 Z M 184.304688 184.347656 C 184.304688 184.347656 184.210938 184.382812 184.066406 184.421875 C 183.992188 184.4375 183.90625 184.464844 183.8125 184.476562 C 183.714844 184.5 183.609375 184.535156 183.496094 184.558594 C 183.386719 184.578125 183.269531 184.609375 183.148438 184.640625 C 183.027344 184.667969 182.902344 184.691406 182.777344 184.726562 C 182.648438 184.753906 182.519531 184.78125 182.386719 184.816406 C 182.253906 184.84375 182.121094 184.871094 181.988281 184.90625 C 181.851562 184.925781 181.722656 184.972656 181.585938 184.996094 C 181.453125 185.027344 181.316406 185.054688 181.1875 185.082031 C 180.921875 185.140625 180.664062 185.183594 180.433594 185.222656 C 180.351562 185.234375 180.273438 185.242188 180.199219 185.253906 C 180.066406 185.273438 179.941406 185.289062 179.847656 185.296875 C 179.695312 185.3125 179.601562 185.320312 179.601562 185.320312 C 179.601562 185.320312 179.625 185.226562 179.703125 185.089844 C 179.773438 184.949219 179.898438 184.765625 180.074219 184.574219 C 180.421875 184.191406 181.015625 183.808594 181.699219 183.65625 C 182.039062 183.578125 182.394531 183.550781 182.722656 183.589844 C 182.886719 183.597656 183.042969 183.632812 183.191406 183.675781 C 183.304688 183.703125 183.402344 183.742188 183.5 183.785156 C 183.53125 183.800781 183.566406 183.804688 183.589844 183.820312 C 183.832031 183.929688 184.011719 184.0625 184.128906 184.171875 C 184.25 184.277344 184.304688 184.347656 184.304688 184.347656 Z M 184.304688 184.347656 " fill-opacity="1" fill-rule="nonzero"/><g mask="url(#a6ac94d381)"><g transform="matrix(1, 0, 0, 1, 146, 99)"><g clip-path="url(#9f1da7c90c)"><g clip-path="url(#bd0cfd17ca)"><path fill="#292929" d="M 54.722656 109.589844 C 48.953125 109.667969 43.636719 112.332031 43.636719 112.332031 L 44.375 111.425781 C 44.371094 111.425781 44.371094 111.425781 44.371094 111.429688 C 45.085938 110.789062 45.75 110.109375 46.417969 109.429688 L 47.402344 108.394531 L 48.207031 107.507812 C 48.800781 107.449219 49.394531 107.371094 49.988281 107.304688 C 50.640625 107.230469 51.289062 107.136719 51.9375 107.046875 C 52.585938 106.957031 53.234375 106.855469 53.882812 106.746094 C 54.527344 106.636719 55.175781 106.546875 55.820312 106.421875 C 55.945312 106.398438 56.070312 106.375 56.195312 106.351562 C 55.691406 107.382812 55.199219 108.46875 54.722656 109.589844 Z M 56.554688 94.242188 C 54.636719 96.015625 43.066406 106.355469 43.066406 106.355469 C 43.066406 106.355469 42.238281 104.371094 41.46875 102.472656 C 41.296875 102.671875 41.132812 102.871094 40.972656 103.074219 C 39.273438 105.234375 40.753906 112.4375 40.753906 112.4375 C 40.753906 112.4375 34.9375 110.046875 32.691406 111.234375 C 31.3125 111.960938 30.335938 113.191406 29.625 114.546875 C 28.367188 115.011719 26.933594 115.9375 25.71875 117.75 C 25.390625 117.21875 25.1875 116.730469 25.132812 116.324219 C 26.949219 110.820312 29.046875 108.316406 31.074219 105.894531 C 32.089844 104.679688 33.144531 103.421875 34.144531 101.816406 L 34.355469 101.476562 L 34.3125 101.402344 C 36.699219 101.167969 38.828125 100.78125 40.195312 99.25 C 40.277344 99.15625 40.359375 99.058594 40.4375 98.957031 C 40.492188 98.882812 40.542969 98.808594 40.59375 98.734375 C 40.632812 98.679688 40.675781 98.625 40.710938 98.566406 C 40.746094 98.511719 40.777344 98.453125 40.808594 98.398438 C 40.875 98.285156 40.941406 98.175781 41.003906 98.0625 C 41.070312 97.941406 41.128906 97.820312 41.1875 97.695312 C 41.191406 97.691406 41.195312 97.683594 41.199219 97.679688 C 41.214844 97.644531 41.234375 97.605469 41.253906 97.570312 C 41.253906 97.566406 41.253906 97.566406 41.253906 97.566406 C 41.324219 97.417969 41.390625 97.265625 41.449219 97.117188 C 41.453125 97.109375 41.457031 97.101562 41.460938 97.09375 C 41.464844 97.089844 41.464844 97.082031 41.46875 97.078125 C 41.46875 97.078125 41.46875 97.074219 41.472656 97.070312 C 41.53125 96.917969 41.589844 96.765625 41.644531 96.613281 C 41.648438 96.601562 41.652344 96.589844 41.65625 96.582031 C 41.65625 96.578125 41.660156 96.570312 41.660156 96.566406 C 41.710938 96.425781 41.753906 96.285156 41.796875 96.144531 C 41.804688 96.121094 41.808594 96.097656 41.816406 96.074219 C 41.859375 95.933594 41.894531 95.792969 41.929688 95.652344 C 41.9375 95.632812 41.941406 95.613281 41.945312 95.589844 C 41.980469 95.445312 42.011719 95.300781 42.039062 95.15625 C 42.042969 95.148438 42.042969 95.136719 42.046875 95.128906 C 42.261719 94.027344 42.296875 92.945312 42.226562 91.9375 C 42.226562 91.933594 42.226562 91.929688 42.222656 91.925781 C 42.214844 91.785156 42.203125 91.644531 42.1875 91.503906 C 42.1875 91.5 42.1875 91.5 42.1875 91.496094 C 42.140625 91.023438 42.070312 90.570312 41.984375 90.144531 C 45.058594 88.5625 48.253906 85.984375 51.300781 82.566406 L 51.644531 82.183594 C 52.277344 81.476562 53.015625 80.648438 53.78125 79.699219 C 54.054688 79.355469 54.335938 78.996094 54.613281 78.617188 C 54.691406 78.601562 54.757812 78.582031 54.832031 78.566406 C 54.886719 78.550781 54.945312 78.539062 55 78.523438 C 55.039062 82.695312 55.253906 88.054688 56.480469 93.265625 C 56.519531 93.425781 56.5625 93.574219 56.605469 93.714844 C 56.648438 93.839844 56.691406 93.960938 56.734375 94.078125 C 56.675781 94.132812 56.617188 94.1875 56.554688 94.242188 Z M 49.78125 88.800781 C 49.78125 88.800781 48.84375 90.796875 44.144531 92.117188 L 43.636719 101.5625 Z M 31.1875 78.460938 C 31.605469 78.175781 32.070312 77.984375 32.554688 77.851562 C 32.828125 76.917969 33.070312 76.027344 33.179688 75.617188 C 32.898438 75.695312 32.578125 75.777344 32.226562 75.847656 C 31.863281 75.917969 31.464844 75.984375 31.027344 76.023438 C 30.589844 76.050781 30.132812 76.082031 29.558594 75.972656 C 29.410156 75.941406 29.261719 75.910156 29.070312 75.8125 C 29.039062 75.800781 29.003906 75.777344 28.964844 75.757812 C 27.867188 77.304688 26.0625 78.316406 24.015625 78.316406 C 23.8125 78.316406 23.617188 78.308594 23.421875 78.285156 C 23.507812 78.507812 23.59375 78.730469 23.691406 78.957031 C 23.71875 79.023438 23.75 79.089844 23.78125 79.15625 C 23.878906 79.386719 23.984375 79.621094 24.09375 79.855469 C 24.121094 79.90625 24.144531 79.957031 24.167969 80.011719 C 24.3125 80.308594 24.457031 80.601562 24.613281 80.902344 C 24.613281 80.902344 24.617188 80.90625 24.617188 80.90625 C 24.773438 81.207031 24.941406 81.511719 25.113281 81.816406 C 25.128906 81.839844 25.140625 81.867188 25.15625 81.890625 C 25.507812 82.503906 25.882812 83.117188 26.289062 83.726562 C 26.308594 83.761719 26.328125 83.792969 26.351562 83.824219 C 26.75 84.417969 27.171875 85.011719 27.613281 85.589844 C 27.652344 85.640625 27.691406 85.6875 27.726562 85.738281 C 28.164062 86.300781 28.621094 86.855469 29.097656 87.390625 C 29.148438 87.449219 29.199219 87.507812 29.253906 87.566406 C 29.488281 87.828125 29.730469 88.089844 29.976562 88.347656 C 30.175781 88.554688 30.382812 88.746094 30.589844 88.921875 C 30.640625 88.964844 30.695312 89 30.746094 89.039062 C 30.90625 89.167969 31.066406 89.296875 31.230469 89.410156 C 31.304688 89.457031 31.378906 89.5 31.453125 89.542969 C 31.601562 89.636719 31.746094 89.730469 31.898438 89.8125 C 31.984375 89.859375 32.070312 89.894531 32.160156 89.9375 C 32.300781 90.003906 32.445312 90.074219 32.589844 90.132812 C 32.683594 90.171875 32.78125 90.203125 32.878906 90.234375 C 33.019531 90.285156 33.160156 90.335938 33.304688 90.378906 C 33.40625 90.40625 33.511719 90.429688 33.617188 90.453125 C 33.757812 90.484375 33.894531 90.519531 34.039062 90.546875 C 34.148438 90.566406 34.261719 90.578125 34.371094 90.589844 C 34.511719 90.609375 34.652344 90.628906 34.792969 90.640625 C 34.90625 90.648438 35.023438 90.652344 35.140625 90.65625 C 35.277344 90.660156 35.414062 90.664062 35.550781 90.664062 C 35.730469 90.660156 35.90625 90.648438 36.089844 90.636719 C 36.191406 90.628906 36.296875 90.625 36.402344 90.613281 C 36.621094 90.589844 36.84375 90.558594 37.066406 90.519531 C 37.132812 90.507812 37.203125 90.5 37.269531 90.488281 C 37.5625 90.433594 37.859375 90.363281 38.15625 90.285156 C 38.226562 90.265625 38.296875 90.242188 38.367188 90.222656 C 38.59375 90.15625 38.824219 90.089844 39.050781 90.007812 C 39.15625 89.972656 39.261719 89.929688 39.367188 89.894531 C 39.5625 89.820312 39.761719 89.746094 39.957031 89.664062 C 40.074219 89.617188 40.191406 89.566406 40.304688 89.515625 C 40.496094 89.429688 40.683594 89.347656 40.875 89.253906 C 40.992188 89.199219 41.109375 89.136719 41.230469 89.078125 C 41.417969 88.984375 41.609375 88.882812 41.800781 88.777344 C 41.917969 88.714844 42.03125 88.652344 42.148438 88.585938 C 42.222656 88.542969 42.300781 88.503906 42.375 88.457031 C 42.371094 88.457031 42.363281 88.457031 42.359375 88.460938 C 35.96875 89.171875 34.515625 87.039062 34.199219 86.253906 C 34.066406 86.269531 33.941406 86.285156 33.847656 86.296875 C 33.695312 86.3125 33.601562 86.316406 33.601562 86.316406 C 33.601562 86.316406 33.625 86.226562 33.699219 86.085938 C 33.773438 85.949219 33.894531 85.765625 34.070312 85.574219 C 34.421875 85.191406 35.015625 84.804688 35.699219 84.652344 C 36.039062 84.578125 36.394531 84.550781 36.722656 84.585938 C 36.886719 84.59375 37.042969 84.632812 37.191406 84.671875 C 37.304688 84.699219 37.402344 84.742188 37.5 84.785156 C 39.007812 83.789062 40.375 81.964844 40.027344 78.648438 C 39.988281 78.691406 39.953125 78.730469 39.914062 78.773438 C 38.226562 83.75 32.703125 84.371094 32.042969 84.019531 C 31.027344 83.476562 31.183594 82.179688 31.324219 81.5625 C 31.203125 81.554688 31.078125 81.546875 30.964844 81.535156 C 30.777344 81.507812 30.601562 81.480469 30.4375 81.457031 C 30.105469 81.414062 29.820312 81.339844 29.585938 81.296875 C 29.125 81.179688 28.863281 81.097656 28.863281 81.097656 C 28.863281 81.097656 29.136719 81.066406 29.609375 81.042969 C 29.84375 81.019531 30.125 80.996094 30.453125 80.96875 C 30.675781 80.949219 30.925781 80.917969 31.183594 80.886719 C 30.808594 80.308594 30.222656 79.109375 31.1875 78.460938 Z M 22.394531 74.257812 C 22.410156 74.4375 22.425781 74.617188 22.453125 74.808594 C 22.425781 74.617188 22.410156 74.4375 22.398438 74.257812 C 22.394531 74.257812 22.394531 74.257812 22.394531 74.257812 Z M 49.585938 64.214844 C 50.203125 65.140625 50.339844 66.046875 50.339844 66.046875 L 52.097656 66.792969 L 52.996094 66.652344 L 54.542969 66.410156 C 53.320312 65.394531 51.597656 64.675781 50.46875 63.847656 C 48.640625 62.507812 47.246094 61.09375 46.195312 59.699219 C 46.074219 59.722656 45.953125 59.746094 45.828125 59.777344 C 45.097656 60.398438 44.363281 61.015625 43.625 61.625 C 47.625 61.046875 49.070312 62.960938 49.585938 64.214844 Z M 39.589844 64.824219 C 38.867188 67.21875 38.964844 68.859375 38.964844 68.859375 C 38.964844 68.847656 38.878906 63.625 43.699219 62.496094 C 45.519531 62.070312 46.84375 62.246094 47.8125 62.691406 C 46.859375 62.054688 45.34375 61.683594 42.953125 62.175781 C 41.847656 63.082031 40.726562 63.964844 39.589844 64.824219 Z M 57.953125 20.773438 C 58.339844 22.410156 58.757812 24.039062 59.121094 25.679688 C 59.441406 27.117188 59.789062 28.539062 59.421875 30 C 58.515625 33.644531 55.65625 36.765625 52.90625 39.179688 C 50.710938 41.109375 48.132812 43.03125 45.332031 44.703125 C 44.582031 46.230469 43.726562 47.707031 42.792969 49.121094 C 39.84375 53.601562 36.21875 57.648438 32.191406 61.1875 C 25.058594 67.460938 16.371094 72.226562 6.933594 73.851562 C 6.386719 73.945312 5.835938 74.027344 5.285156 74.097656 C 3.625 74.308594 1.949219 74.414062 0.285156 74.394531 C 22.640625 79.382812 39.199219 64.066406 46.039062 58.191406 C 46.648438 57.667969 47.253906 57.15625 47.863281 56.652344 C 49.386719 55.398438 50.914062 54.207031 52.4375 53.085938 C 52.742188 52.863281 53.046875 52.640625 53.351562 52.421875 C 66.464844 43.03125 79.496094 38.953125 90.230469 44.46875 C 93.476562 46.136719 96.511719 48.679688 99.273438 52.21875 C 98.277344 39.941406 81.332031 24.980469 57.953125 20.773438 Z M 57.0625 22.992188 C 57.140625 22.921875 57.238281 22.875 57.339844 22.851562 C 55.941406 17.144531 54.410156 10.355469 57.90625 7.175781 C 62.707031 2.8125 66.410156 5.53125 72.535156 2.058594 C 73.332031 1.609375 73.992188 1.050781 74.535156 0.425781 C 73.84375 0.679688 73.121094 0.878906 72.363281 1.03125 C 72.066406 1.089844 71.765625 1.140625 71.460938 1.183594 C 67.03125 1.789062 62.5625 0.84375 58.121094 1.203125 C 53.863281 1.546875 49.921875 3.21875 47.375 6.757812 C 44.550781 10.691406 43.488281 15.609375 42.425781 20.246094 C 41.25 25.398438 39.816406 30.703125 36.839844 35.144531 C 36.523438 35.621094 36.183594 36.085938 35.824219 36.546875 C 39.070312 35.417969 42.046875 33.816406 44.363281 32.460938 C 48.539062 30.023438 56.488281 23.496094 57.0625 22.992188 Z M 38.464844 46.683594 C 49.710938 42.4375 59.371094 33.035156 58.46875 27.835938 C 58.246094 26.554688 57.878906 25.0625 57.488281 23.472656 C 57.351562 23.597656 49.128906 30.421875 44.6875 33.015625 C 42.507812 34.289062 40.128906 35.546875 37.644531 36.550781 C 37.972656 36.628906 38.300781 36.722656 38.617188 36.84375 C 40.023438 37.367188 41.203125 38.320312 41.433594 39.945312 C 41.714844 41.945312 40.773438 43.976562 39.476562 45.582031 C 39.15625 45.976562 38.8125 46.347656 38.464844 46.683594 Z M 17.835938 123.976562 C 18.886719 121.40625 20.488281 119.007812 22.195312 117.292969 C 21.640625 118.832031 20.023438 121.628906 19.449219 124.75 C 21.214844 124.75 23.53125 123.050781 24.046875 121.382812 C 24.414062 120.1875 24.855469 119.1875 25.34375 118.347656 C 24.820312 117.5625 24.519531 116.839844 24.476562 116.253906 C 27.25 107.769531 30.601562 106.277344 33.601562 101.476562 C 33.058594 100.597656 32.40625 99.644531 31.640625 98.785156 C 31.535156 98.988281 31.421875 99.1875 31.308594 99.386719 C 29.71875 102.253906 27.789062 104.933594 25.546875 107.328125 C 21.347656 111.8125 16.117188 115.511719 10.269531 117.488281 C 11.492188 118.554688 15.667969 122.203125 17.835938 123.976562 Z M 37.835938 142.097656 C 33.4375 143.582031 29.304688 141.722656 25.359375 139.832031 C 21.929688 138.1875 18.625 136.675781 14.878906 136.265625 C 15.15625 136.386719 15.433594 136.511719 15.710938 136.640625 C 15.726562 136.648438 15.742188 136.65625 15.757812 136.664062 C 16.015625 136.785156 16.273438 136.910156 16.527344 137.035156 C 16.566406 137.054688 16.605469 137.074219 16.644531 137.09375 C 16.875 137.210938 17.109375 137.328125 17.335938 137.453125 C 17.398438 137.484375 17.464844 137.519531 17.527344 137.554688 C 17.730469 137.664062 17.933594 137.777344 18.132812 137.890625 C 18.222656 137.945312 18.3125 137.996094 18.402344 138.050781 C 18.574219 138.152344 18.746094 138.253906 18.914062 138.355469 C 19.035156 138.433594 19.15625 138.511719 19.277344 138.589844 C 19.410156 138.675781 19.542969 138.761719 19.675781 138.847656 C 19.839844 138.960938 20.003906 139.074219 20.164062 139.191406 C 20.246094 139.25 20.332031 139.308594 20.414062 139.367188 C 20.65625 139.546875 20.894531 139.730469 21.128906 139.917969 C 24.492188 142.644531 30.398438 149.449219 36.542969 156.101562 L 42.863281 161.917969 L 41.15625 140.644531 C 40.070312 141.171875 38.960938 141.71875 37.835938 142.097656 Z M 78.160156 98.738281 C 78.507812 99.246094 78.828125 99.765625 79.136719 100.292969 C 82.0625 105.300781 83.175781 111.25 81.808594 117.15625 C 80.777344 121.613281 78.496094 126.320312 75.152344 129.519531 C 71.785156 132.746094 75.316406 156.433594 70.109375 147.15625 C 65.675781 139.253906 59.90625 137.378906 56.59375 137 C 57.371094 137.578125 58.160156 138.253906 58.949219 139.023438 C 59.804688 139.851562 60.621094 140.808594 61.417969 141.84375 C 61.789062 142.378906 62.195312 142.90625 62.535156 143.488281 C 62.714844 143.773438 62.890625 144.0625 63.070312 144.351562 C 63.230469 144.648438 63.390625 144.953125 63.554688 145.253906 C 63.890625 145.855469 64.160156 146.488281 64.449219 147.121094 C 64.714844 147.761719 64.964844 148.414062 65.199219 149.066406 C 65.625 150.390625 66.003906 151.730469 66.234375 153.074219 C 66.355469 153.746094 66.484375 154.410156 66.535156 155.074219 C 66.601562 155.734375 66.695312 156.386719 66.703125 157.03125 C 66.714844 157.675781 66.777344 158.308594 66.75 158.925781 C 66.730469 159.542969 66.710938 160.144531 66.695312 160.734375 C 66.582031 161.902344 66.507812 163.003906 66.316406 164.003906 C 66.230469 164.507812 66.148438 164.984375 66.070312 165.441406 C 65.964844 165.890625 65.863281 166.320312 65.769531 166.71875 C 65.667969 167.117188 65.582031 167.492188 65.488281 167.835938 C 65.390625 168.179688 65.28125 168.488281 65.195312 168.769531 C 65.023438 169.332031 64.859375 169.769531 64.761719 170.066406 C 64.652344 170.363281 64.59375 170.519531 64.59375 170.519531 C 64.59375 170.519531 64.59375 170.351562 64.589844 170.035156 C 64.59375 169.71875 64.585938 169.257812 64.605469 168.675781 C 64.613281 168.382812 64.628906 168.0625 64.625 167.710938 C 64.617188 167.359375 64.621094 166.984375 64.617188 166.582031 C 64.621094 166.179688 64.621094 165.753906 64.625 165.304688 C 64.613281 164.855469 64.597656 164.382812 64.582031 163.890625 C 64.574219 163.402344 64.574219 162.890625 64.527344 162.367188 C 64.496094 161.84375 64.46875 161.300781 64.433594 160.746094 C 64.382812 160.191406 64.328125 159.625 64.273438 159.046875 C 64.222656 158.464844 64.125 157.882812 64.054688 157.285156 C 63.714844 154.910156 63.171875 152.421875 62.363281 150.03125 C 62.15625 149.4375 61.9375 148.84375 61.707031 148.261719 C 61.445312 147.691406 61.242188 147.097656 60.953125 146.546875 C 60.445312 145.414062 59.828125 144.359375 59.226562 143.335938 C 58.585938 142.339844 57.949219 141.378906 57.269531 140.519531 C 56.597656 139.652344 55.925781 138.851562 55.257812 138.148438 C 54.863281 137.722656 54.476562 137.328125 54.097656 136.960938 C 53.996094 136.972656 53.9375 136.984375 53.9375 136.984375 C 53.9375 136.984375 65.613281 163.910156 56.277344 174.15625 C 54.3125 176.308594 49.546875 175.609375 46.683594 174.773438 C 46.132812 174.613281 45.648438 174.449219 45.273438 174.296875 C 46.699219 175.761719 48.273438 177.066406 50 178.085938 C 54.710938 180.867188 62.074219 181.773438 68.210938 174.664062 C 78.925781 162.257812 94.136719 128.457031 84.925781 106.636719 C 83.550781 103.621094 81.03125 100.785156 78.160156 98.738281 Z M 78.160156 98.738281 " fill-opacity="1" fill-rule="nonzero"/></g></g></g></g><path fill="#a2a2a2" d="M 187.433594 138.945312 C 187.203125 137.320312 186.023438 136.367188 184.617188 135.839844 C 181.421875 137.203125 177.828125 138.261719 174.226562 138.261719 C 173.425781 138.261719 172.632812 138.207031 171.867188 138.105469 C 168.859375 137.703125 166.148438 136.34375 164.242188 134.285156 C 163.226562 133.1875 162.375 131.925781 161.664062 130.453125 C 161.382812 132.148438 161.179688 133.84375 161.042969 135.578125 C 160.910156 137.230469 161.628906 140.097656 164.082031 142.746094 C 165.921875 144.730469 169.257812 147.097656 174.6875 147.101562 C 174.6875 147.101562 174.691406 147.101562 174.691406 147.101562 C 176.117188 147.101562 177.625 146.929688 179.171875 146.597656 C 181.292969 146.140625 183.414062 145.441406 185.476562 144.582031 C 186.773438 142.976562 187.714844 140.945312 187.433594 138.945312 Z M 180.832031 142.011719 C 180.589844 142.136719 180.292969 142.292969 179.949219 142.453125 C 179.773438 142.53125 179.589844 142.613281 179.394531 142.703125 C 179.199219 142.789062 178.984375 142.847656 178.761719 142.921875 C 178.316406 143.066406 177.828125 143.214844 177.308594 143.359375 C 176.78125 143.484375 176.210938 143.558594 175.625 143.648438 C 175.332031 143.695312 175.03125 143.734375 174.722656 143.730469 C 174.414062 143.742188 174.101562 143.75 173.785156 143.746094 C 173.15625 143.785156 172.515625 143.664062 171.875 143.601562 C 171.554688 143.570312 171.238281 143.492188 170.921875 143.414062 C 170.609375 143.339844 170.296875 143.25 169.988281 143.167969 C 169.683594 143.070312 169.390625 142.945312 169.097656 142.828125 C 168.808594 142.714844 168.519531 142.601562 168.253906 142.441406 C 167.988281 142.292969 167.722656 142.152344 167.472656 142.003906 C 167.226562 141.84375 166.992188 141.675781 166.769531 141.507812 C 166.660156 141.425781 166.550781 141.34375 166.441406 141.261719 C 166.339844 141.171875 166.242188 141.082031 166.144531 140.996094 C 165.957031 140.8125 165.761719 140.652344 165.601562 140.476562 C 165.273438 140.113281 164.992188 139.78125 164.78125 139.453125 C 164.546875 139.144531 164.398438 138.832031 164.265625 138.59375 C 164.019531 138.09375 163.945312 137.789062 163.945312 137.789062 C 163.945312 137.789062 164.003906 137.839844 164.117188 137.9375 C 164.21875 138.035156 164.394531 138.160156 164.59375 138.328125 C 164.8125 138.488281 165.058594 138.683594 165.359375 138.882812 C 165.648438 139.09375 166.007812 139.285156 166.371094 139.511719 C 166.558594 139.621094 166.765625 139.71875 166.96875 139.828125 C 167.066406 139.882812 167.171875 139.9375 167.273438 139.996094 C 167.382812 140.042969 167.496094 140.089844 167.605469 140.140625 C 167.832031 140.234375 168.050781 140.347656 168.285156 140.445312 C 168.53125 140.523438 168.769531 140.621094 169.015625 140.710938 C 169.503906 140.902344 170.039062 141.011719 170.558594 141.175781 C 170.832031 141.230469 171.105469 141.277344 171.375 141.339844 C 171.644531 141.40625 171.917969 141.46875 172.203125 141.488281 C 172.761719 141.550781 173.3125 141.664062 173.875 141.675781 C 174.433594 141.691406 174.984375 141.78125 175.527344 141.753906 C 176.066406 141.742188 176.59375 141.773438 177.097656 141.761719 C 177.601562 141.734375 178.078125 141.714844 178.527344 141.703125 C 178.75 141.699219 178.96875 141.703125 179.171875 141.691406 C 179.378906 141.675781 179.570312 141.660156 179.753906 141.648438 C 180.121094 141.621094 180.449219 141.613281 180.71875 141.601562 C 181.257812 141.585938 181.578125 141.597656 181.578125 141.597656 C 181.578125 141.597656 181.3125 141.761719 180.832031 142.011719 Z M 153.125 197.851562 C 153.125 203.664062 157.371094 208.390625 162.589844 208.390625 C 167.808594 208.390625 172.054688 203.664062 172.054688 197.851562 C 172.054688 192.742188 164.558594 184.101562 162.589844 181.921875 C 160.621094 184.101562 153.125 192.746094 153.125 197.851562 Z M 163.058594 184.808594 C 163.464844 185.25 163.84375 185.6875 164.222656 186.136719 C 164.597656 186.585938 164.972656 187.035156 165.332031 187.503906 C 166.035156 188.441406 166.730469 189.382812 167.339844 190.394531 C 167.648438 190.894531 167.949219 191.398438 168.21875 191.925781 C 168.488281 192.449219 168.742188 192.980469 168.964844 193.53125 C 169.175781 194.085938 169.367188 194.644531 169.492188 195.226562 C 169.554688 195.515625 169.601562 195.808594 169.628906 196.101562 L 169.640625 196.546875 L 169.617188 196.984375 L 169.546875 196.554688 L 169.4375 196.136719 L 169.308594 195.730469 L 169.152344 195.332031 C 169.039062 195.070312 168.929688 194.808594 168.796875 194.554688 C 168.671875 194.300781 168.535156 194.050781 168.394531 193.804688 C 168.117188 193.304688 167.8125 192.824219 167.492188 192.351562 C 167.175781 191.878906 166.851562 191.410156 166.507812 190.953125 C 166.167969 190.496094 165.816406 190.042969 165.464844 189.59375 C 165.113281 189.144531 164.75 188.699219 164.378906 188.261719 C 164.011719 187.824219 163.648438 187.382812 163.269531 186.953125 C 163.046875 186.699219 162.816406 186.445312 162.589844 186.195312 C 162.363281 186.445312 162.132812 186.699219 161.910156 186.953125 C 161.535156 187.382812 161.167969 187.824219 160.800781 188.261719 C 160.429688 188.699219 160.066406 189.140625 159.714844 189.589844 C 159.363281 190.042969 159.011719 190.492188 158.671875 190.953125 C 158.328125 191.410156 158.003906 191.878906 157.6875 192.351562 C 157.367188 192.824219 157.0625 193.304688 156.785156 193.800781 C 156.644531 194.046875 156.507812 194.296875 156.382812 194.554688 C 156.253906 194.808594 156.140625 195.070312 156.027344 195.332031 L 155.871094 195.730469 L 155.742188 196.136719 L 155.636719 196.550781 L 155.5625 196.984375 L 155.539062 196.546875 L 155.554688 196.101562 C 155.582031 195.808594 155.628906 195.515625 155.6875 195.226562 C 155.8125 194.644531 156.007812 194.085938 156.21875 193.53125 C 156.4375 192.980469 156.695312 192.449219 156.964844 191.925781 C 157.230469 191.398438 157.535156 190.894531 157.84375 190.394531 C 158.449219 189.386719 159.148438 188.441406 159.851562 187.503906 C 160.207031 187.035156 160.582031 186.589844 160.957031 186.136719 C 161.339844 185.6875 161.71875 185.25 162.125 184.808594 C 162.359375 184.550781 162.761719 184.53125 163.019531 184.769531 C 163.03125 184.78125 163.046875 184.796875 163.058594 184.808594 Z M 163.058594 184.808594 " fill-opacity="1" fill-rule="nonzero"/><g mask="url(#2aef616543)"><g transform="matrix(1, 0, 0, 1, 156, 189)"><g clip-path="url(#7c5bccd337)"><g clip-path="url(#d74d34fe7e)"><path fill="#ffffff" d="M 2.585938 6.644531 C 2.585938 6.644531 2.441406 9.996094 4.644531 10.839844 C 3.582031 5.496094 6.289062 1.597656 6.652344 1.144531 C 9.226562 3.578125 13.832031 10.183594 10.011719 13.632812 C 7.703125 15.71875 4.421875 16.007812 2.277344 13.488281 C 0.605469 11.519531 0.765625 8.457031 2.585938 6.644531 Z M 2.585938 6.644531 " fill-opacity="1" fill-rule="nonzero"/></g></g></g></g><g mask="url(#0aa6aa1247)"><g transform="matrix(1, 0, 0, 1, 215, 141)"><g clip-path="url(#d6d55fd581)"><g clip-path="url(#e42ceb8ba2)"><path fill="#292929" d="M 27.71875 18.722656 C 23.207031 21.464844 17.082031 22.449219 11.804688 21.121094 C 9.683594 15.757812 5.085938 18.703125 3.398438 14.710938 C 1.59375 10.433594 3.828125 6.742188 1.792969 3.90625 C 1.511719 3.511719 1.210938 3.136719 0.894531 2.78125 C 2.414062 2.28125 3.964844 1.863281 5.546875 1.546875 C 15.089844 -0.371094 23.578125 3.523438 29.519531 10.976562 C 29.742188 11.257812 30.085938 11.339844 30.417969 11.277344 C 30.753906 15.039062 29.234375 17.792969 27.71875 18.722656 Z M 27.71875 18.722656 " fill-opacity="1" fill-rule="nonzero"/></g></g></g></g></svg>